<svg xmlns="http://www.w3.org/2000/svg" xmlns:xlink="http://www.w3.org/1999/xlink" width="92" height="91" viewBox="0 0 92 91">
  <defs>
    <clipPath id="clip-path">
      <path id="path3834" d="M0-682.665H60.919v60.919H0Z" transform="translate(0 682.665)"/>
    </clipPath>
  </defs>
  <g id="Grupo_1071914" data-name="Grupo 1071914" transform="translate(-229 -1491)">
    <rect id="Rectángulo_375712" data-name="Rectángulo 375712" width="92" height="91" rx="13" transform="translate(229 1491)" fill="#fff"/>
    <g id="g3828" transform="translate(245 2188.666)">
      <g id="g3830" transform="translate(0 -682.665)">
        <g id="g3832" clip-path="url(#clip-path)">
          <g id="g3838" transform="translate(0.892 22.261)">
            <path id="path3840" d="M0,0V5.949a.6.6,0,0,0,.595.595H25.677a.6.6,0,0,0,.541-.347l1.72-3.758H31.2L32.916,6.2a.6.6,0,0,0,.541.347H58.539a.6.6,0,0,0,.595-.595V0Z" fill="#fac600"/>
          </g>
          <g id="g3842" transform="translate(0.892 22.261)">
            <path id="path3844" d="M-73.468-60.717v-5.949h-7.2v5.949a.6.6,0,0,0,.595.595h7.2a.6.6,0,0,1-.595-.595" transform="translate(80.666 66.667)" fill="#e8b801"/>
          </g>
          <g id="g3846" transform="translate(0 21.368)">
            <path id="path3848" d="M-9.108-10H50.026a.892.892,0,0,1,.892.892v5.949a1.489,1.489,0,0,1-1.487,1.487H24.349A1.491,1.491,0,0,1,23-2.539L21.515-5.776H19.4L17.922-2.539a1.491,1.491,0,0,1-1.352.868H-8.513A1.489,1.489,0,0,1-10-3.159V-9.108A.892.892,0,0,1-9.108-10ZM49.134-8.215H-8.215v4.759H16.378L18.019-7.04a.892.892,0,0,1,.811-.521h3.257a.892.892,0,0,1,.811.521L24.54-3.456H49.134Z" transform="translate(10 10)"/>
          </g>
          <g id="g3850" transform="translate(0.892 9.232)">
            <path id="path3852" d="M-603.531-48.479v-4.155a.6.6,0,0,0-.595-.595H-662.07a.6.6,0,0,0-.595.595v4.155a.591.591,0,0,0,.491.585,2.975,2.975,0,0,1,2.484,2.934,2.976,2.976,0,0,1-2.484,2.934.591.591,0,0,0-.491.585v3.679h59.134v-3.679a.591.591,0,0,0-.491-.585,2.975,2.975,0,0,1-2.484-2.934,2.975,2.975,0,0,1,2.484-2.934.591.591,0,0,0,.491-.585" transform="translate(662.665 53.229)" fill="#08b865"/>
          </g>
          <g id="g3854" transform="translate(0.892 9.232)">
            <path id="path3856" d="M-78.475-114.345a2.975,2.975,0,0,0,2.484-2.934,2.975,2.975,0,0,0-2.484-2.934.591.591,0,0,1-.491-.585v-4.155a.6.6,0,0,1,.595-.595h-7.2a.6.6,0,0,0-.595.595v4.155a.591.591,0,0,0,.491.585,2.975,2.975,0,0,1,2.484,2.934,2.975,2.975,0,0,1-2.484,2.934.591.591,0,0,0-.491.585v3.679h7.2v-3.679a.591.591,0,0,1,.491-.585" transform="translate(86.164 125.549)" fill="#09a755"/>
          </g>
          <g id="g3858" transform="translate(0 8.34)">
            <path id="path3860" d="M-165.306-166.081h-39.918a.892.892,0,0,1-.892-.892.892.892,0,0,1,.892-.892H-166.2v-2.543a3.852,3.852,0,0,1-2.975-3.763,3.852,3.852,0,0,1,2.975-3.763v-3.613h-57.349v3.613a3.852,3.852,0,0,1,2.975,3.763,3.852,3.852,0,0,1-2.975,3.763v2.543h14.159a.892.892,0,0,1,.892.892.892.892,0,0,1-.892.892H-224.44a.892.892,0,0,1-.892-.892v-3.679a1.478,1.478,0,0,1,1.237-1.465,2.074,2.074,0,0,0,1.737-2.054,2.074,2.074,0,0,0-1.738-2.054,1.478,1.478,0,0,1-1.237-1.465v-4.155a1.489,1.489,0,0,1,1.487-1.487H-165.9a1.489,1.489,0,0,1,1.487,1.487v4.155a1.478,1.478,0,0,1-1.237,1.465,2.074,2.074,0,0,0-1.737,2.054,2.074,2.074,0,0,0,1.738,2.054,1.478,1.478,0,0,1,1.237,1.465v3.679A.892.892,0,0,1-165.306-166.081Z" transform="translate(225.333 183.333)"/>
          </g>
          <g id="g3862" transform="translate(27.306 12.861)">
            <path id="path3864" d="M-45.426-83.79H-49.52a.357.357,0,0,1-.357-.357v-7.5A.357.357,0,0,1-49.52-92h4.094a.357.357,0,0,1,.357.357v7.5a.357.357,0,0,1-.357.357" transform="translate(49.877 92)" fill="#596c76"/>
          </g>
          <g id="g3866" transform="translate(27.306 12.861)">
            <path id="path3868" d="M-21.251-80.147v-7.5A.357.357,0,0,1-20.894-88h-2.082a.357.357,0,0,0-.357.357v7.5a.357.357,0,0,0,.357.357h2.082a.357.357,0,0,1-.357-.357" transform="translate(23.333 88)" fill="#465a61"/>
          </g>
          <g id="g3870" transform="translate(6.841 12.861)">
            <path id="path3872" d="M-161.508-83.79h-15.468a.357.357,0,0,1-.357-.357v-7.5a.357.357,0,0,1,.357-.357h15.468a.357.357,0,0,1,.357.357v7.5a.357.357,0,0,1-.357.357" transform="translate(177.333 92)" fill="#596c76"/>
          </g>
          <g id="g3874" transform="translate(6.841 12.861)">
            <path id="path3876" d="M-37.038-80.147v-7.5A.357.357,0,0,1-36.681-88H-40.31a.357.357,0,0,0-.357.357v7.5a.357.357,0,0,0,.357.357h3.629a.357.357,0,0,1-.357-.357" transform="translate(40.667 88)" fill="#465a61"/>
          </g>
          <g id="g3878" transform="translate(5.949 11.969)">
            <path id="path3880" d="M-170.616-92.005h-15.468a1.251,1.251,0,0,1-1.249-1.249v-7.5A1.251,1.251,0,0,1-186.084-102h15.468a1.251,1.251,0,0,1,1.249,1.249v7.5A1.251,1.251,0,0,1-170.616-92.005Zm-14.932-1.785h14.4v-6.425h-14.4Z" transform="translate(187.333 102)"/>
          </g>
          <g id="g3882" transform="translate(34.627 12.861)">
            <path id="path3884" d="M-45.426-83.79H-49.52a.357.357,0,0,1-.357-.357v-7.5A.357.357,0,0,1-49.52-92h4.094a.357.357,0,0,1,.357.357v7.5a.357.357,0,0,1-.357.357" transform="translate(49.877 92)" fill="#596c76"/>
          </g>
          <g id="g3886" transform="translate(34.627 12.861)">
            <path id="path3888" d="M-21.251-80.147v-7.5A.357.357,0,0,1-20.894-88h-2.082a.357.357,0,0,0-.357.357v7.5a.357.357,0,0,0,.357.357h2.082a.357.357,0,0,1-.357-.357" transform="translate(23.333 88)" fill="#465a61"/>
          </g>
          <g id="g3890" transform="translate(41.948 12.861)">
            <path id="path3892" d="M-45.426-83.79H-49.52a.357.357,0,0,1-.357-.357v-7.5A.357.357,0,0,1-49.52-92h4.094a.357.357,0,0,1,.357.357v7.5a.357.357,0,0,1-.357.357" transform="translate(49.877 92)" fill="#596c76"/>
          </g>
          <g id="g3894" transform="translate(41.948 12.861)">
            <path id="path3896" d="M-21.251-80.147v-7.5A.357.357,0,0,1-20.894-88h-2.082a.357.357,0,0,0-.357.357v7.5a.357.357,0,0,0,.357.357h2.082a.357.357,0,0,1-.357-.357" transform="translate(23.333 88)" fill="#465a61"/>
          </g>
          <g id="g3898" transform="translate(49.269 12.861)">
            <path id="path3900" d="M-45.426-83.79H-49.52a.357.357,0,0,1-.357-.357v-7.5A.357.357,0,0,1-49.52-92h4.094a.357.357,0,0,1,.357.357v7.5a.357.357,0,0,1-.357.357" transform="translate(49.877 92)" fill="#596c76"/>
          </g>
          <g id="g3902" transform="translate(49.269 12.861)">
            <path id="path3904" d="M-21.251-80.147v-7.5A.357.357,0,0,1-20.894-88h-2.082a.357.357,0,0,0-.357.357v7.5a.357.357,0,0,0,.357.357h2.082a.357.357,0,0,1-.357-.357" transform="translate(23.333 88)" fill="#465a61"/>
          </g>
          <g id="g3906" transform="translate(26.414 11.969)">
            <path id="path3908" d="M-54.534-92.005h-4.094a1.251,1.251,0,0,1-1.249-1.249v-7.5A1.251,1.251,0,0,1-58.628-102h4.094a1.251,1.251,0,0,1,1.249,1.249v7.5A1.251,1.251,0,0,1-54.534-92.005Zm-3.559-1.785h3.023v-6.425h-3.023Z" transform="translate(59.877 102)"/>
          </g>
          <g id="g3910" transform="translate(33.735 11.969)">
            <path id="path3912" d="M-54.534-92.005h-4.094a1.251,1.251,0,0,1-1.249-1.249v-7.5A1.251,1.251,0,0,1-58.628-102h4.094a1.251,1.251,0,0,1,1.249,1.249v7.5A1.251,1.251,0,0,1-54.534-92.005Zm-3.559-1.785h3.023v-6.425h-3.023Z" transform="translate(59.877 102)"/>
          </g>
          <g id="g3914" transform="translate(41.056 11.969)">
            <path id="path3916" d="M-54.534-92.005h-4.094a1.251,1.251,0,0,1-1.249-1.249v-7.5A1.251,1.251,0,0,1-58.628-102h4.094a1.251,1.251,0,0,1,1.249,1.249v7.5A1.251,1.251,0,0,1-54.534-92.005Zm-3.559-1.785h3.023v-6.425h-3.023Z" transform="translate(59.877 102)"/>
          </g>
          <g id="g3918" transform="translate(48.377 11.969)">
            <path id="path3920" d="M-54.534-92.005h-4.094a1.251,1.251,0,0,1-1.249-1.249v-7.5A1.251,1.251,0,0,1-58.628-102h4.094a1.251,1.251,0,0,1,1.249,1.249v7.5A1.251,1.251,0,0,1-54.534-92.005Zm-3.559-1.785h3.023v-6.425h-3.023Z" transform="translate(59.877 102)"/>
          </g>
          <g id="g3922" transform="translate(2.796 26.485)">
            <path id="path3924" d="M-9.108-6.787A.892.892,0,0,1-10-7.68V-9.108A.892.892,0,0,1-9.108-10a.892.892,0,0,1,.892.892V-7.68A.892.892,0,0,1-9.108-6.787Z" transform="translate(10 10)"/>
          </g>
          <g id="g3926" transform="translate(6.366 26.485)">
            <path id="path3928" d="M-9.108-6.787A.892.892,0,0,1-10-7.68V-9.108A.892.892,0,0,1-9.108-10a.892.892,0,0,1,.892.892V-7.68A.892.892,0,0,1-9.108-6.787Z" transform="translate(10 10)"/>
          </g>
          <g id="g3930" transform="translate(9.935 26.485)">
            <path id="path3932" d="M-9.108-6.787A.892.892,0,0,1-10-7.68V-9.108A.892.892,0,0,1-9.108-10a.892.892,0,0,1,.892.892V-7.68A.892.892,0,0,1-9.108-6.787Z" transform="translate(10 10)"/>
          </g>
          <g id="g3934" transform="translate(13.504 26.485)">
            <path id="path3936" d="M-9.108-6.787A.892.892,0,0,1-10-7.68V-9.108A.892.892,0,0,1-9.108-10a.892.892,0,0,1,.892.892V-7.68A.892.892,0,0,1-9.108-6.787Z" transform="translate(10 10)"/>
          </g>
          <g id="g3938" transform="translate(17.074 26.485)">
            <path id="path3940" d="M-9.108-6.787A.892.892,0,0,1-10-7.68V-9.108A.892.892,0,0,1-9.108-10a.892.892,0,0,1,.892.892V-7.68A.892.892,0,0,1-9.108-6.787Z" transform="translate(10 10)"/>
          </g>
          <g id="g3942" transform="translate(20.643 26.485)">
            <path id="path3944" d="M-9.108-6.787A.892.892,0,0,1-10-7.68V-9.108A.892.892,0,0,1-9.108-10a.892.892,0,0,1,.892.892V-7.68A.892.892,0,0,1-9.108-6.787Z" transform="translate(10 10)"/>
          </g>
          <g id="g3946" transform="translate(24.213 26.485)">
            <path id="path3948" d="M-9.108-6.787A.892.892,0,0,1-10-7.68V-9.108A.892.892,0,0,1-9.108-10a.892.892,0,0,1,.892.892V-7.68A.892.892,0,0,1-9.108-6.787Z" transform="translate(10 10)"/>
          </g>
          <g id="g3950" transform="translate(34.921 26.485)">
            <path id="path3952" d="M-9.108-6.787A.892.892,0,0,1-10-7.68V-9.108A.892.892,0,0,1-9.108-10a.892.892,0,0,1,.892.892V-7.68A.892.892,0,0,1-9.108-6.787Z" transform="translate(10 10)"/>
          </g>
          <g id="g3954" transform="translate(38.491 26.485)">
            <path id="path3956" d="M-9.108-6.787A.892.892,0,0,1-10-7.68V-9.108A.892.892,0,0,1-9.108-10a.892.892,0,0,1,.892.892V-7.68A.892.892,0,0,1-9.108-6.787Z" transform="translate(10 10)"/>
          </g>
          <g id="g3958" transform="translate(42.06 26.485)">
            <path id="path3960" d="M-9.108-6.787A.892.892,0,0,1-10-7.68V-9.108A.892.892,0,0,1-9.108-10a.892.892,0,0,1,.892.892V-7.68A.892.892,0,0,1-9.108-6.787Z" transform="translate(10 10)"/>
          </g>
          <g id="g3962" transform="translate(45.63 26.485)">
            <path id="path3964" d="M-9.108-6.787A.892.892,0,0,1-10-7.68V-9.108A.892.892,0,0,1-9.108-10a.892.892,0,0,1,.892.892V-7.68A.892.892,0,0,1-9.108-6.787Z" transform="translate(10 10)"/>
          </g>
          <g id="g3966" transform="translate(49.199 26.485)">
            <path id="path3968" d="M-9.108-6.787A.892.892,0,0,1-10-7.68V-9.108A.892.892,0,0,1-9.108-10a.892.892,0,0,1,.892.892V-7.68A.892.892,0,0,1-9.108-6.787Z" transform="translate(10 10)"/>
          </g>
          <g id="g3970" transform="translate(52.768 26.485)">
            <path id="path3972" d="M-9.108-6.787A.892.892,0,0,1-10-7.68V-9.108A.892.892,0,0,1-9.108-10a.892.892,0,0,1,.892.892V-7.68A.892.892,0,0,1-9.108-6.787Z" transform="translate(10 10)"/>
          </g>
          <g id="g3974" transform="translate(56.338 26.485)">
            <path id="path3976" d="M-9.108-6.787A.892.892,0,0,1-10-7.68V-9.108A.892.892,0,0,1-9.108-10a.892.892,0,0,1,.892.892V-7.68A.892.892,0,0,1-9.108-6.787Z" transform="translate(10 10)"/>
          </g>
          <g id="g3978" transform="translate(2.677 11.076)">
            <path id="path3980" d="M-18.215-9.108a.892.892,0,0,1-.892.892A.892.892,0,0,1-20-9.108.892.892,0,0,1-19.108-10a.892.892,0,0,1,.892.892" transform="translate(20 10)"/>
          </g>
          <g id="g3982" transform="translate(56.457 11.076)">
            <path id="path3984" d="M-18.215-9.108a.892.892,0,0,1-.892.892A.892.892,0,0,1-20-9.108.892.892,0,0,1-19.108-10a.892.892,0,0,1,.892.892" transform="translate(20 10)"/>
          </g>
          <g id="g3986" transform="translate(2.677 21.547)">
            <path id="path3988" d="M-18.215-9.108a.892.892,0,0,1-.892.892A.892.892,0,0,1-20-9.108.892.892,0,0,1-19.108-10a.892.892,0,0,1,.892.892" transform="translate(20 10)"/>
          </g>
          <g id="g3990" transform="translate(56.457 21.547)">
            <path id="path3992" d="M-18.215-9.108a.892.892,0,0,1-.892.892A.892.892,0,0,1-20-9.108.892.892,0,0,1-19.108-10a.892.892,0,0,1,.892.892" transform="translate(20 10)"/>
          </g>
          <g id="g3994" transform="translate(0.892 45.143)">
            <path id="path3996" d="M0,0V5.949a.6.6,0,0,0,.595.595H25.677a.6.6,0,0,0,.541-.347l1.72-3.758H31.2L32.916,6.2a.6.6,0,0,0,.541.347H58.539a.6.6,0,0,0,.595-.595V0Z" fill="#fac600"/>
          </g>
          <g id="g3998" transform="translate(0.892 45.143)">
            <path id="path4000" d="M-73.468-60.717v-5.949h-7.2v5.949a.6.6,0,0,0,.595.595h7.2a.6.6,0,0,1-.595-.595" transform="translate(80.666 66.667)" fill="#e8b801"/>
          </g>
          <g id="g4002" transform="translate(0 44.25)">
            <path id="path4004" d="M-9.108-10H50.026a.892.892,0,0,1,.892.892v5.949a1.489,1.489,0,0,1-1.487,1.487H24.349A1.491,1.491,0,0,1,23-2.539L21.515-5.776H19.4L17.922-2.539a1.491,1.491,0,0,1-1.352.868H-8.513A1.489,1.489,0,0,1-10-3.159V-9.108A.892.892,0,0,1-9.108-10ZM49.134-8.215H-8.215v4.759H16.378L18.019-7.04a.892.892,0,0,1,.811-.521h3.257a.892.892,0,0,1,.811.521L24.54-3.456H49.134Z" transform="translate(10 10)"/>
          </g>
          <g id="g4006" transform="translate(0.892 32.114)">
            <path id="path4008" d="M-603.531-48.479v-4.155a.6.6,0,0,0-.595-.595H-662.07a.6.6,0,0,0-.595.595v4.155a.591.591,0,0,0,.491.585,2.975,2.975,0,0,1,2.484,2.934,2.975,2.975,0,0,1-2.484,2.934.591.591,0,0,0-.491.585v3.679h59.134v-3.679a.591.591,0,0,0-.491-.585,2.975,2.975,0,0,1-2.484-2.934,2.975,2.975,0,0,1,2.484-2.934.591.591,0,0,0,.491-.585" transform="translate(662.665 53.229)" fill="#08b865"/>
          </g>
          <g id="g4010" transform="translate(0.892 32.114)">
            <path id="path4012" d="M-78.475-114.345a2.975,2.975,0,0,0,2.484-2.934,2.975,2.975,0,0,0-2.484-2.934.591.591,0,0,1-.491-.585v-4.155a.6.6,0,0,1,.595-.595h-7.2a.6.6,0,0,0-.595.595v4.155a.591.591,0,0,0,.491.585,2.975,2.975,0,0,1,2.484,2.934,2.975,2.975,0,0,1-2.484,2.934.591.591,0,0,0-.491.585v3.679h7.2v-3.679a.591.591,0,0,1,.491-.585" transform="translate(86.164 125.549)" fill="#09a755"/>
          </g>
          <g id="g4014" transform="translate(0 31.222)">
            <path id="path4016" d="M-501.306,7.252H-560.44a.892.892,0,0,1-.892-.892V2.681a1.478,1.478,0,0,1,1.237-1.465,2.074,2.074,0,0,0,1.738-2.054A2.074,2.074,0,0,0-560.1-2.892a1.478,1.478,0,0,1-1.237-1.465V-8.513A1.489,1.489,0,0,1-559.845-10h48.6a.892.892,0,0,1,.892.892.892.892,0,0,1-.892.892h-48.307V-4.6a3.852,3.852,0,0,1,2.974,3.763,3.852,3.852,0,0,1-2.974,3.763V5.468H-502.2V2.925a3.852,3.852,0,0,1-2.975-3.763A3.852,3.852,0,0,1-502.2-4.6V-8.215h-4.878a.892.892,0,0,1-.892-.892.892.892,0,0,1,.892-.892h5.176a1.489,1.489,0,0,1,1.487,1.487v4.155a1.478,1.478,0,0,1-1.237,1.465,2.074,2.074,0,0,0-1.737,2.054,2.074,2.074,0,0,0,1.738,2.054,1.478,1.478,0,0,1,1.237,1.465V6.36A.892.892,0,0,1-501.306,7.252Z" transform="translate(561.332 10)"/>
          </g>
          <g id="g4018" transform="translate(27.306 35.743)">
            <path id="path4020" d="M-45.426-83.79H-49.52a.357.357,0,0,1-.357-.357v-7.5A.357.357,0,0,1-49.52-92h4.094a.357.357,0,0,1,.357.357v7.5a.357.357,0,0,1-.357.357" transform="translate(49.877 92)" fill="#596c76"/>
          </g>
          <g id="g4022" transform="translate(6.841 35.743)">
            <path id="path4024" d="M-161.508-83.79h-15.468a.357.357,0,0,1-.357-.357v-7.5a.357.357,0,0,1,.357-.357h15.468a.357.357,0,0,1,.357.357v7.5a.357.357,0,0,1-.357.357" transform="translate(177.333 92)" fill="#596c76"/>
          </g>
          <g id="g4026" transform="translate(6.841 35.743)">
            <path id="path4028" d="M-37.038-80.147v-7.5A.357.357,0,0,1-36.681-88H-40.31a.357.357,0,0,0-.357.357v7.5a.357.357,0,0,0,.357.357h3.629a.357.357,0,0,1-.357-.357" transform="translate(40.667 88)" fill="#465a61"/>
          </g>
          <g id="g4030" transform="translate(5.949 34.851)">
            <path id="path4032" d="M-170.616-92.005h-15.468a1.251,1.251,0,0,1-1.249-1.249v-7.5A1.251,1.251,0,0,1-186.084-102h15.468a1.251,1.251,0,0,1,1.249,1.249v7.5A1.251,1.251,0,0,1-170.616-92.005Zm-14.932-1.785h14.4v-6.425h-14.4Z" transform="translate(187.333 102)"/>
          </g>
          <g id="g4034" transform="translate(34.627 35.743)">
            <path id="path4036" d="M-45.426-83.79H-49.52a.357.357,0,0,1-.357-.357v-7.5A.357.357,0,0,1-49.52-92h4.094a.357.357,0,0,1,.357.357v7.5a.357.357,0,0,1-.357.357" transform="translate(49.877 92)" fill="#596c76"/>
          </g>
          <g id="g4038" transform="translate(41.948 35.743)">
            <path id="path4040" d="M-45.426-83.79H-49.52a.357.357,0,0,1-.357-.357v-7.5A.357.357,0,0,1-49.52-92h4.094a.357.357,0,0,1,.357.357v7.5a.357.357,0,0,1-.357.357" transform="translate(49.877 92)" fill="#596c76"/>
          </g>
          <g id="g4042" transform="translate(49.269 35.743)">
            <path id="path4044" d="M-45.426-83.79H-49.52a.357.357,0,0,1-.357-.357v-7.5A.357.357,0,0,1-49.52-92h4.094a.357.357,0,0,1,.357.357v7.5a.357.357,0,0,1-.357.357" transform="translate(49.877 92)" fill="#596c76"/>
          </g>
          <g id="g4046" transform="translate(27.306 35.743)">
            <path id="path4048" d="M-21.251-80.147v-7.5A.357.357,0,0,1-20.894-88h-2.082a.357.357,0,0,0-.357.357v7.5a.357.357,0,0,0,.357.357h2.082a.357.357,0,0,1-.357-.357" transform="translate(23.333 88)" fill="#465a61"/>
          </g>
          <g id="g4050" transform="translate(34.627 35.743)">
            <path id="path4052" d="M-21.251-80.147v-7.5A.357.357,0,0,1-20.894-88h-2.082a.357.357,0,0,0-.357.357v7.5a.357.357,0,0,0,.357.357h2.082a.357.357,0,0,1-.357-.357" transform="translate(23.333 88)" fill="#465a61"/>
          </g>
          <g id="g4054" transform="translate(41.948 35.743)">
            <path id="path4056" d="M-21.251-80.147v-7.5A.357.357,0,0,1-20.894-88h-2.082a.357.357,0,0,0-.357.357v7.5a.357.357,0,0,0,.357.357h2.082a.357.357,0,0,1-.357-.357" transform="translate(23.333 88)" fill="#465a61"/>
          </g>
          <g id="g4058" transform="translate(49.269 35.743)">
            <path id="path4060" d="M-21.251-80.147v-7.5A.357.357,0,0,1-20.894-88h-2.082a.357.357,0,0,0-.357.357v7.5a.357.357,0,0,0,.357.357h2.082a.357.357,0,0,1-.357-.357" transform="translate(23.333 88)" fill="#465a61"/>
          </g>
          <g id="g4062" transform="translate(26.414 34.851)">
            <path id="path4064" d="M-58.534-22.129h-4.094a1.251,1.251,0,0,1-1.249-1.249v-7.5a1.251,1.251,0,0,1,1.249-1.249h4.094a1.251,1.251,0,0,1,1.249,1.249v1.617a.892.892,0,0,1-.892.892.892.892,0,0,1-.892-.892v-1.082h-3.023v6.425h3.023v-1.179a.892.892,0,0,1,.892-.892.892.892,0,0,1,.892.892v1.714A1.251,1.251,0,0,1-58.534-22.129Z" transform="translate(63.877 32.124)"/>
          </g>
          <g id="g4066" transform="translate(33.735 34.851)">
            <path id="path4068" d="M-54.534-92.005h-4.094a1.251,1.251,0,0,1-1.249-1.249v-7.5A1.251,1.251,0,0,1-58.628-102h4.094a1.251,1.251,0,0,1,1.249,1.249v7.5A1.251,1.251,0,0,1-54.534-92.005Zm-3.559-1.785h3.023v-6.425h-3.023Z" transform="translate(59.877 102)"/>
          </g>
          <g id="g4070" transform="translate(41.056 34.851)">
            <path id="path4072" d="M-54.534-92.005h-4.094a1.251,1.251,0,0,1-1.249-1.249v-7.5A1.251,1.251,0,0,1-58.628-102h4.094a1.251,1.251,0,0,1,1.249,1.249v7.5A1.251,1.251,0,0,1-54.534-92.005Zm-3.559-1.785h3.023v-6.425h-3.023Z" transform="translate(59.877 102)"/>
          </g>
          <g id="g4074" transform="translate(48.377 34.851)">
            <path id="path4076" d="M-54.534-92.005h-4.094a1.251,1.251,0,0,1-1.249-1.249v-7.5A1.251,1.251,0,0,1-58.628-102h4.094a1.251,1.251,0,0,1,1.249,1.249v7.5A1.251,1.251,0,0,1-54.534-92.005Zm-3.559-1.785h3.023v-6.425h-3.023Z" transform="translate(59.877 102)"/>
          </g>
          <g id="g4078" transform="translate(2.796 49.366)">
            <path id="path4080" d="M-9.108-6.787A.892.892,0,0,1-10-7.68V-9.108A.892.892,0,0,1-9.108-10a.892.892,0,0,1,.892.892V-7.68A.892.892,0,0,1-9.108-6.787Z" transform="translate(10 10)"/>
          </g>
          <g id="g4082" transform="translate(6.366 49.366)">
            <path id="path4084" d="M-9.108-6.787A.892.892,0,0,1-10-7.68V-9.108A.892.892,0,0,1-9.108-10a.892.892,0,0,1,.892.892V-7.68A.892.892,0,0,1-9.108-6.787Z" transform="translate(10 10)"/>
          </g>
          <g id="g4086" transform="translate(9.935 49.366)">
            <path id="path4088" d="M-9.108-6.787A.892.892,0,0,1-10-7.68V-9.108A.892.892,0,0,1-9.108-10a.892.892,0,0,1,.892.892V-7.68A.892.892,0,0,1-9.108-6.787Z" transform="translate(10 10)"/>
          </g>
          <g id="g4090" transform="translate(13.504 49.366)">
            <path id="path4092" d="M-9.108-6.787A.892.892,0,0,1-10-7.68V-9.108A.892.892,0,0,1-9.108-10a.892.892,0,0,1,.892.892V-7.68A.892.892,0,0,1-9.108-6.787Z" transform="translate(10 10)"/>
          </g>
          <g id="g4094" transform="translate(17.074 49.366)">
            <path id="path4096" d="M-9.108-6.787A.892.892,0,0,1-10-7.68V-9.108A.892.892,0,0,1-9.108-10a.892.892,0,0,1,.892.892V-7.68A.892.892,0,0,1-9.108-6.787Z" transform="translate(10 10)"/>
          </g>
          <g id="g4098" transform="translate(20.643 49.366)">
            <path id="path4100" d="M-9.108-6.787A.892.892,0,0,1-10-7.68V-9.108A.892.892,0,0,1-9.108-10a.892.892,0,0,1,.892.892V-7.68A.892.892,0,0,1-9.108-6.787Z" transform="translate(10 10)"/>
          </g>
          <g id="g4102" transform="translate(24.213 49.366)">
            <path id="path4104" d="M-9.108-6.787A.892.892,0,0,1-10-7.68V-9.108A.892.892,0,0,1-9.108-10a.892.892,0,0,1,.892.892V-7.68A.892.892,0,0,1-9.108-6.787Z" transform="translate(10 10)"/>
          </g>
          <g id="g4106" transform="translate(34.921 49.366)">
            <path id="path4108" d="M-9.108-6.787A.892.892,0,0,1-10-7.68V-9.108A.892.892,0,0,1-9.108-10a.892.892,0,0,1,.892.892V-7.68A.892.892,0,0,1-9.108-6.787Z" transform="translate(10 10)"/>
          </g>
          <g id="g4110" transform="translate(38.491 49.366)">
            <path id="path4112" d="M-9.108-6.787A.892.892,0,0,1-10-7.68V-9.108A.892.892,0,0,1-9.108-10a.892.892,0,0,1,.892.892V-7.68A.892.892,0,0,1-9.108-6.787Z" transform="translate(10 10)"/>
          </g>
          <g id="g4114" transform="translate(42.06 49.366)">
            <path id="path4116" d="M-9.108-6.787A.892.892,0,0,1-10-7.68V-9.108A.892.892,0,0,1-9.108-10a.892.892,0,0,1,.892.892V-7.68A.892.892,0,0,1-9.108-6.787Z" transform="translate(10 10)"/>
          </g>
          <g id="g4118" transform="translate(45.63 49.366)">
            <path id="path4120" d="M-9.108-6.787A.892.892,0,0,1-10-7.68V-9.108A.892.892,0,0,1-9.108-10a.892.892,0,0,1,.892.892V-7.68A.892.892,0,0,1-9.108-6.787Z" transform="translate(10 10)"/>
          </g>
          <g id="g4122" transform="translate(49.199 49.366)">
            <path id="path4124" d="M-9.108-6.787A.892.892,0,0,1-10-7.68V-9.108A.892.892,0,0,1-9.108-10a.892.892,0,0,1,.892.892V-7.68A.892.892,0,0,1-9.108-6.787Z" transform="translate(10 10)"/>
          </g>
          <g id="g4126" transform="translate(52.768 49.366)">
            <path id="path4128" d="M-9.108-6.787A.892.892,0,0,1-10-7.68V-9.108A.892.892,0,0,1-9.108-10a.892.892,0,0,1,.892.892V-7.68A.892.892,0,0,1-9.108-6.787Z" transform="translate(10 10)"/>
          </g>
          <g id="g4130" transform="translate(56.338 49.366)">
            <path id="path4132" d="M-9.108-6.787A.892.892,0,0,1-10-7.68V-9.108A.892.892,0,0,1-9.108-10a.892.892,0,0,1,.892.892V-7.68A.892.892,0,0,1-9.108-6.787Z" transform="translate(10 10)"/>
          </g>
          <g id="g4134" transform="translate(2.677 33.958)">
            <path id="path4136" d="M-18.215-9.108a.892.892,0,0,1-.892.892A.892.892,0,0,1-20-9.108.892.892,0,0,1-19.108-10a.892.892,0,0,1,.892.892" transform="translate(20 10)"/>
          </g>
          <g id="g4138" transform="translate(56.457 33.958)">
            <path id="path4140" d="M-18.215-9.108a.892.892,0,0,1-.892.892A.892.892,0,0,1-20-9.108.892.892,0,0,1-19.108-10a.892.892,0,0,1,.892.892" transform="translate(20 10)"/>
          </g>
          <g id="g4142" transform="translate(2.677 44.429)">
            <path id="path4144" d="M-18.215-9.108a.892.892,0,0,1-.892.892A.892.892,0,0,1-20-9.108.892.892,0,0,1-19.108-10a.892.892,0,0,1,.892.892" transform="translate(20 10)"/>
          </g>
          <g id="g4146" transform="translate(56.457 44.429)">
            <path id="path4148" d="M-18.215-9.108a.892.892,0,0,1-.892.892A.892.892,0,0,1-20-9.108.892.892,0,0,1-19.108-10a.892.892,0,0,1,.892.892" transform="translate(20 10)"/>
          </g>
        </g>
      </g>
    </g>
  </g>
</svg>
