<svg id="Grupo_1071913" data-name="Grupo 1071913" xmlns="http://www.w3.org/2000/svg" width="92" height="91" viewBox="0 0 92 91">
  <rect id="Rectángulo_375707" data-name="Rectángulo 375707" width="92" height="91" rx="13" fill="#949af8"/>
  <g id="notas-adhesivas" transform="translate(13 6)">
    <g id="Grupo_1071911" data-name="Grupo 1071911" transform="translate(1.41 1.409)">
      <path id="Trazado_819108" data-name="Trazado 819108" d="M336.25,16.592a5.234,5.234,0,1,0-.138-2.019A5.24,5.24,0,0,0,336.25,16.592Z" transform="translate(-296.371 -9.996)" fill="#ff5d7d" fill-rule="evenodd"/>
      <path id="Trazado_819109" data-name="Trazado 819109" d="M305.992,48.321a5.242,5.242,0,0,1-5.862-5.86,5.9,5.9,0,1,0,5.862,5.86Z" transform="translate(-260.389 -37.884)" fill="#ff5d7d" fill-rule="evenodd"/>
      <path id="Trazado_819110" data-name="Trazado 819110" d="M95.688,57.978a5.907,5.907,0,0,1-7.417-5.289L67.091,47.014,54.461,94.151,64.6,96.867l25.219,6.757,2.368-8.838,8.838,2.368,9.325-34.8.937-3.5-12.23-3.277A5.88,5.88,0,0,1,95.688,57.978Z" transform="translate(-54.461 -41.796)" fill="#ffda8f" fill-rule="evenodd"/>
      <path id="Trazado_819111" data-name="Trazado 819111" d="M316.451,388.26l-8.838-2.368-2.368,8.838Z" transform="translate(-269.891 -332.902)" fill="#ffcd69" fill-rule="evenodd"/>
      <path id="Trazado_819112" data-name="Trazado 819112" d="M162.775,190.624l-11.206,6.47-25.219-6.757v14.286H172.1v-48.8Z" transform="translate(-116.216 -135.266)" fill="#ffc144" fill-rule="evenodd"/>
    </g>
    <g id="Grupo_1071912" data-name="Grupo 1071912">
      <path id="Trazado_819113" data-name="Trazado 819113" d="M103.912,17.763a1.409,1.409,0,0,0-.856-.657L92.482,14.273a7.266,7.266,0,0,0,.316-1.282,6.648,6.648,0,1,0-8.33-8.33A7.318,7.318,0,0,0,78.387,10.5L58.865,5.265a1.41,1.41,0,0,0-1.726,1L44.508,53.4a1.41,1.41,0,0,0,1,1.726l9.09,2.436v13.2A1.41,1.41,0,0,0,56,72.176h45.75a1.41,1.41,0,0,0,1.41-1.41V22.151l.889-3.319a1.409,1.409,0,0,0-.141-1.07ZM89.817,2.95a3.829,3.829,0,1,1-2.707,4.69,3.834,3.834,0,0,1,2.707-4.69ZM81.677,9.642A4.461,4.461,0,0,1,84.23,7.6a6.652,6.652,0,0,0,5.625,5.63,4.492,4.492,0,1,1-8.178-3.588ZM59.5,8.353l18.921,5.07q.039.179.086.358a7.281,7.281,0,0,0,.993,2.184L78.02,17.443a1.41,1.41,0,1,0,1.994,1.994l1.481-1.481a7.3,7.3,0,0,0,9.5-1.164l9.975,2.673L91.432,55.04l-7.477-2a1.41,1.41,0,0,0-1.727,1l-2,7.477L47.6,52.767Zm29.28,48.895-5.312,3.067,1.123-4.189Zm11.567,12.109H57.414V58.317L80.858,64.6a1.409,1.409,0,0,0,1.07-.141l11.206-6.47a1.409,1.409,0,0,0,.657-.856l6.554-24.459V69.356Z" transform="translate(-44.46 0.001)"/>
      <path id="Trazado_819114" data-name="Trazado 819114" d="M161.859,171.747l27.851,7.463a1.41,1.41,0,1,0,.73-2.723l-27.851-7.463a1.41,1.41,0,1,0-.73,2.723Z" transform="translate(-144.411 -145.155)"/>
      <path id="Trazado_819115" data-name="Trazado 819115" d="M151.459,210.559l27.851,7.463a1.41,1.41,0,1,0,.73-2.723l-27.851-7.463a1.41,1.41,0,1,0-.73,2.723Z" transform="translate(-135.478 -178.495)"/>
      <path id="Trazado_819116" data-name="Trazado 819116" d="M149.585,248.736l-7.8-2.089a1.41,1.41,0,1,0-.73,2.723l7.8,2.089a1.41,1.41,0,1,0,.73-2.723Z" transform="translate(-126.543 -211.835)"/>
      <path id="Trazado_819117" data-name="Trazado 819117" d="M240.206,273.07h0a1.41,1.41,0,1,0,1.411,1.41A1.409,1.409,0,0,0,240.205,273.07Z" transform="translate(-211.4 -234.575)"/>
    </g>
  </g>
</svg>
