<svg xmlns="http://www.w3.org/2000/svg" xmlns:xlink="http://www.w3.org/1999/xlink" width="140" height="140" viewBox="0 0 140 140">
  <defs>
    <radialGradient id="radial-gradient" cx="0.5" cy="0.5" r="0.5" gradientUnits="objectBoundingBox">
      <stop offset="0" stop-color="#3f4afc"/>
      <stop offset="1" stop-color="#949af8"/>
    </radialGradient>
  </defs>
  <g id="Grupo_1072752" data-name="Grupo 1072752" transform="translate(3700 8158)">
    <rect id="Rectángulo_375591" data-name="Rectángulo 375591" width="140" height="140" rx="14" transform="translate(-3700 -8158)" fill="url(#radial-gradient)"/>
    <g id="grafico" transform="translate(-3681 -8163.853)">
      <g id="Grupo_1072772" data-name="Grupo 1072772" transform="translate(65.784 48.941)">
        <path id="Trazado_819936" data-name="Trazado 819936" d="M335.98,123.99v11.961a2.99,2.99,0,1,1-5.98,0V123.99a2.99,2.99,0,0,1,5.98,0Z" transform="translate(-330 -121)" fill="#fabe2c"/>
      </g>
      <g id="Grupo_1072773" data-name="Grupo 1072773" transform="translate(77.745 42.961)">
        <path id="Trazado_819937" data-name="Trazado 819937" d="M395.98,93.99v17.941a2.99,2.99,0,0,1-5.98,0V93.99a2.99,2.99,0,0,1,5.98,0Z" transform="translate(-390 -91)" fill="#6aa9ff"/>
      </g>
      <g id="Grupo_1072774" data-name="Grupo 1072774" transform="translate(89.706 36.98)">
        <path id="Trazado_819938" data-name="Trazado 819938" d="M455.98,63.99V87.912a2.99,2.99,0,0,1-5.98,0V63.99a2.99,2.99,0,0,1,5.98,0Z" transform="translate(-450 -61)" fill="#2b5cf9"/>
      </g>
      <path id="Trazado_819939" data-name="Trazado 819939" d="M91.294,33.99V72.863L65.977,71.268,46.8,58.813A44.8,44.8,0,0,1,88.3,31,2.991,2.991,0,0,1,91.294,33.99Z" transform="translate(-37.471)" fill="#fed843"/>
      <path id="Trazado_819940" data-name="Trazado 819940" d="M214.327,243.99a44.827,44.827,0,0,1-41.863,44.753q-1.483.1-2.99.1a44.755,44.755,0,0,1-21.294-5.368l5.96-24.334L172.464,241h38.873A2.991,2.991,0,0,1,214.327,243.99Z" transform="translate(-118.641 -168.137)" fill="#ff7b4a"/>
      <path id="Trazado_819941" data-name="Trazado 819941" d="M311.863,243.99A44.827,44.827,0,0,1,270,288.744V241h38.873A2.991,2.991,0,0,1,311.863,243.99Z" transform="translate(-216.176 -168.137)" fill="#2b5cf9"/>
      <path id="Trazado_819942" data-name="Trazado 819942" d="M53.824,180.212,28.008,225.364a2.99,2.99,0,0,1-4.122.949A50.905,50.905,0,0,1,2.6,167.123a2.993,2.993,0,0,1,3.784-1.892Z" transform="translate(0 -107.349)" fill="#7ed8f6"/>
      <g id="Grupo_1072775" data-name="Grupo 1072775" transform="translate(59.804 60.902)">
        <path id="Trazado_819943" data-name="Trazado 819943" d="M342.262,183.99a2.991,2.991,0,0,1-2.99,2.99H302.99a2.99,2.99,0,1,1,0-5.98h36.281A2.991,2.991,0,0,1,342.262,183.99Z" transform="translate(-300 -181)" fill="#12263f"/>
      </g>
    </g>
  </g>
</svg>
