<svg xmlns="http://www.w3.org/2000/svg" xmlns:xlink="http://www.w3.org/1999/xlink" width="140" height="140" viewBox="0 0 140 140">
  <defs>
    <radialGradient id="radial-gradient" cx="0.5" cy="0.5" r="0.5" gradientUnits="objectBoundingBox">
      <stop offset="0" stop-color="#3f4afc"/>
      <stop offset="1" stop-color="#949af8"/>
    </radialGradient>
  </defs>
  <g id="Grupo_1071628" data-name="Grupo 1071628" transform="translate(3700 8987)">
    <rect id="Rectángulo_375584" data-name="Rectángulo 375584" width="140" height="140" rx="14" transform="translate(-3700 -8987)" fill="url(#radial-gradient)"/>
    <g id="la-red" transform="translate(-3691 -9021.5)">
      <path id="Trazado_818198" data-name="Trazado 818198" d="M32.426,159.632c-19.473,0-17.314,23.681-17.225,40.841a1.832,1.832,0,0,0,.9,1.567,32.867,32.867,0,0,0,32.654,0,1.833,1.833,0,0,0,.9-1.567C49.74,183.313,51.9,159.632,32.426,159.632Z" transform="translate(-11.512 -77.92)" fill="#694b4b"/>
      <path id="Trazado_818199" data-name="Trazado 818199" d="M31.176,159.838c-18.111,1.015-16.057,24.014-15.971,40.792a1.832,1.832,0,0,0,.9,1.567,32.277,32.277,0,0,0,16.327,4.342l4.921-34.448" transform="translate(-11.516 -78.077)" fill="#5a4146"/>
      <path id="Trazado_818200" data-name="Trazado 818200" d="M50.114,159.632c-11.072,0-11.841,13.379-11.841,13.379,6.382-1.077,10.3,1.615,16.763-1.077l-4.921,34.448a32.276,32.276,0,0,0,16.327-4.342,1.833,1.833,0,0,0,.9-1.567C67.428,183.313,69.587,159.632,50.114,159.632Z" transform="translate(-29.2 -77.92)" fill="#694b4b"/>
      <path id="Trazado_818201" data-name="Trazado 818201" d="M127.138,204.775c.076-14.746,1.668-34.292-10.237-39.5-.208,1.079-.584,4.09.394,6.045,2.461,4.921,4.921,4.921,7.382,8.612,2.461,13.533-4.7,27.9-7.08,29.852h0a30.951,30.951,0,0,0,8.644-3.437A1.832,1.832,0,0,0,127.138,204.775Z" transform="translate(-88.999 -82.221)" fill="#785550"/>
      <path id="Trazado_818202" data-name="Trazado 818202" d="M39.558,316.055,28.58,311.481a2.46,2.46,0,0,1-1.514-2.271v-2.973h-12.3v2.973a2.46,2.46,0,0,1-1.514,2.271L2.271,316.055A3.691,3.691,0,0,0,0,319.463v4.921a2.461,2.461,0,0,0,2.461,2.461H39.369a2.461,2.461,0,0,0,2.461-2.461v-4.921A3.691,3.691,0,0,0,39.558,316.055Z" transform="translate(0 -189.77)" fill="#e6af78"/>
      <path id="Trazado_818203" data-name="Trazado 818203" d="M39.558,333.42,28.944,329l-8.029,3.465L12.885,329,2.271,333.42A3.691,3.691,0,0,0,0,336.827v4.921a2.461,2.461,0,0,0,2.461,2.461H39.369a2.461,2.461,0,0,0,2.461-2.461v-4.921A3.691,3.691,0,0,0,39.558,333.42Z" transform="translate(0 -207.134)" fill="#eff2fa"/>
      <path id="Trazado_818204" data-name="Trazado 818204" d="M64.187,306.237h-12.3v2.973a2.46,2.46,0,0,1-1.514,2.271l-1.714.715C61.776,315.541,64.187,306.237,64.187,306.237Z" transform="translate(-37.121 -189.77)" fill="#d29b6e"/>
      <g id="Grupo_1071625" data-name="Grupo 1071625" transform="translate(0 119.851)">
        <path id="Trazado_818205" data-name="Trazado 818205" d="M6,355.088,1.058,351.16A3.683,3.683,0,0,0,0,353.736v4.921a2.461,2.461,0,0,0,2.461,2.461H7.382V357.97A3.692,3.692,0,0,0,6,355.088Z" transform="translate(0 -343.894)" fill="#e4eaf6"/>
        <path id="Trazado_818206" data-name="Trazado 818206" d="M152.689,358.706v-4.921a3.683,3.683,0,0,0-1.042-2.56l-4.954,3.913a3.691,3.691,0,0,0-1.385,2.882v3.147h4.921A2.46,2.46,0,0,0,152.689,358.706Z" transform="translate(-110.859 -343.943)" fill="#e4eaf6"/>
        <path id="Trazado_818207" data-name="Trazado 818207" d="M84.448,352.91h-.369a1.046,1.046,0,0,1-1.046-1.046v-8.237h2.461v8.237A1.046,1.046,0,0,1,84.448,352.91Z" transform="translate(-63.349 -338.147)" fill="#e4eaf6"/>
        <path id="Trazado_818208" data-name="Trazado 818208" d="M56.548,325.987l-7.041-5.281a.984.984,0,0,0-1.409.241l-1.391,2.087,4.317,6.044a.984.984,0,0,0,1.416.2Z" transform="translate(-35.634 -320.509)" fill="#e4eaf6"/>
        <path id="Trazado_818209" data-name="Trazado 818209" d="M88.222,325.987l7.041-5.281a.984.984,0,0,1,1.409.241l1.391,2.087-4.317,6.044a.984.984,0,0,1-1.416.2Z" transform="translate(-67.307 -320.509)" fill="#e4eaf6"/>
      </g>
      <path id="Trazado_818210" data-name="Trazado 818210" d="M55.523,206.339c-6.151,6.151-18.223,1.23-18.223,11.072l.764,7.25a4.922,4.922,0,0,0,2.511,3.856l7,3.891a3.691,3.691,0,0,0,3.585,0l7-3.891a4.921,4.921,0,0,0,2.511-3.856l.882-8.61a13.576,13.576,0,0,0,.055-1.842C61.157,211.077,56.754,208.8,55.523,206.339Z" transform="translate(-28.457 -113.554)" fill="#f0c087"/>
      <path id="Trazado_818211" data-name="Trazado 818211" d="M37.3,217.409l.764,7.25a4.922,4.922,0,0,0,2.511,3.856l7,3.891a3.674,3.674,0,0,0,2.505.374h0s-3.532-1.07-5.634-6.76c-.644-1.743-1.538-10.97-.769-12.1,1.52-2.229,10-2.461,12.5-6.6q-.186-.23-.342-.461l-.027-.037a4.678,4.678,0,0,1-.29-.492C49.372,212.488,37.3,207.567,37.3,217.409Z" transform="translate(-28.457 -113.552)" fill="#e6af78"/>
      <path id="Trazado_818212" data-name="Trazado 818212" d="M109.081,382.783h-3.2a2.091,2.091,0,0,0-2.091,2.091v.369h7.382v-.369A2.091,2.091,0,0,0,109.081,382.783Z" transform="translate(-79.186 -248.169)" fill="#e4eaf6"/>
      <path id="Trazado_818213" data-name="Trazado 818213" d="M386.862,301.779v-6.757H369.487v6.757l8.688,7.722Z" transform="translate(-281.894 -181.213)" fill="#e6af78"/>
      <path id="Trazado_818214" data-name="Trazado 818214" d="M347.485,326.285l-11.945-2.81a1.917,1.917,0,0,1-.5-.2l-9.675,5.644-9.3-5.916a1.923,1.923,0,0,1-.879.475l-11.945,2.81a3.861,3.861,0,0,0-2.977,3.759v7.56a1.931,1.931,0,0,0,1.931,1.931h46.334a1.931,1.931,0,0,0,1.931-1.931v-7.56A3.862,3.862,0,0,0,347.485,326.285Z" transform="translate(-229.083 -202.559)" fill="#eff2fa"/>
      <path id="Trazado_818215" data-name="Trazado 818215" d="M369.487,295.022v7.129c10.944,3.943,17.375-5.925,17.375-5.925v-1.2Z" transform="translate(-281.894 -181.213)" fill="#d29b6e"/>
      <path id="Trazado_818216" data-name="Trazado 818216" d="M353.2,201.37l.841,18.506a5.792,5.792,0,0,0,2.311,4.37l3.991,2.993a5.791,5.791,0,0,0,3.475,1.158h3.861a5.792,5.792,0,0,0,3.475-1.158l3.991-2.993a5.792,5.792,0,0,0,2.311-4.37l.841-18.506Z" transform="translate(-269.468 -109.763)" fill="#f0c087"/>
      <path id="Trazado_818217" data-name="Trazado 818217" d="M362.853,205.231c3.861,0,9.653-.965,11.027-3.861H353.2l.841,18.506a5.792,5.792,0,0,0,2.311,4.37l3.991,2.993a5.792,5.792,0,0,0,3.475,1.158h1.931c-1.931,0-5.792-3.861-5.792-8.688V208.127A3.082,3.082,0,0,1,362.853,205.231Z" transform="translate(-269.468 -109.763)" fill="#e6af78"/>
      <path id="Trazado_818218" data-name="Trazado 818218" d="M476.955,348.236l6.255-5.619a3.855,3.855,0,0,1,.832,2.393v7.56a1.931,1.931,0,0,1-1.931,1.931h-6.757v-2.674A4.826,4.826,0,0,1,476.955,348.236Z" transform="translate(-362.663 -217.525)" fill="#e4eaf6"/>
      <path id="Trazado_818219" data-name="Trazado 818219" d="M400.78,364.787h-4.827l.6-8.688h3.62Z" transform="translate(-302.085 -227.811)" fill="#5b5d6e"/>
      <path id="Trazado_818220" data-name="Trazado 818220" d="M400.78,347.955h-4.827v.558a2.338,2.338,0,0,0,2.338,2.338h.15a2.338,2.338,0,0,0,2.338-2.338v-.558Z" transform="translate(-302.085 -221.598)" fill="#515262"/>
      <g id="Grupo_1071626" data-name="Grupo 1071626" transform="translate(84.697 118.169)">
        <path id="Trazado_818221" data-name="Trazado 818221" d="M360.03,313.662l8.823,7.941a33.284,33.284,0,0,0-5.52,3.762,1.239,1.239,0,0,1-1.918-.434l-4.145-9.12,1.311-1.967A.965.965,0,0,1,360.03,313.662Z" transform="translate(-357.27 -313.414)" fill="#e4eaf6"/>
        <path id="Trazado_818222" data-name="Trazado 818222" d="M414.956,313.662l-8.823,7.941a33.284,33.284,0,0,1,5.52,3.762,1.239,1.239,0,0,0,1.918-.434l4.145-9.12-1.311-1.967A.965.965,0,0,0,414.956,313.662Z" transform="translate(-394.549 -313.414)" fill="#e4eaf6"/>
      </g>
      <path id="Trazado_818223" data-name="Trazado 818223" d="M430.818,172.464l.905,6.4c4.131.826,4.726,7.309,4.812,9.161a1.905,1.905,0,0,0,.305.943l1.576,2.445s-.54-4.042,1.931-6.757C440.347,184.651,441.195,168.6,430.818,172.464Z" transform="translate(-328.685 -87.252)" fill="#785550"/>
      <path id="Trazado_818224" data-name="Trazado 818224" d="M454.272,244.572l-1.09,4.36a1.161,1.161,0,0,1-1.126.879h0a1.161,1.161,0,0,1-1.152-1.017l-.557-4.46a2,2,0,0,1,1.983-2.246h0A2,2,0,0,1,454.272,244.572Z" transform="translate(-343.572 -140.829)" fill="#f0c087"/>
      <path id="Trazado_818225" data-name="Trazado 818225" d="M344.517,159.065l1.428.975c-6.455,4.766-5.249,12.941-5.249,12.941,1.931,1.931,1.931,6.757,1.931,6.757l1.931-1.931s-.745-5.577,2.9-7.722c3.378-1.991,6.335-.965,9.351-.965,8.084,0,10.347-3.047,9.955-6.757-.2-1.92-3.138-5.919-10.618-5.792C353.122,156.623,347.453,157.537,344.517,159.065Z" transform="translate(-259.86 -75.583)" fill="#694b4b"/>
      <path id="Trazado_818226" data-name="Trazado 818226" d="M343.954,179.448a10.6,10.6,0,0,1,1.991-8.235c-6.455,4.766-5.249,12.941-5.249,12.941,1.931,1.931,1.931,6.757,1.931,6.757l1.931-1.931s-.745-5.577,2.9-7.722c3.378-1.991,6.335-.965,9.351-.965a23.735,23.735,0,0,0,3.481-.239C354.059,180.263,350.389,175.547,343.954,179.448Z" transform="translate(-259.86 -86.755)" fill="#5a4146"/>
      <path id="Trazado_818227" data-name="Trazado 818227" d="M345.116,244.572l1.09,4.36a1.161,1.161,0,0,0,1.126.879h0a1.161,1.161,0,0,0,1.152-1.017l.557-4.46a2,2,0,0,0-1.983-2.246h0A2,2,0,0,0,345.116,244.572Z" transform="translate(-263.254 -140.829)" fill="#e6af78"/>
      <path id="Trazado_818228" data-name="Trazado 818228" d="M433.248,384.6h-4.827a1.931,1.931,0,0,0-1.931,1.931h8.688A1.93,1.93,0,0,0,433.248,384.6Z" transform="translate(-325.384 -249.557)" fill="#e4eaf6"/>
      <path id="Trazado_818229" data-name="Trazado 818229" d="M161.3,57.5c-33.1,0-29.434,40.257-29.283,69.43a3.115,3.115,0,0,0,1.526,2.664,55.875,55.875,0,0,0,55.512,0,3.116,3.116,0,0,0,1.526-2.664C190.736,97.757,194.407,57.5,161.3,57.5Z" transform="translate(-100.576)" fill="#694b4b"/>
      <path id="Trazado_818230" data-name="Trazado 818230" d="M159.176,57.849c-30.788,1.726-27.3,40.823-27.149,69.347a3.115,3.115,0,0,0,1.526,2.664,54.871,54.871,0,0,0,27.756,7.382l8.366-58.561" transform="translate(-100.583 -0.266)" fill="#5a4146"/>
      <path id="Trazado_818231" data-name="Trazado 818231" d="M191.371,57.5c-18.823,0-20.13,22.745-20.13,22.745,10.849-1.83,17.516,2.745,28.5-1.83l-8.366,58.561a54.871,54.871,0,0,0,27.756-7.382,3.116,3.116,0,0,0,1.526-2.664C220.805,97.757,224.476,57.5,191.371,57.5Z" transform="translate(-130.645)" fill="#694b4b"/>
      <path id="Trazado_818232" data-name="Trazado 818232" d="M322.314,134.244c.13-25.068,2.836-58.3-17.4-67.158-.353,1.834-.992,6.953.669,10.276,4.183,8.366,8.366,8.366,12.549,14.64,4.183,23.006-7.992,47.425-12.036,50.749h0a52.612,52.612,0,0,0,14.695-5.843A3.115,3.115,0,0,0,322.314,134.244Z" transform="translate(-232.305 -7.313)" fill="#785550"/>
      <path id="Trazado_818233" data-name="Trazado 818233" d="M173.426,323.42l-18.662-7.776a4.183,4.183,0,0,1-2.574-3.861v-5.054H131.275v5.054a4.183,4.183,0,0,1-2.574,3.861l-18.662,7.776a6.274,6.274,0,0,0-3.861,5.792v8.366a4.183,4.183,0,0,0,4.183,4.183H173.1a4.183,4.183,0,0,0,4.183-4.183v-8.366A6.274,6.274,0,0,0,173.426,323.42Z" transform="translate(-81.006 -190.144)" fill="#e6af78"/>
      <path id="Trazado_818234" data-name="Trazado 818234" d="M173.426,352.941l-18.044-7.518-13.65,5.891-13.65-5.891-18.044,7.518a6.274,6.274,0,0,0-3.861,5.792V367.1a4.183,4.183,0,0,0,4.183,4.183H173.1a4.183,4.183,0,0,0,4.183-4.183v-8.366A6.274,6.274,0,0,0,173.426,352.941Z" transform="translate(-81.006 -219.666)" fill="#b4e1fa"/>
      <path id="Trazado_818235" data-name="Trazado 818235" d="M215.294,306.728H194.38v5.054a4.183,4.183,0,0,1-2.574,3.861l-2.915,1.215C211.2,322.545,215.294,306.728,215.294,306.728Z" transform="translate(-144.111 -190.144)" fill="#d29b6e"/>
      <g id="Grupo_1071627" data-name="Grupo 1071627" transform="translate(25.172 122.335)">
        <path id="Trazado_818236" data-name="Trazado 818236" d="M116.373,389.776l-8.395-6.677a6.261,6.261,0,0,0-1.8,4.378v8.366a4.183,4.183,0,0,0,4.183,4.183h8.366v-5.35A6.276,6.276,0,0,0,116.373,389.776Z" transform="translate(-106.179 -370.745)" fill="#a0d2f0"/>
        <path id="Trazado_818237" data-name="Trazado 818237" d="M365.748,395.926V387.56a6.26,6.26,0,0,0-1.772-4.352l-8.422,6.651a6.275,6.275,0,0,0-2.355,4.9v5.35h8.366A4.183,4.183,0,0,0,365.748,395.926Z" transform="translate(-294.639 -370.829)" fill="#a0d2f0"/>
        <path id="Trazado_818238" data-name="Trazado 818238" d="M249.424,386.072h0a2.092,2.092,0,0,1-2.091-2.091V370.292h4.183v13.689A2.091,2.091,0,0,1,249.424,386.072Z" transform="translate(-213.87 -360.974)" fill="#a0d2f0"/>
        <path id="Trazado_818239" data-name="Trazado 818239" d="M202.309,340.3l-11.97-8.978a1.673,1.673,0,0,0-2.4.41l-2.365,3.548,7.339,10.274a1.673,1.673,0,0,0,2.407.334Z" transform="translate(-166.754 -330.989)" fill="#a0d2f0"/>
        <path id="Trazado_818240" data-name="Trazado 818240" d="M256.155,340.3l11.97-8.978a1.673,1.673,0,0,1,2.4.41l2.365,3.548-7.339,10.274a1.673,1.673,0,0,1-2.407.334Z" transform="translate(-220.601 -330.989)" fill="#a0d2f0"/>
      </g>
      <path id="Trazado_818241" data-name="Trazado 818241" d="M200.567,136.9c-10.457,10.457-30.98,2.091-30.98,18.823l1.3,12.325a8.365,8.365,0,0,0,4.269,6.556l11.908,6.616a6.274,6.274,0,0,0,6.094,0l11.908-6.616a8.367,8.367,0,0,0,4.269-6.556l1.5-14.638a23.048,23.048,0,0,0,.094-3.131C210.144,144.955,202.658,141.083,200.567,136.9Z" transform="translate(-129.383 -60.577)" fill="#f0c087"/>
      <path id="Trazado_818242" data-name="Trazado 818242" d="M169.587,155.723l1.3,12.325a8.365,8.365,0,0,0,4.269,6.556l11.908,6.616a6.248,6.248,0,0,0,4.258.637h0s-6-1.819-9.577-11.492c-1.095-2.963-2.614-18.649-1.307-20.566,2.584-3.79,16.993-4.183,21.251-11.213q-.316-.392-.582-.784c-.014-.021-.032-.042-.046-.064a7.9,7.9,0,0,1-.493-.837C190.109,147.357,169.587,138.991,169.587,155.723Z" transform="translate(-129.383 -60.577)" fill="#e6af78"/>
      <path id="Trazado_818243" data-name="Trazado 818243" d="M293.079,436.856h-8.366a2.091,2.091,0,0,0-2.091,2.091v2.091h12.549v-2.091A2.091,2.091,0,0,0,293.079,436.856Z" transform="translate(-215.622 -289.423)" fill="#a0d2f0"/>
    </g>
  </g>
</svg>
