<svg xmlns="http://www.w3.org/2000/svg" xmlns:xlink="http://www.w3.org/1999/xlink" width="140" height="140" viewBox="0 0 140 140">
  <defs>
    <radialGradient id="radial-gradient" cx="0.5" cy="0.5" r="0.5" gradientUnits="objectBoundingBox">
      <stop offset="0" stop-color="#3f4afc"/>
      <stop offset="1" stop-color="#949af8"/>
    </radialGradient>
  </defs>
  <g id="Grupo_1071642" data-name="Grupo 1071642" transform="translate(4959 8173)">
    <rect id="Rectángulo_375590" data-name="Rectángulo 375590" width="140" height="140" rx="14" transform="translate(-4959 -8173)" fill="url(#radial-gradient)"/>
    <g id="entregable" transform="translate(-4941 -8155)">
      <path id="Trazado_818308" data-name="Trazado 818308" d="M51.591,48.964a1.781,1.781,0,1,0,0-3.562H44.467V13.343a1.781,1.781,0,0,1,1.781-1.781h5.343a1.781,1.781,0,1,0,0-3.562H46.248a5.343,5.343,0,0,0-5.343,5.343V45.4H33.781a1.781,1.781,0,1,0,0,3.562h7.124V81.022a5.343,5.343,0,0,0,5.343,5.343h5.343a1.781,1.781,0,1,0,0-3.562H46.248a1.781,1.781,0,0,1-1.781-1.781V48.964Z" transform="translate(24.212 5.467)" fill="#346d92"/>
      <path id="Trazado_818309" data-name="Trazado 818309" d="M15.248,10H8.124A7.124,7.124,0,0,0,1,17.124V74.117a7.124,7.124,0,0,0,7.124,7.124H52.65A5.343,5.343,0,0,0,57.993,75.9V17.124A7.124,7.124,0,0,0,50.869,10Z" transform="translate(0 7.029)" fill="#c67640"/>
      <path id="Trazado_818310" data-name="Trazado 818310" d="M5,10V72.336a1.781,1.781,0,0,0,1.781,1.781H45.964a1.781,1.781,0,0,0,1.781-1.781V10Z" transform="translate(3.124 7.029)" fill="#f0f2f5"/>
      <ellipse id="Elipse_9688" data-name="Elipse 9688" cx="3.5" cy="4" rx="3.5" ry="4" transform="translate(15 29)" fill="#31b791"/>
      <circle id="Elipse_9689" data-name="Elipse 9689" cx="3.5" cy="3.5" r="3.5" transform="translate(15 47)" fill="#31b791"/>
      <circle id="Elipse_9690" data-name="Elipse 9690" cx="3.5" cy="3.5" r="3.5" transform="translate(15 65)" fill="#b9bfcc"/>
      <path id="Trazado_818311" data-name="Trazado 818311" d="M37.5,14.686a3.589,3.589,0,0,1-3.562,3.562H12.562a3.562,3.562,0,0,1,0-7.124h3.562V7.562A3.573,3.573,0,0,1,19.686,4H26.81a3.573,3.573,0,0,1,3.562,3.562v3.562h3.562A3.573,3.573,0,0,1,37.5,14.686Z" transform="translate(6.248 2.343)" fill="#fccb55"/>
      <rect id="Rectángulo_375626" data-name="Rectángulo 375626" width="28" height="29" rx="2" transform="translate(76 38)" fill="#31b791"/>
      <rect id="Rectángulo_375627" data-name="Rectángulo 375627" width="28" height="28" rx="2" transform="translate(76 1)" fill="#31b791"/>
      <rect id="Rectángulo_375628" data-name="Rectángulo 375628" width="28" height="28" rx="2" transform="translate(76 76)" fill="#b9bfcc"/>
      <g id="Grupo_1071641" data-name="Grupo 1071641" transform="translate(27.715 27.715)">
        <path id="Trazado_818312" data-name="Trazado 818312" d="M30.248,19.562H17.781a1.781,1.781,0,1,1,0-3.562H30.248a1.781,1.781,0,1,1,0,3.562Z" transform="translate(-16 -16)" fill="#8991a0"/>
        <path id="Trazado_818313" data-name="Trazado 818313" d="M26.686,23.562H17.781a1.781,1.781,0,0,1,0-3.562h8.905a1.781,1.781,0,0,1,0,3.562Z" transform="translate(-16 -12.876)" fill="#8991a0"/>
        <path id="Trazado_818314" data-name="Trazado 818314" d="M30.248,29.562H17.781a1.781,1.781,0,0,1,0-3.562H30.248a1.781,1.781,0,0,1,0,3.562Z" transform="translate(-16 -8.19)" fill="#8991a0"/>
        <path id="Trazado_818315" data-name="Trazado 818315" d="M26.686,33.562H17.781a1.781,1.781,0,0,1,0-3.562h8.905a1.781,1.781,0,0,1,0,3.562Z" transform="translate(-16 -5.066)" fill="#8991a0"/>
        <path id="Trazado_818316" data-name="Trazado 818316" d="M30.248,39.562H17.781a1.781,1.781,0,0,1,0-3.562H30.248a1.781,1.781,0,1,1,0,3.562Z" transform="translate(-16 -0.379)" fill="#8991a0"/>
        <path id="Trazado_818317" data-name="Trazado 818317" d="M26.686,43.562H17.781a1.781,1.781,0,0,1,0-3.562h8.905a1.781,1.781,0,0,1,0,3.562Z" transform="translate(-16 2.745)" fill="#8991a0"/>
      </g>
      <path id="Trazado_818318" data-name="Trazado 818318" d="M13,6h7.124a1.781,1.781,0,0,1,0,3.562H13Z" transform="translate(9.372 3.905)" fill="#dbae4b"/>
      <path id="Trazado_818319" data-name="Trazado 818319" d="M52.343,19.248a1.781,1.781,0,0,1-1.259-.522l-3.562-3.562a1.781,1.781,0,1,1,2.519-2.519l2.027,2.027,5.918-8.88A1.781,1.781,0,1,1,60.949,7.77L53.825,18.456a1.781,1.781,0,0,1-1.3.793h-.178Z" transform="translate(35.927 3.124)" fill="#fff"/>
      <path id="Trazado_818320" data-name="Trazado 818320" d="M52.343,40.248a1.781,1.781,0,0,1-1.259-.522l-3.562-3.562a1.781,1.781,0,1,1,2.519-2.519l2.027,2.027,5.918-8.88a1.781,1.781,0,1,1,2.964,1.977L53.825,39.456a1.781,1.781,0,0,1-1.306.784A1.193,1.193,0,0,1,52.343,40.248Z" transform="translate(35.927 19.526)" fill="#fff"/>
    </g>
  </g>
</svg>
