<svg xmlns="http://www.w3.org/2000/svg" width="92" height="92" viewBox="0 0 92 92">
  <g id="Grupo_1070275" data-name="Grupo 1070275" transform="translate(-0.5 -0.029)">
    <path id="Trazado_813500" data-name="Trazado 813500" d="M46,0A46,46,0,1,0,92,46,46,46,0,0,0,46,0Z" transform="translate(0.5 0.029)" fill="#949af8"/>
    <g id="software_1_" data-name="software (1)" transform="translate(15.5 16.03)">
      <path id="Trazado_818765" data-name="Trazado 818765" d="M64.113,129.131H9.333A1.833,1.833,0,0,1,7.5,127.3V93.333A1.833,1.833,0,0,1,9.333,91.5H64.112a1.833,1.833,0,0,1,1.833,1.833V127.3A1.833,1.833,0,0,1,64.113,129.131Z" transform="translate(-6.618 -80.74)" fill="#685c79"/>
      <path id="Trazado_818766" data-name="Trazado 818766" d="M462.437,91.5h-3.528a1.833,1.833,0,0,1,1.833,1.833V127.3a1.833,1.833,0,0,1-1.833,1.833h3.528a1.833,1.833,0,0,0,1.833-1.833V93.333A1.833,1.833,0,0,0,462.437,91.5Z" transform="translate(-404.942 -80.74)" fill="#594f69"/>
      <rect id="Rectángulo_375755" data-name="Rectángulo 375755" width="30.575" height="51.39" transform="translate(55.8 14.288) rotate(90)" fill="#ade7ff"/>
      <path id="Trazado_818767" data-name="Trazado 818767" d="M144.1,478.028h-30.34A1.764,1.764,0,0,1,112,476.264h0a1.764,1.764,0,0,1,1.764-1.764H144.1a1.764,1.764,0,0,1,1.764,1.764h0A1.764,1.764,0,0,1,144.1,478.028Z" transform="translate(-98.829 -418.7)" fill="#685c79"/>
      <path id="Trazado_818768" data-name="Trazado 818768" d="M358.417,474.5h-3.543a1.764,1.764,0,1,1,0,3.528h3.543a1.764,1.764,0,1,0,0-3.528Z" transform="translate(-313.142 -418.7)" fill="#594f69"/>
      <path id="Trazado_818769" data-name="Trazado 818769" d="M183.575,418.909H161.3a9.3,9.3,0,0,0,3.8-7.409h14.677A9.3,9.3,0,0,0,183.575,418.909Z" transform="translate(-142.334 -363.109)" fill="#ade7ff"/>
      <path id="Trazado_818770" data-name="Trazado 818770" d="M293.4,411.5h-3.332a9.3,9.3,0,0,0,3.8,7.409H297.2A9.3,9.3,0,0,1,293.4,411.5Z" transform="translate(-255.958 -363.109)" fill="#82d2f5"/>
      <path id="Trazado_818771" data-name="Trazado 818771" d="M181.814,150.45v14.384l-11.407,5.45L159,164.834V150.45L170.407,145Z" transform="translate(-140.302 -127.948)" fill="#ff2c5c"/>
      <path id="Trazado_818772" data-name="Trazado 818772" d="M242.841,150.45l-3.528,1.686-11.153-5.571L231.434,145Z" transform="translate(-201.329 -127.948)" fill="#e62753"/>
      <path id="Trazado_818773" data-name="Trazado 818773" d="M170.407,196.793v14.384L159,205.727V191.343Z" transform="translate(-140.302 -168.842)" fill="#4fb1f5"/>
      <path id="Trazado_818774" data-name="Trazado 818774" d="M256,196.793v14.384l11.407-5.45V191.343Z" transform="translate(-225.895 -168.842)" fill="#ffd659"/>
      <path id="Trazado_818775" data-name="Trazado 818775" d="M326.528,191.343,323,193.029l.053,14.358,3.475-1.66Z" transform="translate(-285.016 -168.842)" fill="#ffbd54"/>
      <circle id="Elipse_9700" data-name="Elipse 9700" cx="1.764" cy="1.764" r="1.764" transform="translate(44.261 0.882)" fill="#ff2c5c"/>
      <circle id="Elipse_9701" data-name="Elipse 9701" cx="1.764" cy="1.764" r="1.764" transform="translate(28.341 0.882)" fill="#ff2c5c"/>
      <circle id="Elipse_9702" data-name="Elipse 9702" cx="1.764" cy="1.764" r="1.764" transform="translate(12.421 0.882)" fill="#ff2c5c"/>
      <path id="Trazado_818776" data-name="Trazado 818776" d="M57.494,9.878H45.157a.882.882,0,0,0,0,1.764H57.494a.953.953,0,0,1,.952.952V46.558a.953.953,0,0,1-.952.952H2.716a.953.953,0,0,1-.952-.952V12.594a.953.953,0,0,1,.952-.952H22.094v1.764H4.41a.882.882,0,0,0-.882.882v23.3a.882.882,0,0,0,1.764,0V15.17h16.8V19.9l-3.776,1.8a.888.888,0,0,0-.5.8V36.885a.882.882,0,0,0,.5.8l11.407,5.45a.893.893,0,0,0,.761,0L36.9,40.067a.882.882,0,1,0-.761-1.592l-5.151,2.461V28.507L40.63,23.9V36.329l-1.31.626a.882.882,0,0,0,.761,1.592l1.812-.866a.882.882,0,0,0,.5-.8V22.5a.887.887,0,0,0-.5-.8l-3.776-1.8V15.17h16.8V43.981H5.292V41.355a.882.882,0,0,0-1.764,0v3.508a.882.882,0,0,0,.882.882H55.8a.882.882,0,0,0,.882-.882V14.288a.882.882,0,0,0-.882-.882H38.116V11.642h3.278a.882.882,0,0,0,0-1.764H38.116V8.114h7.908a.882.882,0,0,0,.882-.882V5.14a2.646,2.646,0,1,0-1.764,0V6.35H37.234a.882.882,0,0,0-.882.882V9.878H30.987V5.14a2.646,2.646,0,1,0-1.764,0V9.878H23.858V7.232a.882.882,0,0,0-.882-.882H15.067V5.14a2.646,2.646,0,1,0-1.764,0V7.232a.882.882,0,0,0,.882.882h7.908V9.878H2.716A2.719,2.719,0,0,0,0,12.594V46.558a2.719,2.719,0,0,0,2.716,2.716H21.837a8.406,8.406,0,0,1-3.155,5.645H14.935a2.646,2.646,0,0,0,0,5.292h30.34a2.646,2.646,0,0,0,0-5.292H41.53a8.49,8.49,0,0,1-3.156-5.645H57.494a2.719,2.719,0,0,0,2.716-2.716V12.594A2.719,2.719,0,0,0,57.494,9.878ZM46.025,1.764a.882.882,0,1,1-.882.882A.883.883,0,0,1,46.025,1.764Zm-15.92,0a.882.882,0,1,1-.882.882A.883.883,0,0,1,30.1,1.764Zm-15.92,0a.882.882,0,1,1-.882.882A.883.883,0,0,1,14.185,1.764ZM23.858,15.17h5.365V16.5l-5.365,2.563ZM39.466,22.5,30.1,26.974,20.744,22.5,30.1,18.029ZM19.58,23.9l9.643,4.607V40.936L19.58,36.329Zm16.772-4.841L30.987,16.5V15.17h5.365Zm0-7.417v1.764H30.987V11.642Zm-7.129,0v1.764H23.858V11.642ZM46.157,57.564a.883.883,0,0,1-.882.882H14.935a.882.882,0,0,1,0-1.764h30.34A.883.883,0,0,1,46.157,57.564ZM39,54.918H21.21a9.947,9.947,0,0,0,2.4-5.645H36.6A9.948,9.948,0,0,0,39,54.918Z"/>
    </g>
  </g>
</svg>
