<svg id="Grupo_1071717" data-name="Grupo 1071717" xmlns="http://www.w3.org/2000/svg" width="92" height="92" viewBox="0 0 92 92">
  <path id="Trazado_813500" data-name="Trazado 813500" d="M46,0A46,46,0,1,0,92,46,46,46,0,0,0,46,0Z" fill="#949af8"/>
  <g id="Layer_58" transform="translate(-17.928 -11.644)">
    <g id="Grupo_1071129" data-name="Grupo 1071129" transform="translate(40.515 27)">
      <g id="Grupo_1071081" data-name="Grupo 1071081" transform="translate(0.669 0.669)">
        <path id="Trazado_817458" data-name="Trazado 817458" d="M88.5,87.706V30.833A1.337,1.337,0,0,0,87.171,29.5H44.348a1.337,1.337,0,0,0-1.333,1.333V87.706a1.743,1.743,0,0,0,1.743,1.743h42A1.742,1.742,0,0,0,88.5,87.706Z" transform="translate(-43.015 -29.5)" fill="#f5c84c"/>
      </g>
      <g id="Grupo_1071082" data-name="Grupo 1071082" transform="translate(0.669 0.669)">
        <path id="Trazado_817459" data-name="Trazado 817459" d="M88.5,34.546V30.833A1.337,1.337,0,0,0,87.171,29.5H44.348a1.337,1.337,0,0,0-1.333,1.333v3.712H88.5Z" transform="translate(-43.015 -29.5)" fill="#5290db"/>
      </g>
      <g id="Grupo_1071083" data-name="Grupo 1071083" transform="translate(0.669 0.669)">
        <path id="Trazado_817460" data-name="Trazado 817460" d="M48.7,29.5H44.348a1.337,1.337,0,0,0-1.333,1.333v3.712H48.7Z" transform="translate(-43.015 -29.5)" fill="#fc657e"/>
      </g>
      <g id="Grupo_1071089" data-name="Grupo 1071089" transform="translate(39.122 2.447)">
        <path id="Trazado_817464" data-name="Trazado 817464" d="M190.512,37.48h-3.148a.669.669,0,1,1,0-1.338h3.148a.669.669,0,0,1,0,1.338Z" transform="translate(-186.695 -36.142)"/>
      </g>
      <g id="Grupo_1071090" data-name="Grupo 1071090" transform="translate(8.683 2.447)">
        <path id="Trazado_817465" data-name="Trazado 817465" d="M101.105,37.48H73.627a.669.669,0,0,1,0-1.338h27.478a.669.669,0,0,1,0,1.338Z" transform="translate(-72.958 -36.142)"/>
      </g>
      <g id="Grupo_1071091" data-name="Grupo 1071091" transform="translate(0.222 5.046)">
        <path id="Trazado_817466" data-name="Trazado 817466" d="M87.018,47.192h-45a.669.669,0,0,1,0-1.338h45a.669.669,0,0,1,0,1.338Z" transform="translate(-41.346 -45.854)"/>
      </g>
      <g id="Grupo_1071092" data-name="Grupo 1071092" transform="translate(5.687 0.252)">
        <path id="Trazado_817467" data-name="Trazado 817467" d="M62.433,33.856a.669.669,0,0,1-.669-.669V28.609a.669.669,0,0,1,1.338,0v4.578A.669.669,0,0,1,62.433,33.856Z" transform="translate(-61.764 -27.94)"/>
      </g>
      <g id="Grupo_1071093" data-name="Grupo 1071093" transform="translate(0)">
        <path id="Trazado_817468" data-name="Trazado 817468" d="M84.93,88.287h-42a2.415,2.415,0,0,1-2.412-2.412V29a2,2,0,0,1,2-2H85.34a2,2,0,0,1,2,2V85.875A2.415,2.415,0,0,1,84.93,88.287ZM42.517,28.338a.665.665,0,0,0-.664.664V85.875a1.075,1.075,0,0,0,1.074,1.074h42A1.075,1.075,0,0,0,86,85.875V29a.665.665,0,0,0-.664-.664Z" transform="translate(-40.515 -27)"/>
      </g>
      <g id="Grupo_1071121" data-name="Grupo 1071121" transform="translate(8.799 19.153)">
        <g id="Grupo_1071094" data-name="Grupo 1071094" transform="translate(7.793)">
          <path id="Trazado_817469" data-name="Trazado 817469" d="M110.328,99.9h-7.149a.669.669,0,0,1,0-1.338h7.149a.669.669,0,0,1,0,1.338Z" transform="translate(-102.509 -98.565)"/>
        </g>
        <g id="Grupo_1071095" data-name="Grupo 1071095">
          <path id="Trazado_817470" data-name="Trazado 817470" d="M78.847,99.9H74.06a.669.669,0,0,1,0-1.338h4.787a.669.669,0,1,1,0,1.338Z" transform="translate(-73.391 -98.565)"/>
        </g>
        <g id="Grupo_1071096" data-name="Grupo 1071096" transform="translate(26.509 3.235)">
          <path id="Trazado_817471" data-name="Trazado 817471" d="M175.03,111.992h-1.917a.669.669,0,0,1,0-1.338h1.917a.669.669,0,0,1,0,1.338Z" transform="translate(-172.444 -110.654)"/>
        </g>
        <g id="Grupo_1071097" data-name="Grupo 1071097" transform="translate(15.762 3.235)">
          <path id="Trazado_817472" data-name="Trazado 817472" d="M140.515,111.992h-7.559a.669.669,0,1,1,0-1.338h7.559a.669.669,0,0,1,0,1.338Z" transform="translate(-132.286 -110.654)"/>
        </g>
        <g id="Grupo_1071098" data-name="Grupo 1071098" transform="translate(10.707 3.235)">
          <path id="Trazado_817473" data-name="Trazado 817473" d="M115.867,111.992h-1.8a.669.669,0,1,1,0-1.338h1.8a.669.669,0,1,1,0,1.338Z" transform="translate(-113.399 -110.654)"/>
        </g>
        <g id="Grupo_1071099" data-name="Grupo 1071099" transform="translate(0 3.235)">
          <path id="Trazado_817474" data-name="Trazado 817474" d="M81.4,111.992H74.06a.669.669,0,0,1,0-1.338H81.4a.669.669,0,0,1,0,1.338Z" transform="translate(-73.391 -110.654)"/>
        </g>
        <g id="Grupo_1071100" data-name="Grupo 1071100" transform="translate(20.423 6.471)">
          <path id="Trazado_817475" data-name="Trazado 817475" d="M158.373,124.081h-8a.669.669,0,0,1,0-1.338h8a.669.669,0,1,1,0,1.338Z" transform="translate(-149.7 -122.743)"/>
        </g>
        <g id="Grupo_1071101" data-name="Grupo 1071101" transform="translate(5.88 6.471)">
          <path id="Trazado_817476" data-name="Trazado 817476" d="M107.234,124.081h-11.2a.669.669,0,1,1,0-1.338h11.2a.669.669,0,0,1,0,1.338Z" transform="translate(-95.362 -122.743)"/>
        </g>
        <g id="Grupo_1071102" data-name="Grupo 1071102" transform="translate(0 6.471)">
          <path id="Trazado_817477" data-name="Trazado 817477" d="M76.636,124.081H74.06a.669.669,0,0,1,0-1.338h2.576a.669.669,0,1,1,0,1.338Z" transform="translate(-73.391 -122.743)"/>
        </g>
        <g id="Grupo_1071103" data-name="Grupo 1071103" transform="translate(7.793 9.654)">
          <path id="Trazado_817478" data-name="Trazado 817478" d="M110.328,135.976h-7.149a.669.669,0,1,1,0-1.338h7.149a.669.669,0,1,1,0,1.338Z" transform="translate(-102.509 -134.638)"/>
        </g>
        <g id="Grupo_1071104" data-name="Grupo 1071104" transform="translate(0 9.654)">
          <path id="Trazado_817479" data-name="Trazado 817479" d="M78.847,135.976H74.06a.669.669,0,1,1,0-1.338h4.787a.669.669,0,1,1,0,1.338Z" transform="translate(-73.391 -134.638)"/>
        </g>
        <g id="Grupo_1071105" data-name="Grupo 1071105" transform="translate(26.509 12.89)">
          <path id="Trazado_817480" data-name="Trazado 817480" d="M175.03,148.065h-1.917a.669.669,0,0,1,0-1.338h1.917a.669.669,0,0,1,0,1.338Z" transform="translate(-172.444 -146.727)"/>
        </g>
        <g id="Grupo_1071106" data-name="Grupo 1071106" transform="translate(15.762 12.89)">
          <path id="Trazado_817481" data-name="Trazado 817481" d="M140.515,148.065h-7.559a.669.669,0,1,1,0-1.338h7.559a.669.669,0,0,1,0,1.338Z" transform="translate(-132.286 -146.727)"/>
        </g>
        <g id="Grupo_1071107" data-name="Grupo 1071107" transform="translate(10.707 12.89)">
          <path id="Trazado_817482" data-name="Trazado 817482" d="M115.867,148.065h-1.8a.669.669,0,1,1,0-1.338h1.8a.669.669,0,1,1,0,1.338Z" transform="translate(-113.399 -146.727)"/>
        </g>
        <g id="Grupo_1071108" data-name="Grupo 1071108" transform="translate(0 12.89)">
          <path id="Trazado_817483" data-name="Trazado 817483" d="M81.4,148.065H74.06a.669.669,0,0,1,0-1.338H81.4a.669.669,0,0,1,0,1.338Z" transform="translate(-73.391 -146.727)"/>
        </g>
        <g id="Grupo_1071109" data-name="Grupo 1071109" transform="translate(20.423 16.124)">
          <path id="Trazado_817484" data-name="Trazado 817484" d="M158.373,160.152h-8a.669.669,0,0,1,0-1.338h8a.669.669,0,1,1,0,1.338Z" transform="translate(-149.7 -158.814)"/>
        </g>
        <g id="Grupo_1071110" data-name="Grupo 1071110" transform="translate(5.88 16.124)">
          <path id="Trazado_817485" data-name="Trazado 817485" d="M107.234,160.152h-11.2a.669.669,0,1,1,0-1.338h11.2a.669.669,0,0,1,0,1.338Z" transform="translate(-95.362 -158.814)"/>
        </g>
        <g id="Grupo_1071111" data-name="Grupo 1071111" transform="translate(0 16.124)">
          <path id="Trazado_817486" data-name="Trazado 817486" d="M76.636,160.152H74.06a.669.669,0,0,1,0-1.338h2.576a.669.669,0,1,1,0,1.338Z" transform="translate(-73.391 -158.814)"/>
        </g>
        <g id="Grupo_1071112" data-name="Grupo 1071112" transform="translate(7.793 19.308)">
          <path id="Trazado_817487" data-name="Trazado 817487" d="M110.328,172.048h-7.149a.669.669,0,0,1,0-1.338h7.149a.669.669,0,0,1,0,1.338Z" transform="translate(-102.509 -170.71)"/>
        </g>
        <g id="Grupo_1071113" data-name="Grupo 1071113" transform="translate(0 19.308)">
          <path id="Trazado_817488" data-name="Trazado 817488" d="M78.847,172.048H74.06a.669.669,0,0,1,0-1.338h4.787a.669.669,0,0,1,0,1.338Z" transform="translate(-73.391 -170.71)"/>
        </g>
        <g id="Grupo_1071114" data-name="Grupo 1071114" transform="translate(26.509 22.543)">
          <path id="Trazado_817489" data-name="Trazado 817489" d="M175.03,184.136h-1.917a.669.669,0,0,1,0-1.338h1.917a.669.669,0,0,1,0,1.338Z" transform="translate(-172.444 -182.798)"/>
        </g>
        <g id="Grupo_1071115" data-name="Grupo 1071115" transform="translate(15.762 22.543)">
          <path id="Trazado_817490" data-name="Trazado 817490" d="M140.515,184.136h-7.559a.669.669,0,1,1,0-1.338h7.559a.669.669,0,0,1,0,1.338Z" transform="translate(-132.286 -182.798)"/>
        </g>
        <g id="Grupo_1071116" data-name="Grupo 1071116" transform="translate(10.707 22.543)">
          <path id="Trazado_817491" data-name="Trazado 817491" d="M115.867,184.136h-1.8a.669.669,0,1,1,0-1.338h1.8a.669.669,0,1,1,0,1.338Z" transform="translate(-113.399 -182.798)"/>
        </g>
        <g id="Grupo_1071117" data-name="Grupo 1071117" transform="translate(0 22.543)">
          <path id="Trazado_817492" data-name="Trazado 817492" d="M81.4,184.136H74.06a.669.669,0,0,1,0-1.338H81.4a.669.669,0,0,1,0,1.338Z" transform="translate(-73.391 -182.798)"/>
        </g>
        <g id="Grupo_1071118" data-name="Grupo 1071118" transform="translate(20.423 25.779)">
          <path id="Trazado_817493" data-name="Trazado 817493" d="M158.373,196.225h-8a.669.669,0,0,1,0-1.338h8a.669.669,0,1,1,0,1.338Z" transform="translate(-149.7 -194.887)"/>
        </g>
        <g id="Grupo_1071119" data-name="Grupo 1071119" transform="translate(5.88 25.779)">
          <path id="Trazado_817494" data-name="Trazado 817494" d="M107.234,196.225h-11.2a.669.669,0,1,1,0-1.338h11.2a.669.669,0,0,1,0,1.338Z" transform="translate(-95.362 -194.887)"/>
        </g>
        <g id="Grupo_1071120" data-name="Grupo 1071120" transform="translate(0 25.779)">
          <path id="Trazado_817495" data-name="Trazado 817495" d="M76.636,196.225H74.06a.669.669,0,1,1,0-1.338h2.576a.669.669,0,1,1,0,1.338Z" transform="translate(-73.391 -194.887)"/>
        </g>
      </g>
      <g id="Grupo_1071128" data-name="Grupo 1071128" transform="translate(8.799 8.893)">
        <g id="Grupo_1071124" data-name="Grupo 1071124">
          <g id="Grupo_1071122" data-name="Grupo 1071122">
            <path id="Trazado_817496" data-name="Trazado 817496" d="M74.06,65.044a.669.669,0,0,1,0-1.338A.938.938,0,0,0,75,62.769V62.5a2.277,2.277,0,0,1,2.275-2.275.669.669,0,0,1,0,1.338.938.938,0,0,0-.937.937v.268A2.278,2.278,0,0,1,74.06,65.044Z" transform="translate(-73.391 -60.227)"/>
          </g>
          <g id="Grupo_1071123" data-name="Grupo 1071123" transform="translate(0 3.479)">
            <path id="Trazado_817497" data-name="Trazado 817497" d="M77.272,78.044A2.277,2.277,0,0,1,75,75.769V75.5a.938.938,0,0,0-.937-.937.669.669,0,0,1,0-1.338A2.277,2.277,0,0,1,76.335,75.5v.268a.938.938,0,0,0,.937.937.669.669,0,0,1,0,1.338Z" transform="translate(-73.391 -73.227)"/>
          </g>
        </g>
        <g id="Grupo_1071127" data-name="Grupo 1071127" transform="translate(0 39.341)">
          <g id="Grupo_1071125" data-name="Grupo 1071125" transform="translate(0 3.479)">
            <path id="Trazado_817498" data-name="Trazado 817498" d="M74.06,225.044a.669.669,0,0,1,0-1.338.938.938,0,0,0,.937-.937V222.5a2.277,2.277,0,0,1,2.275-2.275.669.669,0,1,1,0,1.338.938.938,0,0,0-.937.937v.268A2.278,2.278,0,0,1,74.06,225.044Z" transform="translate(-73.391 -220.227)"/>
          </g>
          <g id="Grupo_1071126" data-name="Grupo 1071126">
            <path id="Trazado_817499" data-name="Trazado 817499" d="M77.272,212.044A2.277,2.277,0,0,1,75,209.769V209.5a.938.938,0,0,0-.937-.937.669.669,0,0,1,0-1.338,2.277,2.277,0,0,1,2.275,2.275v.268a.938.938,0,0,0,.937.937.669.669,0,1,1,0,1.338Z" transform="translate(-73.391 -207.227)"/>
          </g>
        </g>
      </g>
    </g>
  </g>
</svg>
