<svg xmlns="http://www.w3.org/2000/svg" xmlns:xlink="http://www.w3.org/1999/xlink" width="92" height="92" viewBox="0 0 92 92">
  <defs>
    <clipPath id="clip-path">
      <path id="path1245" d="M0-682.665H50.211v50.211H0Z" transform="translate(0 682.665)"/>
    </clipPath>
  </defs>
  <g id="Grupo_1071721" data-name="Grupo 1071721" transform="translate(0.167 -0.029)">
    <path id="Trazado_813500" data-name="Trazado 813500" d="M46,0A46,46,0,1,0,92,46,46,46,0,0,0,46,0Z" transform="translate(-0.167 0.029)" fill="#949af8"/>
    <g id="g1241" transform="translate(20.833 703.695)">
      <g id="g1243" transform="translate(0 -682.665)" clip-path="url(#clip-path)">
        <g id="g1249" transform="translate(0.736 37.477)">
          <path id="path1251" d="M-22.993,0l.022.022A9.452,9.452,0,0,0-23,2.038l-1.821,1.871,1.163,2.826,2.474.028a8.979,8.979,0,0,0,1.567,1.62l.026,2.444L-16.78,12l1.738-1.709a8.9,8.9,0,0,0,2.247-.03L-11.027,12l2.81-1.17.03-2.617a9.383,9.383,0,0,0,1.4-1.443l2.639-.029,1.165-2.825-1.845-1.9A9.451,9.451,0,0,0-4.8,0H-9.079l-4.707,2.942L-18.72,0Z" transform="translate(24.819)" fill="#d9ddff"/>
        </g>
        <g id="g1253" transform="translate(6.729 37.477)">
          <path id="path1255" d="M-122.767,0a4.955,4.955,0,0,1-.27,2.916A4.917,4.917,0,0,1-129.474,5.6,4.959,4.959,0,0,1-132.407,0Z" transform="translate(132.513)" fill="#fff"/>
        </g>
        <g id="g1257" transform="translate(31.14 16.135)">
          <path id="path1259" d="M-115.409-226a2.146,2.146,0,0,1-2.034-1.493c-.007-.022-.014-.044-.02-.066l-2.165-7.489-1.309,7.4a1.843,1.843,0,0,1-1.8,1.537,1.8,1.8,0,0,1-.327-.03,1.867,1.867,0,0,1-1.477-2.171l2.446-13.832,0-.022a2.163,2.163,0,0,1,1.964-1.771q.072,0,.144,0a2.152,2.152,0,0,1,2.034,1.493c.007.022.014.044.02.066l2.5,8.634,2.407-8.615c.006-.022.013-.043.019-.065a2.152,2.152,0,0,1,2.041-1.514q.061,0,.122,0a2.162,2.162,0,0,1,1.982,1.749l0,.022,2.591,13.836a1.867,1.867,0,0,1-1.455,2.187,1.8,1.8,0,0,1-.346.034,1.842,1.842,0,0,1-1.8-1.519l-1.392-7.432-2.09,7.482c-.006.022-.013.043-.02.065A2.147,2.147,0,0,1-115.4-226h-.011" transform="translate(124.572 243.938)" fill="#7776d0"/>
        </g>
        <g id="g1261" transform="translate(42.783 16.135)">
          <path id="path1263" d="M-83.883-196.637l-2.591-13.836,0-.022a2.162,2.162,0,0,0-1.981-1.749q-.061,0-.122,0a2.147,2.147,0,0,0-1.961,1.3,2.221,2.221,0,0,1,.141.451l0,.022,1.408,7.521.116-.415,1.392,7.432a1.842,1.842,0,0,0,1.8,1.518,1.811,1.811,0,0,0,.346-.034,1.867,1.867,0,0,0,1.455-2.187" transform="translate(90.542 212.249)" fill="#6967bf"/>
        </g>
        <g id="g1265" transform="translate(0.736 16.135)">
          <path id="path1267" d="M-110.728-226a8.892,8.892,0,0,1-8.791-8.971,8.892,8.892,0,0,1,8.791-8.971,8.625,8.625,0,0,1,4.916,1.533c1.922,1.325-.062,4.469-2.051,3.1a5.028,5.028,0,0,0-2.866-.893,5.187,5.187,0,0,0-5.128,5.233,5.187,5.187,0,0,0,5.128,5.233,3.789,3.789,0,0,0,2.981-1.337c1.517-1.846,4.313.569,2.807,2.4A7.441,7.441,0,0,1-110.728-226" transform="translate(119.518 243.938)" fill="#7776d0"/>
        </g>
        <g id="g1269" transform="translate(7.567 16.135)">
          <path id="path1271" d="M-37.2-19.312a1.791,1.791,0,0,1,.516,2.435,5.047,5.047,0,0,1,1.356.662c1.989,1.371,3.973-1.772,2.051-3.1a8.625,8.625,0,0,0-4.916-1.533,8.618,8.618,0,0,0-1.96.225A8.652,8.652,0,0,1-37.2-19.312" transform="translate(40.149 20.845)" fill="#6967bf"/>
        </g>
        <g id="g1273" transform="translate(7.517 28.341)">
          <path id="path1275" d="M-62.855-8.328a3.526,3.526,0,0,1-.779.7,1.718,1.718,0,0,1-.337,1.7A7.3,7.3,0,0,1-67.845-3.49a8.613,8.613,0,0,0,2.009.236,7.441,7.441,0,0,0,5.788-2.673c1.507-1.833-1.29-4.248-2.807-2.4" transform="translate(67.845 8.989)" fill="#6967bf"/>
        </g>
        <g id="g1277" transform="translate(17.847 16.135)">
          <path id="path1279" d="M-69.714-47.084a1.938,1.938,0,0,1,1.991,1.822,1.938,1.938,0,0,1-1.991,1.822c-.433,0-1.159,0-1.852.006,0-.689-.006-1.4-.006-1.829,0-.364,0-1.1,0-1.822Zm1.754,7.108a5.579,5.579,0,0,0,3.9-5.285,5.614,5.614,0,0,0-5.653-5.561h-3.7a1.851,1.851,0,0,0-1.832,1.869v14.2a1.851,1.851,0,0,0,1.832,1.869,1.851,1.851,0,0,0,1.832-1.869v-3.773l4.319,5.008a1.811,1.811,0,0,0,1.376.634,1.8,1.8,0,0,0,1.209-.466,1.9,1.9,0,0,0,.165-2.638Z" transform="translate(75.249 50.823)" fill="#7776d0"/>
        </g>
        <g id="g1281" transform="translate(19.271 16.135)">
          <path id="path1283" d="M-117.241-186.9l-3.443-3.992a5.579,5.579,0,0,0,3.9-5.285,5.614,5.614,0,0,0-5.653-5.561h-3.7a1.8,1.8,0,0,0-.408.047,5.648,5.648,0,0,1,4.632,3.758,1.888,1.888,0,0,1,1.47,1.756,1.888,1.888,0,0,1-1.47,1.757,5.592,5.592,0,0,1-2.1,2.777,1.5,1.5,0,0,0-.258,2.208l2.187,2.536a1.88,1.88,0,0,1,.187.258l1.908,2.212a1.811,1.811,0,0,0,1.376.634,1.8,1.8,0,0,0,1.209-.466,1.9,1.9,0,0,0,.165-2.638" transform="translate(126.549 201.738)" fill="#6967bf"/>
        </g>
        <g id="g1285" transform="translate(0.736 0.736)">
          <path id="path1287" d="M-194.919-23.323v3.744a1.852,1.852,0,0,1-1.852,1.852h-6.54l-3.037,2.261v-2.261h-2.194a1.852,1.852,0,0,1-1.852-1.852v-3.744a1.852,1.852,0,0,1,1.852-1.852h11.772a1.852,1.852,0,0,1,1.852,1.852" transform="translate(210.394 25.175)" fill="#ffd54d"/>
        </g>
        <g id="g1289" transform="translate(10.436 0.736)">
          <path id="path1291" d="M-49.41,0h-3.923a1.852,1.852,0,0,1,1.852,1.852V5.6a1.852,1.852,0,0,1-1.852,1.852h3.923A1.852,1.852,0,0,0-47.559,5.6V1.852A1.852,1.852,0,0,0-49.41,0" transform="translate(53.333)" fill="#ffc919"/>
        </g>
        <g id="g1293" transform="translate(29.035 39.768)">
          <path id="path1295" d="M-194.919-98.952V-102.7a1.852,1.852,0,0,0-1.852-1.852h-6.54l-3.037-2.261v2.261h-2.194a1.852,1.852,0,0,0-1.852,1.852v3.744a1.852,1.852,0,0,0,1.852,1.852h11.772a1.852,1.852,0,0,0,1.852-1.852" transform="translate(210.394 106.808)" fill="#ffd54d"/>
        </g>
        <g id="g1297" transform="translate(38.736 42.029)">
          <path id="path1299" d="M-49.41,0h-3.923a1.852,1.852,0,0,1,1.852,1.852V5.6a1.852,1.852,0,0,1-1.852,1.852h3.923A1.852,1.852,0,0,0-47.559,5.6V1.852A1.852,1.852,0,0,0-49.41,0" transform="translate(53.333)" fill="#ffc919"/>
        </g>
        <g id="g1301" transform="translate(39.166 36.734)">
          <path id="path1303" d="M-129.831-34.6a2.748,2.748,0,0,0-2.75-2.747,2.749,2.749,0,0,0-2.4,1.412,2.749,2.749,0,0,0-2.4-1.412,2.748,2.748,0,0,0-2.749,2.747s-.28,3.195,5.152,5.651c5.432-2.456,5.153-5.651,5.153-5.651" transform="translate(140.138 37.343)" fill="#ff8ccc"/>
        </g>
        <g id="g1305" transform="translate(42.36 36.734)">
          <path id="path1307" d="M-89.6-34.6a2.748,2.748,0,0,0-2.749-2.747,2.742,2.742,0,0,0-1.961.822,2.736,2.736,0,0,1,.788,1.925s.207,2.363-3.191,4.587a14.43,14.43,0,0,0,1.961,1.064C-89.325-31.4-89.6-34.6-89.6-34.6" transform="translate(96.718 37.343)" fill="#ff78c2"/>
        </g>
        <g id="g1309" transform="translate(26.335 5.819)">
          <path id="path1311" d="M0-88.442v-7.022H5.7v7.022" transform="translate(0 95.464)" fill="#ffd54d"/>
        </g>
        <g id="g1313" transform="translate(43.75 9.679)">
          <path id="path1315" d="M0-39.815v-3.161H5.7v3.161" transform="translate(0 42.976)" fill="#d9ddff"/>
        </g>
        <g id="g1317" transform="translate(35.042 0.736)">
          <path id="path1319" d="M0-152.467v-12.1H5.7v12.1" transform="translate(0 164.572)" fill="#ff8ccc"/>
        </g>
        <g id="g1321" transform="translate(43.72 0.736)">
          <path id="path1323" d="M-36.247,0l.889,1.8,1.989.289-1.439,1.4.34,1.98-1.779-.935-1.779.935.34-1.98-1.439-1.4,1.989-.289Z" transform="translate(39.125)" fill="#ffd54d"/>
        </g>
        <g id="g1325" transform="translate(12.469 3.035)">
          <path id="path1327" d="M-123.5-61.751a4.9,4.9,0,0,1-4.9,4.9,4.9,4.9,0,0,1-4.9-4.9,4.9,4.9,0,0,1,4.9-4.9,4.9,4.9,0,0,1,4.9,4.9" transform="translate(133.306 66.653)" fill="#a6f5cf"/>
        </g>
        <g id="g1329" transform="translate(15.41 3.035)">
          <path id="path1331" d="M-24.705,0a4.885,4.885,0,0,0-1.961.408A4.9,4.9,0,0,1-23.726,4.9,4.9,4.9,0,0,1-26.667,9.4a4.885,4.885,0,0,0,1.961.408,4.9,4.9,0,0,0,4.9-4.9,4.9,4.9,0,0,0-4.9-4.9" transform="translate(26.667)" fill="#8aedbd"/>
        </g>
        <g id="g1333" transform="translate(16.636 4.579)">
          <path id="path1335" d="M-29.04-68.253a.733.733,0,0,1-.474-.173l-1.57-1.324a.735.735,0,0,1-.261-.562v-2.624a.736.736,0,0,1,.736-.736.736.736,0,0,1,.736.736v2.282l1.309,1.1a.739.739,0,0,1-.474,1.3" transform="translate(31.345 73.672)" fill="#fff"/>
        </g>
        <g id="g1337" transform="translate(0 36.742)">
          <path id="path1339" d="M-20.292,3.469a.735.735,0,0,1-.516-.211l-1.515-1.491a9.65,9.65,0,0,1-1.712.022l-1.494,1.469a.736.736,0,0,1-.8.154L-29.137,2.24a.736.736,0,0,1-.453-.671l-.022-2.1a9.727,9.727,0,0,1-1.2-1.236l-2.12-.024A.736.736,0,0,1-33.6-2.25l-1.163-2.826a.736.736,0,0,1,.153-.793L-33.021-7.5a10.215,10.215,0,0,1,.044-1.739.725.725,0,0,1,.217-.54.722.722,0,0,1,1.029,0l.022.022a.736.736,0,0,1,.2.6A8.734,8.734,0,0,0-31.53-7.3a.736.736,0,0,1-.205.582l-1.484,1.525.794,1.929,1.987.023a.736.736,0,0,1,.58.294A8.253,8.253,0,0,0-28.42-1.457a.736.736,0,0,1,.275.566l.021,1.959,1.911.8L-24.822.5a.735.735,0,0,1,.6-.206A8.174,8.174,0,0,0-22.162.265a.736.736,0,0,1,.618.2l1.42,1.4,1.912-.8.024-2.133a.736.736,0,0,1,.266-.557,8.665,8.665,0,0,0,1.29-1.33.736.736,0,0,1,.572-.283l2.153-.023.8-1.929L-14.62-6.736a.736.736,0,0,1-.2-.6A8.733,8.733,0,0,0-14.8-9.2a.736.736,0,0,1,.663-.8.736.736,0,0,1,.8.663,10.208,10.208,0,0,1,.008,1.818l1.606,1.652a.736.736,0,0,1,.153.793l-1.165,2.825a.736.736,0,0,1-.672.455l-2.294.025A10.147,10.147,0,0,1-16.72-.713l-.026,2.285a.736.736,0,0,1-.453.671l-2.81,1.17A.734.734,0,0,1-20.292,3.469Z" transform="translate(34.819 10.001)"/>
        </g>
        <g id="g1341" transform="translate(5.992 36.742)">
          <path id="path1343" d="M-136.863-2.555a5.629,5.629,0,0,1-2.169-.437,5.693,5.693,0,0,1-3.37-6.425.736.736,0,0,1,.871-.568.736.736,0,0,1,.568.871,4.221,4.221,0,0,0,2.5,4.765,4.139,4.139,0,0,0,3.2,0,4.177,4.177,0,0,0,2.277-2.285,4.218,4.218,0,0,0,.23-2.484.736.736,0,0,1,.569-.871.736.736,0,0,1,.871.569,5.684,5.684,0,0,1-.31,3.347,5.638,5.638,0,0,1-3.075,3.083A5.631,5.631,0,0,1-136.863-2.555Z" transform="translate(142.524 10.002)"/>
        </g>
        <g id="g1345" transform="translate(30.405 15.4)">
          <path id="path1347" d="M-234.92-128.025a2.886,2.886,0,0,1-2.747-2l-.029-.1-1.285-4.443-.757,4.282a2.623,2.623,0,0,1-1.083,1.685,2.516,2.516,0,0,1-1.9.418,2.606,2.606,0,0,1-2.068-3.023l2.446-13.832a2.908,2.908,0,0,1,2.642-2.4,2.975,2.975,0,0,1,2.954,2.082l1.778,6.149,1.71-6.123a2.973,2.973,0,0,1,2.933-2.111,2.9,2.9,0,0,1,2.66,2.34l1.567,8.365a.736.736,0,0,1-.588.858.736.736,0,0,1-.858-.588l-1.561-8.334a1.43,1.43,0,0,0-1.305-1.173,1.5,1.5,0,0,0-1.431,1.039l-2.406,8.615a.736.736,0,0,1-.705.538.735.735,0,0,1-.71-.531l-2.5-8.634a1.5,1.5,0,0,0-1.441-1.024,1.427,1.427,0,0,0-1.291,1.173l-2.449,13.845a1.132,1.132,0,0,0,.886,1.32,1.055,1.055,0,0,0,.8-.18,1.142,1.142,0,0,0,.474-.732l1.309-7.4a.736.736,0,0,1,.685-.606.735.735,0,0,1,.746.53l2.165,7.489a1.427,1.427,0,0,0,1.348,1.028,1.416,1.416,0,0,0,1.34-1l2.1-7.522a.736.736,0,0,1,.74-.537.736.736,0,0,1,.691.6l1.392,7.432a1.141,1.141,0,0,0,.481.727,1.055,1.055,0,0,0,.8.171,1.132,1.132,0,0,0,.873-1.329l-.311-1.658a.736.736,0,0,1,.588-.858.736.736,0,0,1,.858.588l.311,1.659a2.607,2.607,0,0,1-2.037,3.044,2.516,2.516,0,0,1-1.906-.4,2.622,2.622,0,0,1-1.1-1.673l-.81-4.327-1.24,4.44-.027.09a2.881,2.881,0,0,1-2.727,2.026Z" transform="translate(244.832 147.438)"/>
        </g>
        <g id="g1349" transform="translate(0 15.399)">
          <path id="path1351" d="M-23.231-41.049a9.629,9.629,0,0,1-9.526-9.707,9.751,9.751,0,0,1,1.81-5.686.736.736,0,0,1,1.026-.173.736.736,0,0,1,.173,1.026,8.288,8.288,0,0,0-1.538,4.833,8.156,8.156,0,0,0,8.055,8.236,6.7,6.7,0,0,0,5.219-2.4,1.158,1.158,0,0,0-.136-1.607,1.062,1.062,0,0,0-.791-.248,1.074,1.074,0,0,0-.743.388,4.489,4.489,0,0,1-3.549,1.605,5.923,5.923,0,0,1-5.863-5.968,5.923,5.923,0,0,1,5.863-5.968A5.76,5.76,0,0,1-19.948-55.7a1.063,1.063,0,0,0,.8.149,1.1,1.1,0,0,0,.71-.452,1.156,1.156,0,0,0-.3-1.584,7.894,7.894,0,0,0-4.5-1.4,7.906,7.906,0,0,0-3.93,1.049.736.736,0,0,1-1-.272.736.736,0,0,1,.272-1,9.379,9.379,0,0,1,4.662-1.244A9.358,9.358,0,0,1-17.9-58.8a2.634,2.634,0,0,1,.688,3.607,2.575,2.575,0,0,1-1.657,1.085,2.541,2.541,0,0,1-1.917-.383,4.3,4.3,0,0,0-2.448-.763,4.451,4.451,0,0,0-4.392,4.5,4.451,4.451,0,0,0,4.392,4.5,3.044,3.044,0,0,0,2.413-1.069,2.533,2.533,0,0,1,1.751-.919,2.522,2.522,0,0,1,1.876.6,2.637,2.637,0,0,1,.316,3.659A8.17,8.17,0,0,1-23.231-41.049Z" transform="translate(32.757 60.463)"/>
        </g>
        <g id="g1353" transform="translate(17.111 15.399)">
          <path id="path1355" d="M-82.682-60.823h3.7a6.35,6.35,0,0,1,6.389,6.3,6.27,6.27,0,0,1-3.416,5.573l2.781,3.225a2.637,2.637,0,0,1-.23,3.665,2.543,2.543,0,0,1-1.7.654,2.552,2.552,0,0,1-1.933-.889l-3.026-3.509v1.794a2.589,2.589,0,0,1-2.567,2.6,2.589,2.589,0,0,1-2.567-2.6v-14.2A2.589,2.589,0,0,1-82.682-60.823Zm7.526,17.942a1.074,1.074,0,0,0,.718-.278,1.158,1.158,0,0,0,.1-1.61l-3.443-3.992a.736.736,0,0,1-.151-.679.736.736,0,0,1,.483-.5,4.827,4.827,0,0,0,3.39-4.585,4.878,4.878,0,0,0-4.918-4.825h-3.7a1.116,1.116,0,0,0-1.1,1.133v14.2a1.117,1.117,0,0,0,1.1,1.134,1.117,1.117,0,0,0,1.1-1.134v-3.773a.736.736,0,0,1,.479-.689.736.736,0,0,1,.813.209l4.319,5.008A1.082,1.082,0,0,0-75.156-42.88Zm-5.684-14.2h1.862a2.682,2.682,0,0,1,2.726,2.558,2.682,2.682,0,0,1-2.726,2.558c-.433,0-1.157,0-1.848.006a.736.736,0,0,1-.739-.732c0-.69-.006-1.407-.006-1.832l0-1.82a.736.736,0,0,1,.215-.521A.736.736,0,0,1-80.84-57.084Zm.742,3.648,1.119,0a1.211,1.211,0,0,0,1.255-1.087,1.211,1.211,0,0,0-1.255-1.087H-80.1l0,1.087C-80.1-54.255-80.1-53.864-80.1-53.437Z" transform="translate(85.249 60.823)"/>
        </g>
        <g id="g1357" transform="translate(0 0)">
          <path id="path1359" d="M-164.749-100.069a.735.735,0,0,1-.33-.078.736.736,0,0,1-.405-.657v-1.525h-1.459a2.59,2.59,0,0,1-2.587-2.587v-3.744a2.59,2.59,0,0,1,2.587-2.587h11.772a2.59,2.59,0,0,1,2.587,2.587.736.736,0,0,1-.736.736.736.736,0,0,1-.736-.736,1.117,1.117,0,0,0-1.116-1.116h-11.772a1.117,1.117,0,0,0-1.116,1.116v3.744a1.117,1.117,0,0,0,1.116,1.116h2.194a.736.736,0,0,1,.736.736v.8l1.862-1.386a.736.736,0,0,1,.439-.146h4.651a.736.736,0,0,1,.736.736.736.736,0,0,1-.736.736h-4.407l-2.841,2.115A.735.735,0,0,1-164.749-100.069Z" transform="translate(169.53 111.248)"/>
        </g>
        <g id="g1361" transform="translate(28.3 39.033)">
          <path id="path1363" d="M-146.37-29.556h-11.772a2.59,2.59,0,0,1-2.587-2.587v-3.744a2.59,2.59,0,0,1,2.587-2.587h1.459V-40a.736.736,0,0,1,.405-.657.736.736,0,0,1,.769.067l2.841,2.115h3.76a.736.736,0,0,1,.736.736.736.736,0,0,1-.736.736h-4a.736.736,0,0,1-.439-.146l-1.862-1.386v.8a.736.736,0,0,1-.736.736h-2.194a1.117,1.117,0,0,0-1.116,1.116v3.744a1.117,1.117,0,0,0,1.116,1.116h11.772a1.117,1.117,0,0,0,1.116-1.116V-34.71a.736.736,0,0,1,.736-.736.736.736,0,0,1,.736.736v2.567A2.59,2.59,0,0,1-146.37-29.556Z" transform="translate(160.729 40.735)"/>
        </g>
        <g id="g1365" transform="translate(38.431 35.998)">
          <path id="path1367" d="M-146.643-47.343a3.489,3.489,0,0,1,2.4.961,3.489,3.489,0,0,1,2.4-.961,3.488,3.488,0,0,1,3.485,3.482c.01.088.255,3.681-5.585,6.321a.736.736,0,0,1-.606,0c-5.84-2.64-5.6-6.233-5.582-6.385A3.47,3.47,0,0,1-146.643-47.343Zm2.4,2.883a.734.734,0,0,1-.642-.377,2.018,2.018,0,0,0-1.761-1.035,2.015,2.015,0,0,0-2.014,2.011c-.008.16-.093,2.691,4.417,4.84,4.51-2.149,4.425-4.678,4.419-4.787a2.03,2.03,0,0,0-2.016-2.064,2.018,2.018,0,0,0-1.761,1.035A.736.736,0,0,1-144.24-44.459Z" transform="translate(150.13 47.343)"/>
        </g>
        <g id="g1369" transform="translate(25.599 5.083)">
          <path id="path1371" d="M-3.569-96.971a.736.736,0,0,1-.736-.736v-6.286H-8.529v6.286a.736.736,0,0,1-.736.736A.736.736,0,0,1-10-97.707v-7.022a.736.736,0,0,1,.736-.736h5.7a.736.736,0,0,1,.736.736v7.022A.736.736,0,0,1-3.569-96.971Z" transform="translate(10 105.464)"/>
        </g>
        <g id="g1373" transform="translate(43.015 8.944)">
          <path id="path1375" d="M-3.569-48.344a.736.736,0,0,1-.736-.736V-51.5H-8.529v2.425a.736.736,0,0,1-.736.736A.736.736,0,0,1-10-49.079V-52.24a.736.736,0,0,1,.736-.736h5.7a.736.736,0,0,1,.736.736v3.161A.736.736,0,0,1-3.569-48.344Z" transform="translate(10 52.976)"/>
        </g>
        <g id="g1377" transform="translate(34.307 0)">
          <path id="path1379" d="M-3.569-161a.736.736,0,0,1-.736-.736V-173.1H-8.529v11.369a.736.736,0,0,1-.736.736.736.736,0,0,1-.736-.736v-12.1a.736.736,0,0,1,.736-.736h5.7a.736.736,0,0,1,.736.736v12.1A.736.736,0,0,1-3.569-161Z" transform="translate(10 174.572)"/>
        </g>
        <g id="g1381" transform="translate(42.985 0)">
          <path id="path1383" d="M-45.512-10a.736.736,0,0,1,.66.41l.718,1.455,1.606.233a.736.736,0,0,1,.594.5.736.736,0,0,1-.186.754l-1.162,1.133.274,1.6A.736.736,0,0,1-43.3-3.2a.736.736,0,0,1-.775.056l-1.436-.755-1.436.755a.736.736,0,0,1-.775-.056.736.736,0,0,1-.293-.719l.274-1.6L-48.9-6.647a.736.736,0,0,1-.186-.754.736.736,0,0,1,.594-.5l1.606-.233.718-1.455A.736.736,0,0,1-45.512-10Zm1.3,3.34-.514-.075a.736.736,0,0,1-.554-.4l-.23-.465-.23.465a.736.736,0,0,1-.554.4l-.514.075.372.362a.736.736,0,0,1,.212.651l-.088.512.459-.242a.736.736,0,0,1,.684,0l.46.242-.088-.512a.736.736,0,0,1,.212-.651Z" transform="translate(49.125 10)"/>
        </g>
        <g id="g1385" transform="translate(11.734 2.3)">
          <path id="path1387" d="M-137.668-76.653a5.644,5.644,0,0,1,5.638,5.638,5.644,5.644,0,0,1-5.638,5.638,5.644,5.644,0,0,1-5.638-5.638A5.644,5.644,0,0,1-137.668-76.653Zm0,9.8a4.172,4.172,0,0,0,4.167-4.167,4.172,4.172,0,0,0-4.167-4.167,4.172,4.172,0,0,0-4.167,4.167A4.172,4.172,0,0,0-137.668-66.848Z" transform="translate(143.306 76.653)"/>
        </g>
        <g id="g1389" transform="translate(16.636 4.579)">
          <path id="path1391" d="M-7.694-4.581a.732.732,0,0,1-.474-.173l-1.57-1.324A.736.736,0,0,1-10-6.641V-9.264A.736.736,0,0,1-9.264-10a.736.736,0,0,1,.736.736v2.282l1.309,1.1a.736.736,0,0,1,.088,1.036A.734.734,0,0,1-7.694-4.581Z" transform="translate(10 10)"/>
        </g>
        <g id="g1393" transform="translate(24.003 45.847)">
          <path id="path1395" d="M-8.949-18.529a.736.736,0,0,0,0-1.471.736.736,0,0,0,0,1.471" transform="translate(9.66 20)"/>
        </g>
      </g>
    </g>
  </g>
</svg>
