<svg xmlns="http://www.w3.org/2000/svg" width="92" height="92" viewBox="0 0 92 92">
  <g id="Grupo_1070276" data-name="Grupo 1070276" transform="translate(-0.5 -0.029)">
    <path id="Trazado_813500" data-name="Trazado 813500" d="M46,0A46,46,0,1,0,92,46,46,46,0,0,0,46,0Z" transform="translate(0.5 0.029)" fill="#949af8"/>
    <g id="database" transform="translate(14.5 14.029)">
      <path id="Trazado_818730" data-name="Trazado 818730" d="M39,28V38c0,2.76-8.06,5-18,5S3,40.76,3,38V28c0,2.76,8.06,5,18,5S39,30.76,39,28Z" fill="#c0ab91"/>
      <path id="Trazado_818731" data-name="Trazado 818731" d="M61,30v6l-4.56.76a13.086,13.086,0,0,1-.98,2.38l2.68,3.76L53.9,47.14l-3.19-2.27A2.014,2.014,0,0,0,52,43V35a1.97,1.97,0,0,0-.11-.65A8.579,8.579,0,0,0,52,33a8,8,0,0,0-13-6.24V21a13.009,13.009,0,0,1,1.24-.44L41,16h6l.76,4.56a13.086,13.086,0,0,1,2.38.98l3.76-2.68,4.24,4.24-2.68,3.76a13.086,13.086,0,0,1,.98,2.38Z" fill="#ffeb99"/>
      <rect id="Rect치ngulo_375753" data-name="Rect치ngulo 375753" width="40" height="12" rx="2" transform="translate(12 49)" fill="#57a4ff"/>
      <path id="Trazado_818732" data-name="Trazado 818732" d="M52,51v8a2.006,2.006,0,0,1-2,2H46a2.006,2.006,0,0,0,2-2V51a2.006,2.006,0,0,0-2-2h4A2.006,2.006,0,0,1,52,51Z" fill="#2488ff"/>
      <path id="Trazado_818733" data-name="Trazado 818733" d="M52,33a8.58,8.58,0,0,1-.11,1.35A2.013,2.013,0,0,0,50,33H39V26.76A8,8,0,0,1,52,33Z" fill="#c6c5ca"/>
      <path id="Trazado_818734" data-name="Trazado 818734" d="M52,33a8.58,8.58,0,0,1-.11,1.35A2.013,2.013,0,0,0,50,33H48a8.017,8.017,0,0,0-5.98-7.75A8,8,0,0,1,52,33Z" fill="#acabb1"/>
      <path id="Trazado_818735" data-name="Trazado 818735" d="M42,45h6v4H42Z" fill="#c6c5ca"/>
      <path id="Trazado_818736" data-name="Trazado 818736" d="M39,18V28c0,2.76-8.06,5-18,5S3,30.76,3,28V18c0,2.76,8.06,5,18,5S39,20.76,39,18Z" fill="#c0ab91"/>
      <path id="Trazado_818737" data-name="Trazado 818737" d="M39,8V18c0,2.76-8.06,5-18,5S3,20.76,3,18V8c0,2.76,8.06,5,18,5S39,10.76,39,8Z" fill="#c0ab91"/>
      <ellipse id="Elipse_9699" data-name="Elipse 9699" cx="18" cy="5" rx="18" ry="5" transform="translate(3 3)" fill="#ffcd00"/>
      <g id="Grupo_1071843" data-name="Grupo 1071843">
        <path id="Trazado_818738" data-name="Trazado 818738" d="M39,28V38c0,2.76-8.06,5-18,5-.68,0-1.34-.01-2-.04,9-.27,16-2.39,16-4.96V31.14C37.5,30.28,39,29.19,39,28Z" fill="#b39a7c"/>
        <path id="Trazado_818739" data-name="Trazado 818739" d="M39,18V28c0,1.19-1.5,2.28-4,3.14v-10C37.5,20.28,39,19.19,39,18Z" fill="#b39a7c"/>
        <path id="Trazado_818740" data-name="Trazado 818740" d="M39,8V18c0,1.19-1.5,2.28-4,3.14v-10c2.5-.86,4-1.95,4-3.14Z" fill="#b39a7c"/>
      </g>
      <path id="Trazado_818741" data-name="Trazado 818741" d="M39,8c0,2.76-8.06,5-18,5-.68,0-1.34-.01-2-.04,9-.27,16-2.39,16-4.96S28,3.31,19,3.04c.66-.03,1.32-.04,2-.04C30.94,3,39,5.24,39,8Z" fill="#ebbf00"/>
      <path id="Trazado_818742" data-name="Trazado 818742" d="M24,53h4v4H24Z" fill="#ffeb99"/>
      <rect id="Rect치ngulo_375754" data-name="Rect치ngulo 375754" width="40" height="12" rx="2" transform="translate(12 33)" fill="#57a4ff"/>
      <path id="Trazado_818743" data-name="Trazado 818743" d="M52,35v8a2.006,2.006,0,0,1-2,2H46a2.006,2.006,0,0,0,2-2V35a2.006,2.006,0,0,0-2-2h4A2.006,2.006,0,0,1,52,35Z" fill="#2488ff"/>
      <path id="Trazado_818744" data-name="Trazado 818744" d="M24,37h4v4H24Z" fill="#ffeb99"/>
      <path id="Trazado_818745" data-name="Trazado 818745" d="M16,45h6v4H16Z" fill="#c6c5ca"/>
      <path id="Trazado_818746" data-name="Trazado 818746" d="M16,53h4v4H16Z" fill="#ffeb99"/>
      <path id="Trazado_818747" data-name="Trazado 818747" d="M16,37h4v4H16Z" fill="#ffeb99"/>
      <path id="Trazado_818748" data-name="Trazado 818748" d="M20,36H16a1,1,0,0,0-1,1v4a1,1,0,0,0,1,1h4a1,1,0,0,0,1-1V37A1,1,0,0,0,20,36Zm-1,4H17V38h2Z"/>
      <path id="Trazado_818749" data-name="Trazado 818749" d="M28,36H24a1,1,0,0,0-1,1v4a1,1,0,0,0,1,1h4a1,1,0,0,0,1-1V37A1,1,0,0,0,28,36Zm-1,4H25V38h2Z"/>
      <path id="Trazado_818750" data-name="Trazado 818750" d="M31,36H45v2H31Z"/>
      <path id="Trazado_818751" data-name="Trazado 818751" d="M47,36h2v2H47Z"/>
      <path id="Trazado_818752" data-name="Trazado 818752" d="M31,40H45v2H31Z"/>
      <path id="Trazado_818753" data-name="Trazado 818753" d="M47,40h2v2H47Z"/>
      <path id="Trazado_818754" data-name="Trazado 818754" d="M16,58h4a1,1,0,0,0,1-1V53a1,1,0,0,0-1-1H16a1,1,0,0,0-1,1v4A1,1,0,0,0,16,58Zm1-4h2v2H17Z"/>
      <path id="Trazado_818755" data-name="Trazado 818755" d="M24,58h4a1,1,0,0,0,1-1V53a1,1,0,0,0-1-1H24a1,1,0,0,0-1,1v4A1,1,0,0,0,24,58Zm1-4h2v2H25Z"/>
      <path id="Trazado_818756" data-name="Trazado 818756" d="M31,52H45v2H31Z"/>
      <path id="Trazado_818757" data-name="Trazado 818757" d="M47,52h2v2H47Z"/>
      <path id="Trazado_818758" data-name="Trazado 818758" d="M31,56H45v2H31Z"/>
      <path id="Trazado_818759" data-name="Trazado 818759" d="M47,56h2v2H47Z"/>
      <path id="Trazado_818760" data-name="Trazado 818760" d="M61.16,29.01l-3.96-.66a11.452,11.452,0,0,0-.58-1.4l2.33-3.27a1,1,0,0,0-.1-1.29l-4.24-4.24a1,1,0,0,0-1.29-.1l-3.27,2.33a14.227,14.227,0,0,0-1.4-.58l-.66-3.96A1,1,0,0,0,47,15H41a1,1,0,0,0-.99.84l-.01.08V8c0-3.94-9.56-6-19-6S2,4.06,2,8V38c0,3.03,5.32,4.51,9.02,5.18A2.991,2.991,0,0,0,14,46h1v2H14a3.009,3.009,0,0,0-3,3v8a3.009,3.009,0,0,0,3,3H50a3.009,3.009,0,0,0,3-3V51a3.009,3.009,0,0,0-3-3H49V46h1a2.734,2.734,0,0,0,.5-.05l2.82,2.01a1.042,1.042,0,0,0,.58.18,1.024,1.024,0,0,0,.71-.29l4.24-4.24a1,1,0,0,0,.1-1.29l-2.33-3.27a11.451,11.451,0,0,0,.58-1.4l3.96-.66A1,1,0,0,0,62,36V30a1,1,0,0,0-.84-.99ZM40,27.29a6.959,6.959,0,0,1,10.95,4.88A3.012,3.012,0,0,0,50,32H40ZM21,4C32,4,38,6.64,38,8s-6,4-17,4S4,9.36,4,8,10,4,21,4ZM4,10.82C7.29,12.91,14.16,14,21,14s13.71-1.09,17-3.18V18c0,1.36-6,4-17,4S4,19.36,4,18ZM11,35v6.14C5.93,40.18,4,38.73,4,38V30.82a21.482,21.482,0,0,0,7.56,2.44A2.985,2.985,0,0,0,11,35ZM4,28V20.82C7.29,22.91,14.16,24,21,24s13.71-1.09,17-3.18V28c0,1.36-6,4-17,4S4,29.36,4,28Zm34,2.82V32H35.52A12.469,12.469,0,0,0,38,30.82ZM50,50a1,1,0,0,1,1,1v8a1,1,0,0,1-1,1H14a1,1,0,0,1-1-1V51a1,1,0,0,1,1-1ZM17,48V46h4v2Zm6,0V46H41v2Zm20,0V46h4v2Zm8-5a1,1,0,0,1-1,1H14a1,1,0,0,1-1-1V35a1,1,0,0,1,1-1H50a1,1,0,0,1,1,1Zm9-7.85-3.72.62a1.025,1.025,0,0,0-.8.7,11.81,11.81,0,0,1-.9,2.2.976.976,0,0,0,.07,1.05l2.18,3.07-3.04,3.04-1.42-1.01A2.972,2.972,0,0,0,53,43V35a2.844,2.844,0,0,0-.1-.72A9.318,9.318,0,0,0,53,33a8.98,8.98,0,0,0-13-8.05V21.71a4.928,4.928,0,0,1,.54-.19,1.028,1.028,0,0,0,.69-.8L41.85,17h4.3l.62,3.72a1.025,1.025,0,0,0,.7.8,12.1,12.1,0,0,1,2.2.9,1,1,0,0,0,1.05-.07l3.07-2.18,3.04,3.04-2.18,3.07a.976.976,0,0,0-.07,1.05,11.81,11.81,0,0,1,.9,2.2,1.025,1.025,0,0,0,.8.7l3.72.62Z"/>
      <path id="Trazado_818761" data-name="Trazado 818761" d="M6,48H4v8a1,1,0,0,0,1,1H9V55H6Z"/>
      <path id="Trazado_818762" data-name="Trazado 818762" d="M61,4H45V6H60v9.586l-2.707,2.707,1.414,1.414,3-3A1,1,0,0,0,62,16V5A1,1,0,0,0,61,4Z"/>
      <path id="Trazado_818763" data-name="Trazado 818763" d="M41,4h2V6H41Z"/>
      <path id="Trazado_818764" data-name="Trazado 818764" d="M4,44H6v2H4Z"/>
    </g>
  </g>
</svg>
