<svg xmlns="http://www.w3.org/2000/svg" xmlns:xlink="http://www.w3.org/1999/xlink" width="92" height="92" viewBox="0 0 92 92">
  <defs>
    <clipPath id="clip-path">
      <path id="path1209" d="M0-682.665H57.061V-625.6H0Z" transform="translate(0 682.665)"/>
    </clipPath>
  </defs>
  <g id="Grupo_1071720" data-name="Grupo 1071720" transform="translate(0.167 -0.029)">
    <path id="Trazado_813500" data-name="Trazado 813500" d="M46,0A46,46,0,1,0,92,46,46,46,0,0,0,46,0Z" transform="translate(-0.167 0.029)" fill="#949af8"/>
    <g id="g1203" transform="translate(17.833 700.694)">
      <g id="g1205" transform="translate(0 -682.665)">
        <g id="g1207" clip-path="url(#clip-path)">
          <g id="g1213" transform="translate(0.836 1.48)">
            <path id="path1215" d="M-588.948-593.146h-52.046a1.672,1.672,0,0,1-1.672-1.672v-50.757a1.672,1.672,0,0,1,1.672-1.672h52.046a1.672,1.672,0,0,1,1.672,1.672v50.757a1.672,1.672,0,0,1-1.672,1.672" transform="translate(642.665 647.246)" fill="#faf7f7"/>
          </g>
          <g id="g1217" transform="translate(0.836 1.48)">
            <path id="path1219" d="M-588.948,0h-1.672V49.085a1.672,1.672,0,0,1-1.672,1.672h-50.374v1.672a1.672,1.672,0,0,0,1.672,1.672h52.046a1.672,1.672,0,0,0,1.672-1.672V1.672A1.672,1.672,0,0,0-588.948,0" transform="translate(642.665)" fill="#f3eae6"/>
          </g>
          <g id="g1221" transform="translate(0.836 1.48)">
            <path id="path1223" d="M-607.276-295.421v-25.273a1.672,1.672,0,0,0-1.672-1.672h-52.046a1.672,1.672,0,0,0-1.672,1.672v25.273Z" transform="translate(662.665 322.366)" fill="#ffe177"/>
          </g>
          <g id="g1225" transform="translate(51.21 1.48)">
            <path id="path1227" d="M-36.657,0H-40a1.672,1.672,0,0,1,1.672,1.672V26.945h3.343V1.672A1.672,1.672,0,0,0-36.657,0" transform="translate(40)" fill="#ffd15b"/>
          </g>
          <g id="g1229" transform="translate(0.836 1.48)">
            <path id="path1231" d="M-214,0h-17.847a1.672,1.672,0,0,0-1.672,1.672V52.428a1.672,1.672,0,0,0,1.672,1.672H-214Z" transform="translate(233.521)" fill="#c8effe"/>
          </g>
          <g id="g1233" transform="translate(0.836 1.48)">
            <path id="path1235" d="M-607.276-124.087v-9.646a1.672,1.672,0,0,0-1.672-1.672h-52.046a1.672,1.672,0,0,0-1.672,1.672v9.646Z" transform="translate(662.665 135.405)" fill="#b9acac"/>
          </g>
          <g id="g1237" transform="translate(27.246 1.48)">
            <path id="path1239" d="M-299.387,0h-27.307V11.318h28.978V1.672A1.672,1.672,0,0,0-299.387,0" transform="translate(326.694)" fill="#cdbfba"/>
          </g>
          <g id="g1241" transform="translate(51.21 1.48)">
            <path id="path1243" d="M-36.657,0H-40a1.672,1.672,0,0,1,1.672,1.672v9.646h3.343V1.672A1.672,1.672,0,0,0-36.657,0" transform="translate(40)" fill="#b9acac"/>
          </g>
          <g id="g1245" transform="translate(4.538 5.326)">
            <path id="path1247" d="M-36.657-18.328a1.672,1.672,0,0,1-1.672,1.672A1.672,1.672,0,0,1-40-18.328,1.672,1.672,0,0,1-38.328-20a1.672,1.672,0,0,1,1.672,1.672" transform="translate(40 20)" fill="#fe99a0"/>
          </g>
          <g id="g1249" transform="translate(11.395 5.326)">
            <path id="path1251" d="M-36.657-18.328a1.672,1.672,0,0,1-1.672,1.672A1.672,1.672,0,0,1-40-18.328,1.672,1.672,0,0,1-38.328-20a1.672,1.672,0,0,1,1.672,1.672" transform="translate(40 20)" fill="#62dbfb"/>
          </g>
          <g id="g1253" transform="translate(18.252 5.326)">
            <path id="path1255" d="M-36.657-18.328a1.672,1.672,0,0,1-1.672,1.672A1.672,1.672,0,0,1-40-18.328,1.672,1.672,0,0,1-38.328-20a1.672,1.672,0,0,1,1.672,1.672" transform="translate(40 20)" fill="#ffe177"/>
          </g>
          <g id="g1257" transform="translate(5.233 18.865)">
            <path id="path1259" d="M-107.559-43.113h-8.92a.89.89,0,0,1-.89-.89v-2.152a.89.89,0,0,1,.89-.89h8.92a.89.89,0,0,1,.89.89V-44a.89.89,0,0,1-.89.89" transform="translate(117.369 47.045)" fill="#01d0fb"/>
          </g>
          <g id="g1261" transform="translate(5.233 27.743)">
            <path id="path1263" d="M-107.559-43.113h-8.92a.89.89,0,0,1-.89-.89v-2.152a.89.89,0,0,1,.89-.89h8.92a.89.89,0,0,1,.89.89V-44a.89.89,0,0,1-.89.89" transform="translate(117.369 47.045)" fill="#01d0fb"/>
          </g>
          <g id="g1265" transform="translate(5.233 36.62)">
            <path id="path1267" d="M-107.559-43.113h-8.92a.89.89,0,0,1-.89-.89v-2.152a.89.89,0,0,1,.89-.89h8.92a.89.89,0,0,1,.89.89V-44a.89.89,0,0,1-.89.89" transform="translate(117.369 47.045)" fill="#01d0fb"/>
          </g>
          <g id="g1269" transform="translate(5.233 45.498)">
            <path id="path1271" d="M-107.559-43.113h-8.92a.89.89,0,0,1-.89-.89v-2.152a.89.89,0,0,1,.89-.89h8.92a.89.89,0,0,1,.89.89V-44a.89.89,0,0,1-.89.89" transform="translate(117.369 47.045)" fill="#01d0fb"/>
          </g>
          <g id="g1273" transform="translate(26.859 34.194)">
            <path id="path1275" d="M-53.125-182.009h-4.845v-15.714a.887.887,0,0,1,.887-.887h3.072a.887.887,0,0,1,.887.887Z" transform="translate(57.971 198.61)" fill="#fd8087"/>
          </g>
          <g id="g1277" transform="translate(35.811 38.652)">
            <path id="path1279" d="M-53.125-133.134h-4.845V-144.39a.887.887,0,0,1,.887-.887h3.072a.887.887,0,0,1,.887.887Z" transform="translate(57.971 145.277)" fill="#01d0fb"/>
          </g>
          <g id="g1281" transform="translate(44.763 43.11)">
            <path id="path1283" d="M-53.125-84.259h-4.845v-6.8a.887.887,0,0,1,.887-.887h3.072a.887.887,0,0,1,.887.887Z" transform="translate(57.971 91.944)" fill="#97da7b"/>
          </g>
          <g id="g1285" transform="translate(41.51 16.338)">
            <path id="path1287" d="M-18.328-9.164a.836.836,0,0,1-.836.836A.836.836,0,0,1-20-9.164.836.836,0,0,1-19.164-10a.836.836,0,0,1,.836.836" transform="translate(20 10)"/>
          </g>
          <g id="g1289" transform="translate(41.51 19.995)">
            <path id="path1291" d="M-18.328-9.164a.836.836,0,0,1-.836.836A.836.836,0,0,1-20-9.164.836.836,0,0,1-19.164-10a.836.836,0,0,1,.836.836" transform="translate(20 10)"/>
          </g>
          <g id="g1293" transform="translate(41.51 23.653)">
            <path id="path1295" d="M-18.328-9.164a.836.836,0,0,1-.836.836A.836.836,0,0,1-20-9.164.836.836,0,0,1-19.164-10a.836.836,0,0,1,.836.836" transform="translate(20 10)"/>
          </g>
          <g id="g1297" transform="translate(3.702 4.49)">
            <path id="path1299" d="M-47.492-30a2.51,2.51,0,0,1,2.508,2.508,2.51,2.51,0,0,1-2.508,2.508A2.51,2.51,0,0,1-50-27.492,2.51,2.51,0,0,1-47.492-30Zm0,3.343a.837.837,0,0,0,.836-.836.837.837,0,0,0-.836-.836.837.837,0,0,0-.836.836A.837.837,0,0,0-47.492-26.657Z" transform="translate(50 30)"/>
          </g>
          <g id="g1301" transform="translate(10.559 4.49)">
            <path id="path1303" d="M-47.492-30a2.51,2.51,0,0,1,2.508,2.508,2.51,2.51,0,0,1-2.508,2.508A2.51,2.51,0,0,1-50-27.492,2.51,2.51,0,0,1-47.492-30Zm0,3.343a.837.837,0,0,0,.836-.836.837.837,0,0,0-.836-.836.837.837,0,0,0-.836.836A.837.837,0,0,0-47.492-26.657Z" transform="translate(50 30)"/>
          </g>
          <g id="g1305" transform="translate(17.416 4.49)">
            <path id="path1307" d="M-47.492-30a2.51,2.51,0,0,1,2.508,2.508,2.51,2.51,0,0,1-2.508,2.508A2.51,2.51,0,0,1-50-27.492,2.51,2.51,0,0,1-47.492-30Zm0,3.343a.837.837,0,0,0,.836-.836.837.837,0,0,0-.836-.836.837.837,0,0,0-.836.836A.837.837,0,0,0-47.492-26.657Z" transform="translate(50 30)"/>
          </g>
          <g id="g1309" transform="translate(0 0.644)">
            <path id="path1311" d="M-376.163-601.475h-31.8a2.51,2.51,0,0,1-2.508-2.508v-50.757a2.51,2.51,0,0,1,2.508-2.508h5.374a.836.836,0,0,1,.836.836.836.836,0,0,1-.836.836h-5.374a.837.837,0,0,0-.836.836v50.757a.837.837,0,0,0,.836.836h31.8a.836.836,0,0,1,.836.836A.836.836,0,0,1-376.163-601.475Z" transform="translate(410.472 657.246)"/>
          </g>
          <g id="g1313" transform="translate(10.389 0.644)">
            <path id="path1315" d="M34.164,45.772h-16.9a.836.836,0,1,1,0-1.672h16.9A.837.837,0,0,0,35,43.264V-7.492a.837.837,0,0,0-.836-.836H-9.164A.836.836,0,0,1-10-9.164.836.836,0,0,1-9.164-10H34.164a2.51,2.51,0,0,1,2.508,2.508V43.264A2.51,2.51,0,0,1,34.164,45.772Z" transform="translate(10 10)"/>
          </g>
          <g id="g1317" transform="translate(0.111 11.962)">
            <path id="path1319" d="M45.89-8.328H-9.164A.836.836,0,0,1-10-9.164.836.836,0,0,1-9.164-10H45.89a.836.836,0,0,1,.836.836A.836.836,0,0,1,45.89-8.328Z" transform="translate(10 10)"/>
          </g>
          <g id="g1321" transform="translate(26.41 0.644)">
            <path id="path1323" d="M-9.164,2.814A.836.836,0,0,1-10,1.978V-9.164A.836.836,0,0,1-9.164-10a.836.836,0,0,1,.836.836V1.978A.836.836,0,0,1-9.164,2.814Z" transform="translate(10 10)"/>
          </g>
          <g id="g1325" transform="translate(33.255 6.162)">
            <path id="path1327" d="M4.983-8.328H-9.164A.836.836,0,0,1-10-9.164.836.836,0,0,1-9.164-10H4.983a.836.836,0,0,1,.836.836A.836.836,0,0,1,4.983-8.328Z" transform="translate(10 10)"/>
          </g>
          <g id="g1329" transform="translate(4.397 18.029)">
            <path id="path1331" d="M-116.723-51.441h-8.92a1.728,1.728,0,0,1-1.726-1.726v-2.152a1.728,1.728,0,0,1,1.726-1.726h8.92A1.728,1.728,0,0,1-115-55.319v2.152A1.728,1.728,0,0,1-116.723-51.441Zm-8.92-3.932-.054,2.206,8.974.054a.055.055,0,0,0,.054-.054v-2.152Z" transform="translate(127.369 57.045)"/>
          </g>
          <g id="g1333" transform="translate(4.397 26.907)">
            <path id="path1335" d="M-116.723-51.441h-8.92a1.728,1.728,0,0,1-1.726-1.726v-2.152a1.728,1.728,0,0,1,1.726-1.726h8.92A1.728,1.728,0,0,1-115-55.319v2.152A1.728,1.728,0,0,1-116.723-51.441Zm-8.92-3.932-.054,2.206,8.974.054a.055.055,0,0,0,.054-.054v-2.152Z" transform="translate(127.369 57.045)"/>
          </g>
          <g id="g1337" transform="translate(4.397 35.784)">
            <path id="path1339" d="M-116.723-51.441h-8.92a1.728,1.728,0,0,1-1.726-1.726v-2.152a1.728,1.728,0,0,1,1.726-1.726h8.92A1.728,1.728,0,0,1-115-55.319v2.152A1.728,1.728,0,0,1-116.723-51.441Zm-8.92-3.932-.054,2.206,8.974.054a.055.055,0,0,0,.054-.054v-2.152Z" transform="translate(127.369 57.045)"/>
          </g>
          <g id="g1341" transform="translate(4.397 44.662)">
            <path id="path1343" d="M-116.723-51.441h-8.92a1.728,1.728,0,0,1-1.726-1.726v-2.152a1.728,1.728,0,0,1,1.726-1.726h8.92A1.728,1.728,0,0,1-115-55.319v2.152A1.728,1.728,0,0,1-116.723-51.441Zm-8.92-3.932-.054,2.206,8.974.054a.055.055,0,0,0,.054-.054v-2.152Z" transform="translate(127.369 57.045)"/>
          </g>
          <g id="g1345" transform="translate(26.024 33.358)">
            <path id="path1347" d="M-62.289-190.338h-4.845a.836.836,0,0,1-.836-.836v-15.714a1.725,1.725,0,0,1,1.723-1.723h3.072a1.725,1.725,0,0,1,1.723,1.723v15.714A.836.836,0,0,1-62.289-190.338Zm-4.007-1.672h3.171v-14.878l-3.123-.051Z" transform="translate(67.97 208.61)"/>
          </g>
          <g id="g1349" transform="translate(34.975 37.816)">
            <path id="path1351" d="M-62.289-141.462h-4.845a.836.836,0,0,1-.836-.836v-11.256a1.725,1.725,0,0,1,1.723-1.723h3.072a1.725,1.725,0,0,1,1.723,1.723V-142.3A.836.836,0,0,1-62.289-141.462Zm-4.006-1.672h3.17v-10.42l-3.123-.051Z" transform="translate(67.97 155.277)"/>
          </g>
          <g id="g1353" transform="translate(43.927 42.274)">
            <path id="path1355" d="M-62.289-92.587h-4.845a.836.836,0,0,1-.836-.836v-6.8a1.725,1.725,0,0,1,1.723-1.723h3.072a1.725,1.725,0,0,1,1.723,1.723v6.8A.836.836,0,0,1-62.289-92.587Zm-4-1.672h3.168v-5.962l-3.123-.051Z" transform="translate(67.97 101.944)"/>
          </g>
          <g id="g1357" transform="translate(23.197 49.959)">
            <path id="path1359" d="M19.237-8.328h-28.4A.836.836,0,0,1-10-9.164.836.836,0,0,1-9.164-10h28.4a.836.836,0,0,1,.836.836A.836.836,0,0,1,19.237-8.328Z" transform="translate(10 10)"/>
          </g>
          <g id="g1361" transform="translate(44.324 16.338)">
            <path id="path1363" d="M-2.863-8.328h-6.3A.836.836,0,0,1-10-9.164.836.836,0,0,1-9.164-10h6.3a.836.836,0,0,1,.836.836A.836.836,0,0,1-2.863-8.328Z" transform="translate(10 10)"/>
          </g>
          <g id="g1365" transform="translate(44.324 19.995)">
            <path id="path1367" d="M-2.863-8.328h-6.3A.836.836,0,0,1-10-9.164.836.836,0,0,1-9.164-10h6.3a.836.836,0,0,1,.836.836A.836.836,0,0,1-2.863-8.328Z" transform="translate(10 10)"/>
          </g>
          <g id="g1369" transform="translate(44.324 23.653)">
            <path id="path1371" d="M-2.863-8.328h-6.3A.836.836,0,0,1-10-9.164.836.836,0,0,1-9.164-10h6.3a.836.836,0,0,1,.836.836A.836.836,0,0,1-2.863-8.328Z" transform="translate(10 10)"/>
          </g>
          <g id="g1373" transform="translate(19.519 11.962)">
            <path id="path1375" d="M-9.164,34.454A.836.836,0,0,1-10,33.618V-9.164A.836.836,0,0,1-9.164-10a.836.836,0,0,1,.836.836V33.618A.836.836,0,0,1-9.164,34.454Z" transform="translate(10 10)"/>
          </g>
          <g id="g1377" transform="translate(19.63 27.694)">
            <path id="path1379" d="M26.372-8.328H-9.164A.836.836,0,0,1-10-9.164.836.836,0,0,1-9.164-10H26.372a.836.836,0,0,1,.836.836A.836.836,0,0,1,26.372-8.328Z" transform="translate(10 10)"/>
          </g>
          <g id="g1381" transform="translate(25.132 16.338)">
            <path id="path1383" d="M-9.164-131.687a.836.836,0,0,1-.836-.836v-11.251a.836.836,0,0,1,.836-.836.836.836,0,0,1,.836.836v11.251A.836.836,0,0,1-9.164-131.687Z" transform="translate(10 144.61)"/>
          </g>
          <g id="g1385" transform="translate(29.027 19.315)">
            <path id="path1387" d="M-9.164-99.043A.836.836,0,0,1-10-99.879v-8.274a.836.836,0,0,1,.836-.836.836.836,0,0,1,.836.836v8.274A.836.836,0,0,1-9.164-99.043Z" transform="translate(10 108.989)"/>
          </g>
          <g id="g1389" transform="translate(32.922 21.962)">
            <path id="path1391" d="M-9.164-70.03A.836.836,0,0,1-10-70.866v-5.628a.836.836,0,0,1,.836-.836.836.836,0,0,1,.836.836v5.628A.836.836,0,0,1-9.164-70.03Z" transform="translate(10 77.329)"/>
          </g>
          <g id="g1393" transform="translate(36.817 24.301)">
            <path id="path1395" d="M-9.164-44.382A.836.836,0,0,1-10-45.218v-3.288a.836.836,0,0,1,.836-.836.836.836,0,0,1,.836.836v3.288A.836.836,0,0,1-9.164-44.382Z" transform="translate(10 49.343)"/>
          </g>
        </g>
      </g>
    </g>
  </g>
</svg>
