<svg xmlns="http://www.w3.org/2000/svg" xmlns:xlink="http://www.w3.org/1999/xlink" width="550" height="447" viewBox="0 0 550 447">
  <defs>
    <filter id="Trazado_820005" x="0" y="0" width="108" height="106" filterUnits="userSpaceOnUse">
      <feOffset dx="7" dy="10" input="SourceAlpha"/>
      <feGaussianBlur stdDeviation="7.5" result="blur"/>
      <feFlood flood-opacity="0.161"/>
      <feComposite operator="in" in2="blur"/>
      <feComposite in="SourceGraphic"/>
    </filter>
    <filter id="Trazado_820007" x="0" y="341" width="108" height="106" filterUnits="userSpaceOnUse">
      <feOffset dx="7" dy="10" input="SourceAlpha"/>
      <feGaussianBlur stdDeviation="7.5" result="blur-2"/>
      <feFlood flood-opacity="0.161"/>
      <feComposite operator="in" in2="blur-2"/>
      <feComposite in="SourceGraphic"/>
    </filter>
    <filter id="Trazado_820009" x="32" y="85" width="108" height="106" filterUnits="userSpaceOnUse">
      <feOffset dx="7" dy="10" input="SourceAlpha"/>
      <feGaussianBlur stdDeviation="7.5" result="blur-3"/>
      <feFlood flood-opacity="0.161"/>
      <feComposite operator="in" in2="blur-3"/>
      <feComposite in="SourceGraphic"/>
    </filter>
    <filter id="Trazado_820011" x="32" y="256" width="108" height="106" filterUnits="userSpaceOnUse">
      <feOffset dx="7" dy="10" input="SourceAlpha"/>
      <feGaussianBlur stdDeviation="7.5" result="blur-4"/>
      <feFlood flood-opacity="0.161"/>
      <feComposite operator="in" in2="blur-4"/>
      <feComposite in="SourceGraphic"/>
    </filter>
    <filter id="Trazado_820013" x="32" y="171" width="245" height="106" filterUnits="userSpaceOnUse">
      <feOffset dx="7" dy="10" input="SourceAlpha"/>
      <feGaussianBlur stdDeviation="7.5" result="blur-5"/>
      <feFlood flood-opacity="0.161"/>
      <feComposite operator="in" in2="blur-5"/>
      <feComposite in="SourceGraphic"/>
    </filter>
    <filter id="Trazado_820015" x="305" y="171" width="245" height="106" filterUnits="userSpaceOnUse">
      <feOffset dx="7" dy="10" input="SourceAlpha"/>
      <feGaussianBlur stdDeviation="7.5" result="blur-6"/>
      <feFlood flood-opacity="0.161"/>
      <feComposite operator="in" in2="blur-6"/>
      <feComposite in="SourceGraphic"/>
    </filter>
    <filter id="Trazado_820017" x="247" y="171" width="84" height="106" filterUnits="userSpaceOnUse">
      <feOffset dx="7" dy="10" input="SourceAlpha"/>
      <feGaussianBlur stdDeviation="7.5" result="blur-7"/>
      <feFlood flood-opacity="0.161"/>
      <feComposite operator="in" in2="blur-7"/>
      <feComposite in="SourceGraphic"/>
    </filter>
  </defs>
  <g id="Grupo_1072792" data-name="Grupo 1072792" transform="translate(-532.5 -3886.5)">
    <g transform="matrix(1, 0, 0, 1, 532.5, 3886.5)" filter="url(#Trazado_820005)">
      <path id="Trazado_820005-2" data-name="Trazado 820005" d="M9,0H54a9,9,0,0,1,9,9V52a9,9,0,0,1-9,9H9a9,9,0,0,1-9-9V9A9,9,0,0,1,9,0Z" transform="translate(15.5 12.5)" fill="#949af8"/>
    </g>
    <path id="Trazado_820006" data-name="Trazado 820006" d="M5.508,4.742H4.355V20.016H5.508v2.393H1.055V2.34H5.508Z" transform="translate(571 3918)" fill="#12263f"/>
    <g transform="matrix(1, 0, 0, 1, 532.5, 3886.5)" filter="url(#Trazado_820007)">
      <path id="Trazado_820007-2" data-name="Trazado 820007" d="M9,0H54a9,9,0,0,1,9,9V52a9,9,0,0,1-9,9H9a9,9,0,0,1-9-9V9A9,9,0,0,1,9,0Z" transform="translate(15.5 353.5)" fill="#949af8"/>
    </g>
    <path id="Trazado_820008" data-name="Trazado 820008" d="M.137,2.34H4.59V22.408H.137V20.016H1.3V4.742H.137Z" transform="translate(571 4259)" fill="#12263f"/>
    <g transform="matrix(1, 0, 0, 1, 532.5, 3886.5)" filter="url(#Trazado_820009)">
      <path id="Trazado_820009-2" data-name="Trazado 820009" d="M9,0H54a9,9,0,0,1,9,9V52a9,9,0,0,1-9,9H9a9,9,0,0,1-9-9V9A9,9,0,0,1,9,0Z" transform="translate(47.5 97.5)" fill="#949af8"/>
    </g>
    <path id="Trazado_820010" data-name="Trazado 820010" d="M5.488,22.516a4.333,4.333,0,0,1-3.516-4.541V16.041q0-1.973-1.582-1.973V11.852q1.582,0,1.582-1.982V7.818a4.48,4.48,0,0,1,.913-2.842A5.006,5.006,0,0,1,5.488,3.4L6.1,5.123q-1.23.469-1.279,2.627V9.869a3.167,3.167,0,0,1-1.807,3.086,3.175,3.175,0,0,1,1.807,3.1V18.16q.049,2.158,1.279,2.627Z" transform="translate(603 4003)" fill="#12263f"/>
    <g transform="matrix(1, 0, 0, 1, 532.5, 3886.5)" filter="url(#Trazado_820011)">
      <path id="Trazado_820011-2" data-name="Trazado 820011" d="M9,0H54a9,9,0,0,1,9,9V52a9,9,0,0,1-9,9H9a9,9,0,0,1-9-9V9A9,9,0,0,1,9,0Z" transform="translate(47.5 268.5)" fill="#949af8"/>
    </g>
    <path id="Trazado_820012" data-name="Trazado 820012" d="M.4,20.787q1.23-.469,1.279-2.627V16.041A3.153,3.153,0,0,1,3.5,12.955,3.153,3.153,0,0,1,1.68,9.869V7.75Q1.631,5.592.4,5.123L1.016,3.4A4.916,4.916,0,0,1,3.643,5a4.58,4.58,0,0,1,.889,2.905V9.869q0,1.982,1.582,1.982v2.217q-1.582,0-1.582,1.963v2.08a4.319,4.319,0,0,1-3.516,4.4Z" transform="translate(603 4174)" fill="#12263f"/>
    <g transform="matrix(1, 0, 0, 1, 532.5, 3886.5)" filter="url(#Trazado_820013)">
      <path id="Trazado_820013-2" data-name="Trazado 820013" d="M9,0H191a9,9,0,0,1,9,9V52a9,9,0,0,1-9,9H9a9,9,0,0,1-9-9V9A9,9,0,0,1,9,0Z" transform="translate(47.5 183.5)" fill="#949af8"/>
    </g>
    <path id="Trazado_820014" data-name="Trazado 820014" d="M58.307,8.434l.107,1.24a3.583,3.583,0,0,1,3.018-1.436,3.015,3.015,0,0,1,2.466.986,4.7,4.7,0,0,1,.845,2.969V19h-3.3V12.33a1.783,1.783,0,0,0-.322-1.177,1.491,1.491,0,0,0-1.172-.376,1.569,1.569,0,0,0-1.436.762V19H55.221V8.434Zm7.842,5.186a6.236,6.236,0,0,1,.615-2.817,4.4,4.4,0,0,1,1.768-1.9,5.323,5.323,0,0,1,2.705-.664,4.858,4.858,0,0,1,3.74,1.47,5.64,5.64,0,0,1,1.367,4v.117a5.472,5.472,0,0,1-1.372,3.921,4.871,4.871,0,0,1-3.716,1.45,4.927,4.927,0,0,1-3.623-1.353,5.29,5.29,0,0,1-1.475-3.667Zm3.291.205a3.932,3.932,0,0,0,.459,2.148,1.529,1.529,0,0,0,1.357.684q1.758,0,1.8-2.705v-.332q0-2.842-1.816-2.842-1.65,0-1.787,2.451ZM80.9,8.434l.107,1.24a3.633,3.633,0,0,1,3.018-1.436A2.675,2.675,0,0,1,86.734,9.83,3.517,3.517,0,0,1,89.84,8.238q3.213,0,3.3,3.887V19h-3.3V12.33a2.014,2.014,0,0,0-.273-1.182,1.164,1.164,0,0,0-1-.371,1.559,1.559,0,0,0-1.455.869l.01.137V19h-3.3V12.35a2.117,2.117,0,0,0-.264-1.2,1.161,1.161,0,0,0-1.006-.371,1.578,1.578,0,0,0-1.445.869V19H77.818V8.434ZM104.83,13.8a6.44,6.44,0,0,1-1.074,3.994,3.6,3.6,0,0,1-3.027,1.4,3.122,3.122,0,0,1-2.6-1.279L97.994,19H95.045V4h3.291V9.283a3.013,3.013,0,0,1,2.373-1.045,3.6,3.6,0,0,1,3.047,1.416,6.473,6.473,0,0,1,1.074,3.984Zm-3.3-.21a4.3,4.3,0,0,0-.405-2.169,1.366,1.366,0,0,0-1.245-.648,1.576,1.576,0,0,0-1.543.848v4.192a1.585,1.585,0,0,0,1.563.838,1.4,1.4,0,0,0,1.475-1.131A8.121,8.121,0,0,0,101.529,13.595Zm11.143-2.183-1.084-.078a1.947,1.947,0,0,0-1.992.977V19H106.3V8.434h3.086l.107,1.357a2.548,2.548,0,0,1,2.314-1.553,3.209,3.209,0,0,1,.918.117Zm6.113,7.783a5.432,5.432,0,0,1-3.936-1.45,5.008,5.008,0,0,1-1.5-3.774V13.7a6.489,6.489,0,0,1,.6-2.861A4.395,4.395,0,0,1,115.7,8.917a5.292,5.292,0,0,1,2.734-.679,4.574,4.574,0,0,1,3.516,1.382,5.43,5.43,0,0,1,1.289,3.853v1.279H116.7a2.372,2.372,0,0,0,.771,1.4,2.3,2.3,0,0,0,1.543.508,2.958,2.958,0,0,0,2.441-1.094l1.5,1.777a4.2,4.2,0,0,1-1.743,1.353A5.891,5.891,0,0,1,118.785,19.2Zm-.371-8.418q-1.445,0-1.719,1.914h3.32v-.254a1.63,1.63,0,0,0-.4-1.226A1.593,1.593,0,0,0,118.414,10.777Z" transform="translate(591 4089)" fill="#12263f"/>
    <g transform="matrix(1, 0, 0, 1, 532.5, 3886.5)" filter="url(#Trazado_820015)">
      <path id="Trazado_820015-2" data-name="Trazado 820015" d="M9,0H191a9,9,0,0,1,9,9V52a9,9,0,0,1-9,9H9a9,9,0,0,1-9-9V9A9,9,0,0,1,9,0Z" transform="translate(320.5 183.5)" fill="#949af8"/>
    </g>
    <path id="Trazado_820016" data-name="Trazado 820016" d="M38.092,14.176V19H34.664V4.781h5.674a6.608,6.608,0,0,1,2.886.6,4.526,4.526,0,0,1,1.943,1.709,4.667,4.667,0,0,1,.688,2.515,4.114,4.114,0,0,1-1.489,3.325,6.179,6.179,0,0,1-4.087,1.245Zm0-2.646h2.246a2.118,2.118,0,0,0,1.519-.5,1.85,1.85,0,0,0,.522-1.406,2.287,2.287,0,0,0-.537-1.592,1.9,1.9,0,0,0-1.465-.605H38.092ZM52.516,19.2a5.432,5.432,0,0,1-3.936-1.45,5.008,5.008,0,0,1-1.5-3.774V13.7a6.489,6.489,0,0,1,.6-2.861A4.395,4.395,0,0,1,49.43,8.917a5.292,5.292,0,0,1,2.734-.679A4.574,4.574,0,0,1,55.68,9.62a5.43,5.43,0,0,1,1.289,3.853v1.279H50.426a2.372,2.372,0,0,0,.771,1.4,2.3,2.3,0,0,0,1.543.508,2.958,2.958,0,0,0,2.441-1.094l1.5,1.777a4.2,4.2,0,0,1-1.743,1.353A5.891,5.891,0,0,1,52.516,19.2Zm-.371-8.418q-1.445,0-1.719,1.914h3.32v-.254a1.63,1.63,0,0,0-.4-1.226A1.593,1.593,0,0,0,52.145,10.777Zm5.732,2.861a6.455,6.455,0,0,1,1.084-3.955,3.568,3.568,0,0,1,3.027-1.445,3.035,3.035,0,0,1,2.383,1.113V4h3.3V19H64.713l-.166-1.133A3.116,3.116,0,0,1,61.969,19.2,3.562,3.562,0,0,1,58.98,17.75,6.659,6.659,0,0,1,57.877,13.639Zm3.291.205q0,2.813,1.641,2.813a1.62,1.62,0,0,0,1.563-.918V11.715a1.576,1.576,0,0,0-1.543-.937q-1.523,0-1.65,2.461Zm14.766-2.432-1.084-.078a1.947,1.947,0,0,0-1.992.977V19H69.566V8.434h3.086l.107,1.357a2.548,2.548,0,0,1,2.314-1.553,3.209,3.209,0,0,1,.918.117Zm.42,2.207a6.236,6.236,0,0,1,.615-2.817,4.4,4.4,0,0,1,1.768-1.9,5.323,5.323,0,0,1,2.705-.664,4.858,4.858,0,0,1,3.74,1.47,5.64,5.64,0,0,1,1.367,4v.117a5.472,5.472,0,0,1-1.372,3.921,4.871,4.871,0,0,1-3.716,1.45,4.927,4.927,0,0,1-3.623-1.353,5.29,5.29,0,0,1-1.475-3.667Zm3.291.205a3.932,3.932,0,0,0,.459,2.148,1.529,1.529,0,0,0,1.357.684q1.758,0,1.8-2.705v-.332q0-2.842-1.816-2.842-1.65,0-1.787,2.451Zm16.914.352V19H93.131V4.781H98.8a6.608,6.608,0,0,1,2.886.6,4.526,4.526,0,0,1,1.943,1.709,4.667,4.667,0,0,1,.688,2.515,4.114,4.114,0,0,1-1.489,3.325,6.179,6.179,0,0,1-4.087,1.245Zm0-2.646H98.8a2.118,2.118,0,0,0,1.519-.5,1.85,1.85,0,0,0,.522-1.406,2.287,2.287,0,0,0-.537-1.592,1.9,1.9,0,0,0-1.465-.605H96.559ZM110.982,19.2a5.432,5.432,0,0,1-3.936-1.45,5.008,5.008,0,0,1-1.5-3.774V13.7a6.489,6.489,0,0,1,.6-2.861A4.395,4.395,0,0,1,107.9,8.917a5.292,5.292,0,0,1,2.734-.679,4.574,4.574,0,0,1,3.516,1.382,5.43,5.43,0,0,1,1.289,3.853v1.279h-6.543a2.372,2.372,0,0,0,.771,1.4,2.3,2.3,0,0,0,1.543.508,2.958,2.958,0,0,0,2.441-1.094l1.5,1.777a4.2,4.2,0,0,1-1.743,1.353A5.891,5.891,0,0,1,110.982,19.2Zm-.371-8.418q-1.445,0-1.719,1.914h3.32v-.254a1.63,1.63,0,0,0-.4-1.226A1.593,1.593,0,0,0,110.611,10.777Zm-.039-6.787h3.477l-2.715,3.066-2.686,0Zm12.578,7.422-1.084-.078a1.947,1.947,0,0,0-1.992.977V19h-3.291V8.434h3.086l.107,1.357a2.548,2.548,0,0,1,2.314-1.553,3.209,3.209,0,0,1,.918.117Zm6.113,7.783a5.432,5.432,0,0,1-3.936-1.45,5.008,5.008,0,0,1-1.5-3.774V13.7a6.489,6.489,0,0,1,.6-2.861,4.395,4.395,0,0,1,1.753-1.919,5.292,5.292,0,0,1,2.734-.679,4.574,4.574,0,0,1,3.516,1.382,5.43,5.43,0,0,1,1.289,3.853v1.279h-6.543a2.372,2.372,0,0,0,.771,1.4,2.3,2.3,0,0,0,1.543.508,2.958,2.958,0,0,0,2.441-1.094l1.5,1.777a4.2,4.2,0,0,1-1.743,1.353A5.891,5.891,0,0,1,129.264,19.2Zm-.371-8.418q-1.445,0-1.719,1.914h3.32v-.254a1.63,1.63,0,0,0-.4-1.226A1.593,1.593,0,0,0,128.893,10.777Zm10.029,5.684h4.814V19h-8.975V17.164l4.688-6.191h-4.482V8.434h8.662v1.777Z" transform="translate(864 4089)" fill="#12263f"/>
    <g transform="matrix(1, 0, 0, 1, 532.5, 3886.5)" filter="url(#Trazado_820017)">
      <path id="Trazado_820017-2" data-name="Trazado 820017" d="M9,0H30a9,9,0,0,1,9,9V52a9,9,0,0,1-9,9H9a9,9,0,0,1-9-9V9A9,9,0,0,1,9,0Z" transform="translate(262.5 183.5)" fill="#949af8"/>
    </g>
    <path id="Trazado_820018" data-name="Trazado 820018" d="M2.969,15.807a1.874,1.874,0,0,1,1.3.464,1.619,1.619,0,0,1,0,2.373,1.874,1.874,0,0,1-1.3.464,1.858,1.858,0,0,1-1.3-.469,1.618,1.618,0,0,1,0-2.363A1.858,1.858,0,0,1,2.969,15.807Zm0-7.793a1.874,1.874,0,0,1,1.3.464,1.619,1.619,0,0,1,0,2.373,1.874,1.874,0,0,1-1.3.464,1.858,1.858,0,0,1-1.3-.469,1.618,1.618,0,0,1,0-2.363A1.858,1.858,0,0,1,2.969,8.014Z" transform="translate(810 4089)" fill="#12263f"/>
  </g>
</svg>
