<svg xmlns="http://www.w3.org/2000/svg" xmlns:xlink="http://www.w3.org/1999/xlink" width="400" height="182.255" viewBox="0 0 400 182.255">
  <defs>
    <clipPath id="clip-path">
      <rect id="Rectángulo_375777" data-name="Rectángulo 375777" width="314.857" height="173.511" fill="none"/>
    </clipPath>
    <clipPath id="clip-path-3">
      <rect id="Rectángulo_375775" data-name="Rectángulo 375775" width="273.027" height="173.511" fill="none"/>
    </clipPath>
    <clipPath id="clip-path-4">
      <rect id="Rectángulo_375778" data-name="Rectángulo 375778" width="138.208" height="153.543" fill="none"/>
    </clipPath>
  </defs>
  <g id="Grupo_1071879" data-name="Grupo 1071879" transform="translate(-180 -6809)">
    <rect id="Rectángulo_375689" data-name="Rectángulo 375689" width="400" height="130" rx="65" transform="translate(180 6833)" fill="#dadcfd"/>
    <g id="Grupo_1071876" data-name="Grupo 1071876" transform="translate(208.868 6817.745)">
      <g id="Grupo_1071875" data-name="Grupo 1071875" clip-path="url(#clip-path)">
        <g id="Grupo_1071874" data-name="Grupo 1071874">
          <g id="Grupo_1071873" data-name="Grupo 1071873" clip-path="url(#clip-path)">
            <path id="Trazado_818903" data-name="Trazado 818903" d="M60.1,173.511.928,30.751c-2.7-6.514.688-11.8,7.566-11.8H20.4c4.858,0,8.168-2.676,8.481-6.854l.394-5.249C29.589,2.676,32.905,0,37.768,0H94.335c4.41,0,9.39,2.2,13.1,5.795l4.592,4.449c3.707,3.591,8.683,5.795,13.088,5.795h72.047c6.879,0,14.583,5.281,17.207,11.8l58.658,145.675Z" transform="translate(0)" fill="#949af8"/>
            <g id="Grupo_1071872" data-name="Grupo 1071872" opacity="0.3">
              <g id="Grupo_1071871" data-name="Grupo 1071871">
                <g id="Grupo_1071870" data-name="Grupo 1071870" clip-path="url(#clip-path-3)">
                  <path id="Trazado_818904" data-name="Trazado 818904" d="M60.1,173.511.928,30.751c-2.7-6.514.688-11.8,7.566-11.8H20.4c4.858,0,8.168-2.676,8.481-6.854l.394-5.249C29.589,2.676,32.905,0,37.768,0H94.335c4.41,0,9.39,2.2,13.1,5.795l4.592,4.449c3.707,3.591,8.683,5.795,13.088,5.795h72.047c6.879,0,14.583,5.281,17.207,11.8l58.658,145.675Z" transform="translate(0)"/>
                </g>
              </g>
            </g>
            <path id="Trazado_818905" data-name="Trazado 818905" d="M45.305,120.069,22.989,33.787c-1.469-5.681,2.252-11.381,7.43-11.381h174.92c3.459,0,6.5,2.622,7.449,6.426L245.272,158.7c1.426,5.7-.854,9.123-6.038,9.057l-176,.055c-3.409-.043-6.393-2.631-7.351-6.375Z" transform="translate(5.015 4.958)" fill="#e0e0e0"/>
            <path id="Trazado_818906" data-name="Trazado 818906" d="M52.827,165.11,43.321,29.234a8.333,8.333,0,0,1,8.312-8.915H232.872V165.11Z" transform="translate(9.581 4.496)" fill="#ebebeb"/>
            <path id="Trazado_818907" data-name="Trazado 818907" d="M49.44,168.22,71,28.143a10.036,10.036,0,0,1,9.854-7.824H264.2a9.911,9.911,0,0,1,9.256,13.807L233.867,162.317Z" transform="translate(10.94 4.496)" fill="#fafafa"/>
            <path id="Trazado_818908" data-name="Trazado 818908" d="M49.21,167.443,93.676,36.253a13.162,13.162,0,0,1,12.367-9.121h189.01c6.092,0,10.386,6.233,8.441,12.254L262.136,167.506Z" transform="translate(10.889 6.004)" fill="#949af8"/>
          </g>
        </g>
      </g>
    </g>
    <g id="Grupo_1071878" data-name="Grupo 1071878" transform="translate(417 6809)">
      <g id="Grupo_1071877" data-name="Grupo 1071877" transform="translate(0 0)" clip-path="url(#clip-path-4)">
        <path id="Trazado_818909" data-name="Trazado 818909" d="M118.806,153.085H25.3a11.7,11.7,0,0,1-11.7-11.7V11.961A11.7,11.7,0,0,1,25.3.262H84.6l45.9,47.313v93.811a11.7,11.7,0,0,1-11.7,11.7" transform="translate(7.367 0.141)" fill="#ebebeb"/>
        <path id="Trazado_818910" data-name="Trazado 818910" d="M59.658.262V36.687A10.881,10.881,0,0,0,70.539,47.569l35.023.006Z" transform="translate(32.31 0.141)" fill="#f5f5f5"/>
        <path id="Trazado_818911" data-name="Trazado 818911" d="M59.969,25.964s-.461,8.835,9.6,11.739a11.727,11.727,0,0,0,1.152.259c4.572.817,34.678,6.173,34.678,5.482V33.655H70.372s-8.745-.3-10.4-7.691" transform="translate(32.477 14.061)" fill="#e0e0e0"/>
        <path id="Trazado_818912" data-name="Trazado 818912" d="M118.949,153.228c0-.055.7.014,2.021-.239a11.71,11.71,0,0,0,5.3-2.473,11.565,11.565,0,0,0,4.188-8.252c.059-3.772-.009-8.152-.008-13.04-.034-19.6-.083-47.634-.142-81.506l.094.233c-13.9-14.3-29.4-30.255-45.939-47.279l.276.117L50.525.8q-8.833,0-17.9,0-2.264,0-4.542,0a29.96,29.96,0,0,0-4.491.165,11.305,11.305,0,0,0-7.338,4.575A11.141,11.141,0,0,0,14.187,11.3c-.083,2.073-.023,4.241-.042,6.347q0,6.354,0,12.624,0,12.533-.006,24.681c-.008,16.182-.015,31.789-.023,46.659q-.009,11.15-.017,21.727,0,5.281-.011,10.409,0,2.562,0,5.083a26.923,26.923,0,0,0,.216,4.922,11.385,11.385,0,0,0,9.609,9.045,43.408,43.408,0,0,0,4.6.122l17.651.026,53.262.128,14.48.074q2.458.028,3.766.04c.848.014,1.283.042,1.283.042s-.435.028-1.283.042l-3.766.039c-3.333.019-8.209.043-14.48.076l-53.262.128-17.651.026a43.7,43.7,0,0,1-4.685-.116,11.921,11.921,0,0,1-4.562-1.6,12.057,12.057,0,0,1-5.616-7.942,27.3,27.3,0,0,1-.239-5.052q0-2.52,0-5.083,0-5.127-.009-10.409-.009-10.565-.017-21.727c-.008-14.87-.015-30.477-.023-46.659q0-12.135-.006-24.681,0-6.269,0-12.624c.018-2.13-.043-4.218.042-6.4A11.962,11.962,0,0,1,15.6,5.079a12.115,12.115,0,0,1,7.861-4.9A30.436,30.436,0,0,1,28.084,0h4.542l17.9,0L84.744.02h.163l.114.117,45.867,47.347.1.1v.136c-.059,33.872-.108,61.909-.142,81.506-.031,4.9.008,9.25-.083,13.059a11.755,11.755,0,0,1-4.357,8.391,11.6,11.6,0,0,1-5.416,2.417,8.66,8.66,0,0,1-1.522.137c-.344.009-.516,0-.516,0" transform="translate(7.224 0)" fill="#263238"/>
        <path id="Trazado_818913" data-name="Trazado 818913" d="M105.7,47.575a3.753,3.753,0,0,1-.9.08l-2.581.076-9.487.126-14.07.083-8.32.006A11.294,11.294,0,0,1,59.92,40.075a13.009,13.009,0,0,1-.513-4.466c.008-2.88.015-5.658.023-8.311.032-5.271.062-10.033.086-14.072.052-3.923.1-7.138.128-9.485.031-1.048.055-1.9.076-2.579a3.865,3.865,0,0,1,.08-.9,3.761,3.761,0,0,1,.08.9c.02.677.046,1.531.076,2.579.032,2.348.076,5.562.128,9.485.025,4.039.054,8.8.086,14.072.008,2.653.015,5.431.023,8.311a12.336,12.336,0,0,0,.489,4.227A10.544,10.544,0,0,0,70.37,47.16l8.3.04,14.07.089,9.487.128,2.581.077a3.859,3.859,0,0,1,.9.08" transform="translate(32.169 0.141)" fill="#263238"/>
        <path id="Trazado_818914" data-name="Trazado 818914" d="M75.844,21.488c0,.222-11.044.4-24.665.4s-24.669-.179-24.669-.4,11.042-.4,24.669-.4,24.665.179,24.665.4" transform="translate(14.358 11.42)" fill="#263238"/>
        <path id="Trazado_818915" data-name="Trazado 818915" d="M99.25,33.274c0,.222-16.285.4-36.368.4s-36.372-.179-36.372-.4,16.281-.4,36.372-.4,36.368.179,36.368.4" transform="translate(14.358 17.803)" fill="#263238"/>
        <path id="Trazado_818916" data-name="Trazado 818916" d="M99.25,45.061c0,.222-16.285.4-36.368.4s-36.372-.179-36.372-.4,16.281-.4,36.372-.4,36.368.179,36.368.4" transform="translate(14.358 24.187)" fill="#263238"/>
        <path id="Trazado_818917" data-name="Trazado 818917" d="M99.25,56.848c0,.222-16.285.4-36.368.4s-36.372-.179-36.372-.4,16.281-.4,36.372-.4,36.368.179,36.368.4" transform="translate(14.358 30.571)" fill="#263238"/>
        <path id="Trazado_818918" data-name="Trazado 818918" d="M99.25,68.635c0,.222-16.285.4-36.368.4s-36.372-.179-36.372-.4,16.281-.4,36.372-.4,36.368.179,36.368.4" transform="translate(14.358 36.955)" fill="#263238"/>
        <path id="Trazado_818919" data-name="Trazado 818919" d="M99.25,80.422c0,.222-16.285.4-36.368.4s-36.372-.179-36.372-.4,16.281-.4,36.372-.4,36.368.179,36.368.4" transform="translate(14.358 43.338)" fill="#263238"/>
        <path id="Trazado_818920" data-name="Trazado 818920" d="M72.913,95.568H6.509A6.508,6.508,0,0,1,0,89.059V66.39a6.508,6.508,0,0,1,6.509-6.507h66.4a6.509,6.509,0,0,1,6.509,6.507V89.059a6.509,6.509,0,0,1-6.509,6.509" transform="translate(0 32.117)" fill="#2b5cf9"/>
        <path id="Trazado_819843" data-name="Trazado 819843" d="M6.609-2.379a1.9,1.9,0,0,0,1.418-.533,1.936,1.936,0,0,0,.527-1.424h3.117l.023.07a3.968,3.968,0,0,1-1.43,3.217A5.346,5.346,0,0,1,6.609.246a5.4,5.4,0,0,1-4.348-1.8,6.837,6.837,0,0,1-1.535-4.6V-6.5a6.882,6.882,0,0,1,1.529-4.6,5.355,5.355,0,0,1,4.33-1.811,5.229,5.229,0,0,1,3.738,1.336A4.465,4.465,0,0,1,11.7-8.062l-.023.07H8.555a2.53,2.53,0,0,0-.521-1.635,1.752,1.752,0,0,0-1.447-.65A1.953,1.953,0,0,0,4.705-9.217,5.816,5.816,0,0,0,4.148-6.5v.352a5.8,5.8,0,0,0,.557,2.73A1.979,1.979,0,0,0,6.609-2.379ZM20.543-3.516A1.181,1.181,0,0,0,20-4.482a5.535,5.535,0,0,0-2.021-.709A8.063,8.063,0,0,1,14.6-6.539a2.943,2.943,0,0,1-1.154-2.449,3.493,3.493,0,0,1,1.383-2.777,5.575,5.575,0,0,1,3.68-1.148,6.017,6.017,0,0,1,3.85,1.148,3.355,3.355,0,0,1,1.389,2.859l-.023.07h-3.3a1.659,1.659,0,0,0-.492-1.242,1.948,1.948,0,0,0-1.418-.48,1.937,1.937,0,0,0-1.3.41,1.276,1.276,0,0,0-.48,1.008,1.138,1.138,0,0,0,.5.955,5.543,5.543,0,0,0,2.021.662,8.226,8.226,0,0,1,3.475,1.377,3.02,3.02,0,0,1,1.143,2.5,3.347,3.347,0,0,1-1.465,2.8A6.323,6.323,0,0,1,18.527.246a5.878,5.878,0,0,1-4-1.283,3.587,3.587,0,0,1-1.4-2.924l.023-.07h3.129a1.778,1.778,0,0,0,.668,1.477A2.758,2.758,0,0,0,18.6-2.1a2.35,2.35,0,0,0,1.447-.381A1.236,1.236,0,0,0,20.543-3.516Zm10.1-1.207.223,1.172h.07l.234-1.172,2.086-7.957h3.574L32.52,0H29.25L24.938-12.68h3.574Z" transform="translate(21.273 116.914)" fill="#fff"/>
      </g>
    </g>
  </g>
</svg>
