<svg xmlns="http://www.w3.org/2000/svg" xmlns:xlink="http://www.w3.org/1999/xlink" width="412.662" height="429" viewBox="0 0 412.662 429">
  <defs>
    <clipPath id="clip-path">
      <rect id="Rectángulo_375806" data-name="Rectángulo 375806" width="14.38" height="14.38" fill="none"/>
    </clipPath>
    <clipPath id="clip-path-2">
      <rect id="Rectángulo_375816" data-name="Rectángulo 375816" width="41.569" height="21.692" fill="none"/>
    </clipPath>
  </defs>
  <g id="Grupo_1072634" data-name="Grupo 1072634" transform="translate(-161.24 -651)">
    <rect id="Rectángulo_376152" data-name="Rectángulo 376152" width="316" height="411" rx="13" transform="translate(220 669)" fill="#c4e6ff"/>
    <g id="Grupo_1071962" data-name="Grupo 1071962">
      <path id="Trazado_773059" data-name="Trazado 773059" d="M323.4,62.782a3.876,3.876,0,0,1-1.02.525" transform="translate(192.621 589.218)" fill="#fff"/>
      <path id="Trazado_773060" data-name="Trazado 773060" d="M323.4,62.782a3.876,3.876,0,0,1-1.02.525" transform="translate(192.121 589.718)" fill="none" stroke="#263238" stroke-linecap="round" stroke-linejoin="round" stroke-width="1"/>
      <path id="Trazado_773059-2" data-name="Trazado 773059" d="M323.4,62.782a3.876,3.876,0,0,1-1.02.525" transform="translate(192.621 589.218)" fill="#fff"/>
      <path id="Trazado_773060-2" data-name="Trazado 773060" d="M323.4,62.782a3.876,3.876,0,0,1-1.02.525" transform="translate(192.121 589.718)" fill="none" stroke="#263238" stroke-linecap="round" stroke-linejoin="round" stroke-width="1"/>
      <rect id="Rectángulo_375724" data-name="Rectángulo 375724" width="400" height="429" transform="translate(173 651)" fill="none"/>
      <g id="Grupo_1071961" data-name="Grupo 1071961" transform="translate(-4485.575 11697.211)">
        <rect id="Rectángulo_375804" data-name="Rectángulo 375804" width="69.448" height="11.873" transform="translate(4802.038 -10977.525)" fill="#c1c1c1"/>
        <path id="Trazado_819163" data-name="Trazado 819163" d="M295.293,25.217H245.65a14.075,14.075,0,0,0-9.362,3.313L222.8,38.621H169.674a4.02,4.02,0,0,0-4.02,4.022v73.533a4.021,4.021,0,0,0,4.02,4.022H299.123a4.022,4.022,0,0,0,4.022-4.022V34.153c0-4.723-3.516-8.936-7.851-8.936" transform="translate(4632.299 -11007.21)" fill="#ffc655"/>
        <rect id="Rectángulo_375805" data-name="Rectángulo 375805" width="110.211" height="52.832" transform="translate(4807.495 -10675.734)" fill="#12263f"/>
        <path id="Trazado_819164" data-name="Trazado 819164" d="M432.983,74.954V315.628a14,14,0,0,1-14.007,14H80.828a14.005,14.005,0,0,1-14.007-14V74.954A14.014,14.014,0,0,1,80.828,60.947H418.976a14.007,14.007,0,0,1,14.007,14.007" transform="translate(4612.698 -11000.124)" fill="#12263f"/>
        <g id="Grupo_1071939" data-name="Grupo 1071939" transform="translate(4854.814 -10694.616)" opacity="0.5">
          <g id="Grupo_1071938" data-name="Grupo 1071938">
            <g id="Grupo_1071937" data-name="Grupo 1071937" clip-path="url(#clip-path)">
              <path id="Trazado_819165" data-name="Trazado 819165" d="M227.485,272.222a7.19,7.19,0,1,1-7.19-7.19,7.19,7.19,0,0,1,7.19,7.19" transform="translate(-213.105 -265.032)" fill="#fff"/>
            </g>
          </g>
        </g>
        <path id="Trazado_819166" data-name="Trazado 819166" d="M427.857,296.063V76.877a11.828,11.828,0,0,0-11.615-12.03H82.107a11.828,11.828,0,0,0-11.615,12.03V296.063Z" transform="translate(4613.426 -10999.35)" fill="#fff"/>
        <path id="Trazado_819167" data-name="Trazado 819167" d="M309.1,331.511H155.521v-.368a11.018,11.018,0,0,1,11.019-11.017H298.084A11.017,11.017,0,0,1,309.1,331.143Z" transform="translate(4630.289 -10948.723)" fill="#12263f"/>
        <path id="Trazado_819173" data-name="Trazado 819173" d="M391.427,121.027H310.175a8.843,8.843,0,0,0-8.844,8.844V298.725a8.843,8.843,0,0,0,8.844,8.844h81.252a8.843,8.843,0,0,0,8.844-8.844V129.871a8.843,8.843,0,0,0-8.844-8.844" transform="translate(4659.207 -10988.209)" fill="#949af8"/>
        <path id="Trazado_819174" data-name="Trazado 819174" d="M365.4,129.642H320.71a1.4,1.4,0,0,1-1.4-1.4v-.182a1.4,1.4,0,0,1,1.4-1.4H365.4a1.4,1.4,0,0,1,1.4,1.4v.182a1.4,1.4,0,0,1-1.4,1.4" transform="translate(4662.771 -10987.094)" fill="#0f1b63"/>
        <path id="Trazado_819175" data-name="Trazado 819175" d="M366.416,128.147a1.5,1.5,0,1,1-1.5-1.5,1.5,1.5,0,0,1,1.5,1.5" transform="translate(4671.521 -10987.094)" fill="#0f1b63"/>
        <rect id="Rectángulo_375807" data-name="Rectángulo 375807" width="88.047" height="54.103" transform="translate(4965.984 -10850.24)" fill="#fff"/>
        <path id="Trazado_819176" data-name="Trazado 819176" d="M365.008,156.058l-6.455,7.722-16.7-19.982-27.928,33.408h68.766Z" transform="translate(4661.703 -10983.692)" fill="#ffc655"/>
        <rect id="Rectángulo_375808" data-name="Rectángulo 375808" width="41.569" height="24.381" transform="translate(4965.984 -10724.476)" fill="#fff"/>
        <path id="Trazado_819177" data-name="Trazado 819177" d="M333.793,248.98l-3.047,3.645-7.886-9.433-13.185,15.772H342.14Z" transform="translate(4660.861 -10963.98)" fill="#ffc655"/>
        <g id="Grupo_1071942" data-name="Grupo 1071942" transform="translate(4965.984 -10787.116)" style="mix-blend-mode: multiply;isolation: isolate">
          <g id="Grupo_1071941" data-name="Grupo 1071941">
            <g id="Grupo_1071940" data-name="Grupo 1071940" clip-path="url(#clip-path-2)">
              <rect id="Rectángulo_375809" data-name="Rectángulo 375809" width="41.569" height="2.336" transform="translate(0 4.895)" fill="#949af8"/>
              <rect id="Rectángulo_375810" data-name="Rectángulo 375810" width="41.569" height="2.336" fill="#949af8"/>
              <rect id="Rectángulo_375811" data-name="Rectángulo 375811" width="26.284" height="2.336" transform="translate(0 9.675)" fill="#949af8"/>
              <rect id="Rectángulo_375812" data-name="Rectángulo 375812" width="13.415" height="2.336" transform="translate(28.153 9.675)" fill="#949af8"/>
              <rect id="Rectángulo_375813" data-name="Rectángulo 375813" width="36.777" height="2.336" transform="translate(0 14.451)" fill="#949af8"/>
              <rect id="Rectángulo_375814" data-name="Rectángulo 375814" width="12.773" height="2.336" transform="translate(0 19.357)" fill="#949af8"/>
              <rect id="Rectángulo_375815" data-name="Rectángulo 375815" width="9.2" height="2.336" transform="translate(14.977 19.357)" fill="#949af8"/>
            </g>
          </g>
        </g>
        <g id="Grupo_1071945" data-name="Grupo 1071945" transform="translate(5012.462 -10754.41)" style="mix-blend-mode: multiply;isolation: isolate">
          <g id="Grupo_1071944" data-name="Grupo 1071944">
            <g id="Grupo_1071943" data-name="Grupo 1071943" clip-path="url(#clip-path-2)">
              <rect id="Rectángulo_375817" data-name="Rectángulo 375817" width="41.569" height="2.336" transform="translate(0 4.895)" fill="#949af8"/>
              <rect id="Rectángulo_375818" data-name="Rectángulo 375818" width="41.569" height="2.336" transform="translate(0 0.001)" fill="#949af8"/>
              <rect id="Rectángulo_375819" data-name="Rectángulo 375819" width="26.284" height="2.336" transform="translate(0 9.675)" fill="#949af8"/>
              <rect id="Rectángulo_375820" data-name="Rectángulo 375820" width="13.415" height="2.336" transform="translate(28.153 9.675)" fill="#949af8"/>
              <rect id="Rectángulo_375821" data-name="Rectángulo 375821" width="36.777" height="2.336" transform="translate(0 14.451)" fill="#949af8"/>
              <rect id="Rectángulo_375822" data-name="Rectángulo 375822" width="12.773" height="2.336" transform="translate(0 19.357)" fill="#949af8"/>
              <rect id="Rectángulo_375823" data-name="Rectángulo 375823" width="9.2" height="2.336" transform="translate(14.977 19.357)" fill="#949af8"/>
            </g>
          </g>
        </g>
        <g id="Grupo_1071948" data-name="Grupo 1071948" transform="translate(5012.462 -10787.116)" style="mix-blend-mode: multiply;isolation: isolate">
          <g id="Grupo_1071947" data-name="Grupo 1071947">
            <g id="Grupo_1071946" data-name="Grupo 1071946" clip-path="url(#clip-path-2)">
              <rect id="Rectángulo_375825" data-name="Rectángulo 375825" width="41.569" height="2.336" transform="translate(0 4.895)" fill="#949af8"/>
              <rect id="Rectángulo_375826" data-name="Rectángulo 375826" width="41.569" height="2.336" transform="translate(0)" fill="#949af8"/>
              <rect id="Rectángulo_375827" data-name="Rectángulo 375827" width="26.284" height="2.336" transform="translate(0 9.675)" fill="#949af8"/>
              <rect id="Rectángulo_375828" data-name="Rectángulo 375828" width="13.415" height="2.336" transform="translate(28.153 9.675)" fill="#949af8"/>
              <rect id="Rectángulo_375829" data-name="Rectángulo 375829" width="41.569" height="2.336" transform="translate(0 14.451)" fill="#949af8"/>
              <rect id="Rectángulo_375830" data-name="Rectángulo 375830" width="12.773" height="2.336" transform="translate(0 19.357)" fill="#949af8"/>
              <rect id="Rectángulo_375831" data-name="Rectángulo 375831" width="26.592" height="2.336" transform="translate(14.977 19.357)" fill="#949af8"/>
            </g>
          </g>
        </g>
        <g id="Grupo_1071951" data-name="Grupo 1071951" transform="translate(4965.984 -10754.41)" style="mix-blend-mode: multiply;isolation: isolate">
          <g id="Grupo_1071950" data-name="Grupo 1071950">
            <g id="Grupo_1071949" data-name="Grupo 1071949" clip-path="url(#clip-path-2)">
              <rect id="Rectángulo_375833" data-name="Rectángulo 375833" width="41.569" height="2.336" transform="translate(0 4.895)" fill="#949af8"/>
              <rect id="Rectángulo_375834" data-name="Rectángulo 375834" width="41.569" height="2.336" transform="translate(0 0.001)" fill="#949af8"/>
              <rect id="Rectángulo_375835" data-name="Rectángulo 375835" width="41.569" height="2.336" transform="translate(0 9.675)" fill="#949af8"/>
              <rect id="Rectángulo_375836" data-name="Rectángulo 375836" width="41.569" height="2.336" transform="translate(0 14.451)" fill="#949af8"/>
              <rect id="Rectángulo_375837" data-name="Rectángulo 375837" width="41.569" height="2.336" transform="translate(0 19.357)" fill="#949af8"/>
            </g>
          </g>
        </g>
        <g id="Grupo_1071954" data-name="Grupo 1071954" transform="translate(5012.462 -10723.678)" style="mix-blend-mode: multiply;isolation: isolate">
          <g id="Grupo_1071953" data-name="Grupo 1071953">
            <g id="Grupo_1071952" data-name="Grupo 1071952" clip-path="url(#clip-path-2)">
              <rect id="Rectángulo_375839" data-name="Rectángulo 375839" width="41.569" height="2.336" transform="translate(0 4.894)" fill="#949af8"/>
              <rect id="Rectángulo_375840" data-name="Rectángulo 375840" width="41.569" height="2.336" transform="translate(0 0)" fill="#949af8"/>
              <rect id="Rectángulo_375841" data-name="Rectángulo 375841" width="26.284" height="2.336" transform="translate(15.285 9.675)" fill="#949af8"/>
              <rect id="Rectángulo_375842" data-name="Rectángulo 375842" width="13.415" height="2.336" transform="translate(0 9.675)" fill="#949af8"/>
              <rect id="Rectángulo_375843" data-name="Rectángulo 375843" width="31.919" height="2.336" transform="translate(0 14.451)" fill="#949af8"/>
              <rect id="Rectángulo_375844" data-name="Rectángulo 375844" width="7.432" height="2.336" transform="translate(34.135 14.451)" fill="#949af8"/>
              <rect id="Rectángulo_375845" data-name="Rectángulo 375845" width="30.663" height="2.336" transform="translate(10.906 19.357)" fill="#949af8"/>
              <rect id="Rectángulo_375846" data-name="Rectángulo 375846" width="9.2" height="2.336" transform="translate(0 19.357)" fill="#949af8"/>
            </g>
          </g>
        </g>
        <rect id="Rectángulo_375848" data-name="Rectángulo 375848" width="27.3" height="2.477" transform="translate(4853.048 -10760.643)" fill="#0f1b63"/>
        <rect id="Rectángulo_375849" data-name="Rectángulo 375849" width="63.22" height="2.477" transform="translate(4887.35 -10760.643)" fill="#0f1b63"/>
        <path id="Trazado_819180" data-name="Trazado 819180" d="M271.362,228.134c-10.852,0-21.728-.013-32.554-.04l0-2.477c21.649.053,43.5.053,64.947,0l.006,2.477c-10.725.026-21.552.04-32.4.04" transform="translate(4646.807 -10967.466)" fill="#0f1b63"/>
        <rect id="Rectángulo_375850" data-name="Rectángulo 375850" width="74.901" height="2.477" transform="translate(4875.669 -10751.245)" fill="#0f1b63"/>
        <rect id="Rectángulo_375851" data-name="Rectángulo 375851" width="78.977" height="2.477" transform="translate(4871.593 -10732.409)" fill="#0f1b63"/>
        <rect id="Rectángulo_375852" data-name="Rectángulo 375852" width="89.929" height="2.477" transform="translate(4860.64 -10723.011)" fill="#0f1b63"/>
        <rect id="Rectángulo_375853" data-name="Rectángulo 375853" width="42.283" height="2.477" transform="translate(4705.507 -10902.266)" fill="#949af8"/>
        <rect id="Rectángulo_375854" data-name="Rectángulo 375854" width="43.633" height="2.477" transform="translate(4802.43 -10902.266)" fill="#949af8"/>
        <rect id="Rectángulo_375855" data-name="Rectángulo 375855" width="30.267" height="2.477" transform="translate(4815.795 -10892.867)" fill="#ffc655"/>
        <rect id="Rectángulo_375856" data-name="Rectángulo 375856" width="42.718" height="2.477" transform="translate(4803.345 -10874.032)" fill="#ffc655"/>
        <rect id="Rectángulo_375857" data-name="Rectángulo 375857" width="51.085" height="2.477" transform="translate(4794.979 -10864.634)" fill="#ffc655"/>
        <rect id="Rectángulo_375858" data-name="Rectángulo 375858" width="65.71" height="2.477" transform="translate(4780.353 -10853.646)" fill="#ffc655"/>
        <rect id="Rectángulo_375859" data-name="Rectángulo 375859" width="42.283" height="2.477" transform="translate(4754.643 -10902.266)" fill="#ffc655"/>
        <path id="Trazado_819181" data-name="Trazado 819181" d="M183,109.95c-6.459,0-12.941-.01-25.9-.028l-8.428-.011,0-2.477,8.429.012c25.922.036,25.925.036,51.663,0l8.372-.012v2.477l-8.368.011c-12.871.018-19.307.028-25.766.028" transform="translate(4628.93 -10990.904)" fill="#ffc655"/>
        <path id="Trazado_819182" data-name="Trazado 819182" d="M120.91,109.95c-10.852,0-21.679-.012-32.4-.038l0-2.477c21.448.052,43.3.052,64.948,0l0,2.477c-10.826.026-21.7.038-32.554.038" transform="translate(4616.998 -10990.904)" fill="#949af8"/>
        <rect id="Rectángulo_375860" data-name="Rectángulo 375860" width="104.284" height="2.477" transform="translate(4705.507 -10892.867)" fill="#949af8"/>
        <rect id="Rectángulo_375861" data-name="Rectángulo 375861" width="69.057" height="2.477" transform="translate(4705.507 -10853.646)" fill="#949af8"/>
        <rect id="Rectángulo_375862" data-name="Rectángulo 375862" width="92.446" height="2.477" transform="translate(4705.507 -10874.032)" fill="#949af8"/>
        <rect id="Rectángulo_375863" data-name="Rectángulo 375863" width="83.783" height="2.477" transform="translate(4705.506 -10864.634)" fill="#949af8"/>
        <path id="Trazado_819183" data-name="Trazado 819183" d="M83.112,93.066A1.708,1.708,0,1,1,81.4,91.358a1.708,1.708,0,0,1,1.708,1.708" transform="translate(4615.251 -10994.092)" fill="#12263f"/>
        <path id="Trazado_819184" data-name="Trazado 819184" d="M83.112,100.909A1.708,1.708,0,1,1,81.4,99.2a1.708,1.708,0,0,1,1.708,1.708" transform="translate(4615.251 -10992.537)" fill="#12263f"/>
        <path id="Trazado_819185" data-name="Trazado 819185" d="M83.112,108.75a1.708,1.708,0,1,1-1.708-1.706,1.708,1.708,0,0,1,1.708,1.706" transform="translate(4615.251 -10990.981)" fill="#12263f"/>
        <path id="Trazado_819186" data-name="Trazado 819186" d="M83.112,116.593a1.708,1.708,0,1,1-1.708-1.706,1.708,1.708,0,0,1,1.708,1.706" transform="translate(4615.251 -10989.427)" fill="#12263f"/>
        <path id="Trazado_819187" data-name="Trazado 819187" d="M83.112,124.47a1.708,1.708,0,1,1-1.708-1.708,1.708,1.708,0,0,1,1.708,1.708" transform="translate(4615.251 -10987.864)" fill="#12263f"/>
        <path id="Trazado_819188" data-name="Trazado 819188" d="M83.112,133.639a1.708,1.708,0,1,1-1.708-1.708,1.708,1.708,0,0,1,1.708,1.708" transform="translate(4615.251 -10986.046)" fill="#12263f"/>
        <path id="Trazado_819189" data-name="Trazado 819189" d="M215.311,147.335a.619.619,0,0,1-.619-.62V91.725a.62.62,0,1,1,1.239,0v54.991a.619.619,0,0,1-.62.62" transform="translate(4642.023 -10994.144)" fill="#12263f"/>
        <path id="Trazado_819190" data-name="Trazado 819190" d="M130.864,243.667h-3.807a.635.635,0,0,1,0-1.269h3.807a.635.635,0,0,1,0,1.269m-7.613,0h-3.807a.635.635,0,0,1,0-1.269h3.807a.635.635,0,0,1,0,1.269m-7.613,0H114.1a5.109,5.109,0,0,1-2.477-.64.634.634,0,1,1,.615-1.108,3.854,3.854,0,0,0,1.862.479h1.542a.635.635,0,0,1,0,1.269m-5.919-3.521a.634.634,0,0,1-.618-.5,5.161,5.161,0,0,1-.117-1.092v-2.841a.635.635,0,1,1,1.269,0v2.841a3.967,3.967,0,0,0,.087.822.635.635,0,0,1-.484.755.67.67,0,0,1-.137.014m-.1-7.6a.634.634,0,0,1-.634-.635V228.1a.635.635,0,1,1,1.269,0v3.806a.635.635,0,0,1-.635.635m0-7.613a.634.634,0,0,1-.634-.635v-3.806a.635.635,0,1,1,1.269,0v3.806a.635.635,0,0,1-.635.635m0-7.613a.634.634,0,0,1-.634-.635v-3.806a.635.635,0,1,1,1.269,0v3.806a.635.635,0,0,1-.635.635m0-7.613a.634.634,0,0,1-.634-.635V208.6a5.1,5.1,0,0,1,1.358-3.47.635.635,0,0,1,.932.862,3.833,3.833,0,0,0-1.021,2.609v.464a.635.635,0,0,1-.635.635m23.624-4.942h-3.806a.635.635,0,1,1,0-1.269h3.806a.635.635,0,1,1,0,1.269m-7.613,0h-3.807a.635.635,0,0,1,0-1.269h3.807a.635.635,0,0,1,0,1.269m-7.613,0H114.21a.635.635,0,1,1,0-1.269h3.806a.635.635,0,0,1,0,1.269" transform="translate(4621.06 -10971.854)" fill="#0f1b63"/>
        <rect id="Rectángulo_375864" data-name="Rectángulo 375864" width="20.379" height="2.538" transform="translate(4745.354 -10744.661)" fill="#0f1b63"/>
        <rect id="Rectángulo_375865" data-name="Rectángulo 375865" width="32.92" height="2.538" transform="translate(4771.065 -10744.661)" fill="#0f1b63"/>
        <rect id="Rectángulo_375866" data-name="Rectángulo 375866" width="20.377" height="2.538" transform="translate(4783.608 -10723.073)" fill="#0f1b63"/>
        <rect id="Rectángulo_375867" data-name="Rectángulo 375867" width="32.922" height="2.538" transform="translate(4745.354 -10723.073)" fill="#0f1b63"/>
        <rect id="Rectángulo_375868" data-name="Rectángulo 375868" width="35.841" height="2.538" transform="translate(4745.354 -10737.309)" fill="#0f1b63"/>
        <rect id="Rectángulo_375869" data-name="Rectángulo 375869" width="17.457" height="2.538" transform="translate(4786.528 -10737.309)" fill="#0f1b63"/>
        <rect id="Rectángulo_375870" data-name="Rectángulo 375870" width="29.494" height="2.538" transform="translate(4745.354 -10730.091)" fill="#0f1b63"/>
        <rect id="Rectángulo_375871" data-name="Rectángulo 375871" width="20.013" height="2.538" transform="translate(4783.972 -10730.091)" fill="#0f1b63"/>
        <rect id="Rectángulo_375872" data-name="Rectángulo 375872" width="10.667" height="19.863" transform="translate(4745.354 -10775.32)" fill="#ffc655"/>
        <rect id="Rectángulo_375873" data-name="Rectángulo 375873" width="10.667" height="27.403" transform="translate(4762.089 -10782.859)" fill="#12263f"/>
        <rect id="Rectángulo_375874" data-name="Rectángulo 375874" width="10.667" height="43.037" transform="translate(4778.274 -10798.494)" fill="#2b5cf9"/>
        <rect id="Rectángulo_375875" data-name="Rectángulo 375875" width="3.829" height="2.538" transform="translate(4777.666 -10730.091)" fill="#0f1b63"/>
        <rect id="Rectángulo_375876" data-name="Rectángulo 375876" width="79.855" height="89.095" transform="translate(4869.755 -10865.915)" fill="#949af8"/>
        <rect id="Rectángulo_375877" data-name="Rectángulo 375877" width="55.681" height="1.857" transform="translate(4876.203 -10850.08)" fill="#fff"/>
        <path id="Trazado_819191" data-name="Trazado 819191" d="M258.735,148.443c-9.563,0-19.107-.01-27.783-.031l0-1.857c17.349.043,38.165.043,55.677,0l0,1.857c-8.757.022-18.34.031-27.9.031" transform="translate(4645.249 -10983.146)" fill="#fff"/>
        <rect id="Rectángulo_375878" data-name="Rectángulo 375878" width="55.681" height="1.857" transform="translate(4876.203 -10843.336)" fill="#fff"/>
        <rect id="Rectángulo_375879" data-name="Rectángulo 375879" width="40.592" height="1.857" transform="translate(4876.203 -10829.817)" fill="#fff"/>
        <rect id="Rectángulo_375880" data-name="Rectángulo 375880" width="55.681" height="1.857" transform="translate(4876.203 -10784.419)" fill="#fff"/>
        <path id="Trazado_819192" data-name="Trazado 819192" d="M286.633,180.7c-17.513-.042-38.328-.042-55.677,0l0-1.857c17.353-.041,38.171-.041,55.686,0Z" transform="translate(4645.249 -10976.748)" fill="#fff"/>
        <rect id="Rectángulo_375881" data-name="Rectángulo 375881" width="55.681" height="1.857" transform="translate(4876.203 -10791.161)" fill="#fff"/>
        <rect id="Rectángulo_375882" data-name="Rectángulo 375882" width="40.592" height="1.857" transform="translate(4876.203 -10804.681)" fill="#fff"/>
        <path id="Trazado_819193" data-name="Trazado 819193" d="M306.871,212.627H224.539v-91.6h82.332Zm-81.093-1.238h79.855V122.265H225.778Z" transform="translate(4643.977 -10988.209)" fill="#2b5cf9"/>
        <rect id="Rectángulo_375883" data-name="Rectángulo 375883" width="81.094" height="10.673" transform="translate(4869.134 -10866.563)" fill="#2b5cf9"/>
        <path id="Trazado_819194" data-name="Trazado 819194" d="M274.589,171.357a.932.932,0,0,1-.616-.233l-6.24-5.515a.93.93,0,0,1,0-1.391l6.24-5.513a.929.929,0,1,1,1.232,1.391l-5.454,4.818,5.454,4.817a.929.929,0,0,1-.616,1.625" transform="translate(4652.481 -10980.783)" fill="#fff"/>
        <path id="Trazado_819195" data-name="Trazado 819195" d="M281.59,171.356a.929.929,0,0,1-.616-1.625l5.454-4.817-5.454-4.818a.929.929,0,1,1,1.232-1.391l6.24,5.513a.93.93,0,0,1,0,1.391l-6.24,5.515a.932.932,0,0,1-.616.232" transform="translate(4655.107 -10980.782)" fill="#fff"/>
        <path id="Trazado_819196" data-name="Trazado 819196" d="M232.094,126.5l2.163-2.163a.524.524,0,0,0-.741-.741l-2.163,2.163L229.19,123.6a.524.524,0,0,0-.742.741l2.164,2.163-2.164,2.163a.525.525,0,0,0,.742.742l2.163-2.164,2.163,2.164a.524.524,0,0,0,.741-.742Z" transform="translate(4644.722 -10987.729)" fill="#fff"/>
        <path id="Trazado_819197" data-name="Trazado 819197" d="M239.714,129.56a3.058,3.058,0,1,1,3.057-3.058,3.062,3.062,0,0,1-3.057,3.058m0-5.136a2.078,2.078,0,1,0,2.078,2.078,2.08,2.08,0,0,0-2.078-2.078" transform="translate(4646.38 -10987.729)" fill="#fff"/>
        <path id="Trazado_819198" data-name="Trazado 819198" d="M249.99,128.721h-4.983a.524.524,0,1,1,0-1.047h4.983a.524.524,0,1,1,0,1.047" transform="translate(4647.933 -10986.891)" fill="#fff"/>
        <path id="Trazado_819199" data-name="Trazado 819199" d="M218.624,26.349l-7.212,2.282a4.2,4.2,0,0,0-.682.286,36.267,36.267,0,0,0-8.183-9.664,4.306,4.306,0,0,0,.409-.634l3.455-6.73a4.273,4.273,0,0,0-1.848-5.746l-6.729-3.455a4.274,4.274,0,0,0-5.747,1.847l-3.455,6.73a4.345,4.345,0,0,0-.277.7,36.265,36.265,0,0,0-12.28-1.046,4.321,4.321,0,0,0-.158-.724l-2.28-7.212A4.274,4.274,0,0,0,168.279.2l-7.212,2.282a4.272,4.272,0,0,0-2.783,5.357l2.282,7.212a4.153,4.153,0,0,0,.286.682,36.267,36.267,0,0,0-9.664,8.183,4.3,4.3,0,0,0-.634-.407l-6.729-3.455a4.241,4.241,0,0,0-3.237-.273l-.02.006a4.241,4.241,0,0,0-2.49,2.114l-3.455,6.73a4.272,4.272,0,0,0,1.848,5.746L143.2,37.83a4.353,4.353,0,0,0,.7.274,36.276,36.276,0,0,0-1.046,12.283,4.318,4.318,0,0,0-.724.157l-7.212,2.282a4.273,4.273,0,0,0-2.782,5.357l2.282,7.213a4.274,4.274,0,0,0,5.356,2.783l7.213-2.282a4.189,4.189,0,0,0,.681-.288,36.282,36.282,0,0,0,8.185,9.667,4.3,4.3,0,0,0-.409.633l-3.455,6.729a4.268,4.268,0,0,0,1.847,5.747l6.73,3.455a4.272,4.272,0,0,0,5.746-1.848l3.456-6.729a4.247,4.247,0,0,0,.273-.7,36.287,36.287,0,0,0,12.284,1.047,4.307,4.307,0,0,0,.157.723l2.282,7.212a4.273,4.273,0,0,0,5.358,2.783l7.212-2.28a4.275,4.275,0,0,0,2.783-5.358l-2.282-7.212a4.2,4.2,0,0,0-.288-.682,36.282,36.282,0,0,0,9.667-8.185,4.3,4.3,0,0,0,.633.41l6.729,3.455a4.273,4.273,0,0,0,5.747-1.848l3.455-6.729a4.274,4.274,0,0,0-1.848-5.747L215.2,56.7a4.249,4.249,0,0,0-.7-.277,36.265,36.265,0,0,0,1.047-12.28,4.31,4.31,0,0,0,.723-.158l7.211-2.28a4.273,4.273,0,0,0,2.783-5.358l-2.28-7.212a4.274,4.274,0,0,0-5.358-2.783M185.245,66.376a20.047,20.047,0,1,1,13.068-25.159,20.07,20.07,0,0,1-13.068,25.159" transform="translate(4625.611 -11012.211)" fill="#0f1b63"/>
        <path id="Trazado_819200" data-name="Trazado 819200" d="M202.307,161.976l-1.753,4.292a2.663,2.663,0,0,0-.132.435,22.211,22.211,0,0,0-7.763.066,2.65,2.65,0,0,0-.139-.441l-1.815-4.266a2.62,2.62,0,0,0-3.433-1.383l-4.266,1.815a2.621,2.621,0,0,0-1.383,3.433l1.817,4.266a2.69,2.69,0,0,0,.22.405,22.228,22.228,0,0,0-5.309,5.376,2.5,2.5,0,0,0-.4-.209l-4.292-1.753a2.619,2.619,0,0,0-3.412,1.433l-1.753,4.292a2.622,2.622,0,0,0,1.434,3.413l4.292,1.752a2.5,2.5,0,0,0,.434.132,22.24,22.24,0,0,0,.066,7.763,2.685,2.685,0,0,0-.441.139l-4.266,1.817a2.6,2.6,0,0,0-1.4,1.418l0,.012a2.6,2.6,0,0,0,.019,2l1.817,4.266a2.618,2.618,0,0,0,3.432,1.383l4.267-1.815a2.619,2.619,0,0,0,.4-.223,22.222,22.222,0,0,0,5.378,5.31,2.727,2.727,0,0,0-.21.4l-1.752,4.292a2.618,2.618,0,0,0,1.433,3.412l4.292,1.753a2.619,2.619,0,0,0,3.412-1.433l1.753-4.292a2.807,2.807,0,0,0,.132-.434,22.245,22.245,0,0,0,7.764-.067,2.5,2.5,0,0,0,.138.441l1.815,4.266a2.617,2.617,0,0,0,3.432,1.383l4.267-1.817h0a2.621,2.621,0,0,0,1.383-3.433l-1.817-4.266a2.571,2.571,0,0,0-.222-.4,22.244,22.244,0,0,0,5.31-5.378,2.548,2.548,0,0,0,.4.21l4.294,1.753a2.62,2.62,0,0,0,3.412-1.433l1.752-4.294a2.619,2.619,0,0,0-1.433-3.412l-4.292-1.752a2.506,2.506,0,0,0-.434-.132,22.224,22.224,0,0,0-.067-7.765,2.566,2.566,0,0,0,.441-.137l4.267-1.817a2.619,2.619,0,0,0,1.382-3.432l-1.815-4.267a2.62,2.62,0,0,0-3.432-1.382l-4.267,1.815a2.583,2.583,0,0,0-.4.222,22.234,22.234,0,0,0-5.377-5.309,2.723,2.723,0,0,0,.21-.4l1.752-4.292a2.619,2.619,0,0,0-1.433-3.412l-4.292-1.753a2.619,2.619,0,0,0-3.412,1.433M208.08,193.4a12.289,12.289,0,1,1-6.731-16.023A12.3,12.3,0,0,1,208.08,193.4" transform="translate(4632.823 -10980.41)" fill="#949af8"/>
        <path id="Trazado_819201" data-name="Trazado 819201" d="M178.163,144.325l-2.282,2.312a1.942,1.942,0,0,0-.2.246,15.577,15.577,0,0,0-5.045-2.03,1.7,1.7,0,0,0,.028-.322l-.036-3.249a1.836,1.836,0,0,0-1.854-1.812l-3.247.037a1.836,1.836,0,0,0-1.813,1.854l.037,3.247a1.91,1.91,0,0,0,.035.321,15.556,15.556,0,0,0-4.874,2.064,1.859,1.859,0,0,0-.2-.242l-2.312-2.283a1.835,1.835,0,0,0-2.592.018l-2.282,2.312a1.835,1.835,0,0,0,.017,2.592l2.312,2.282a1.755,1.755,0,0,0,.246.2,15.589,15.589,0,0,0-2.03,5.045,1.919,1.919,0,0,0-.322-.028l-3.249.037a1.82,1.82,0,0,0-1.283.544l-.006.007a1.817,1.817,0,0,0-.522,1.3l.037,3.247a1.834,1.834,0,0,0,1.853,1.812l3.249-.036a1.9,1.9,0,0,0,.321-.036,15.574,15.574,0,0,0,2.064,4.875,1.758,1.758,0,0,0-.242.2l-2.282,2.313a1.833,1.833,0,0,0,.017,2.592l2.312,2.282a1.836,1.836,0,0,0,2.592-.017l2.282-2.313a1.684,1.684,0,0,0,.2-.246,15.561,15.561,0,0,0,5.046,2.031,1.8,1.8,0,0,0-.029.322l.037,3.247a1.831,1.831,0,0,0,1.853,1.812l3.249-.036a1.835,1.835,0,0,0,1.812-1.854l-.036-3.247a1.766,1.766,0,0,0-.037-.321,15.57,15.57,0,0,0,4.876-2.065,1.7,1.7,0,0,0,.2.243l2.312,2.282a1.835,1.835,0,0,0,2.592-.017l2.282-2.312a1.837,1.837,0,0,0-.017-2.593l-2.313-2.282a1.86,1.86,0,0,0-.246-.2,15.56,15.56,0,0,0,2.031-5.046,1.78,1.78,0,0,0,.322.03l3.247-.037a1.835,1.835,0,0,0,1.812-1.854l-.036-3.247a1.837,1.837,0,0,0-1.854-1.813l-3.247.037a1.9,1.9,0,0,0-.321.035,15.558,15.558,0,0,0-2.065-4.874,1.867,1.867,0,0,0,.243-.2l2.282-2.312a1.835,1.835,0,0,0-.017-2.592l-2.312-2.282A1.836,1.836,0,0,0,178.163,144.325Zm-4.653,21.892a8.609,8.609,0,1,1-.08-12.174A8.618,8.618,0,0,1,173.51,166.217Z" transform="translate(4628.536 -10984.551)" fill="none" stroke="#b19cfe" stroke-miterlimit="10" stroke-width="0.5"/>
        <path id="Trazado_819202" data-name="Trazado 819202" d="M386.654,60.846l-5.814,1.245a3.373,3.373,0,0,0-.556.174,28.516,28.516,0,0,0-5.679-8.176,3.323,3.323,0,0,0,.367-.466l3.208-5.007a3.36,3.36,0,0,0-1.016-4.635l-5.007-3.208a3.359,3.359,0,0,0-4.635,1.016L364.314,46.8a3.456,3.456,0,0,0-.27.526,28.493,28.493,0,0,0-9.531-1.739,3.292,3.292,0,0,0-.07-.578L353.2,39.191a3.361,3.361,0,0,0-3.984-2.579L343.4,37.857a3.359,3.359,0,0,0-2.579,3.983l1.245,5.815a3.391,3.391,0,0,0,.174.555,28.516,28.516,0,0,0-8.176,5.679,3.386,3.386,0,0,0-.465-.367l-5.008-3.207a3.33,3.33,0,0,0-2.512-.457l-.016,0a3.334,3.334,0,0,0-2.108,1.468l-3.207,5.007h0a3.36,3.36,0,0,0,1.016,4.635l5.007,3.208a3.254,3.254,0,0,0,.527.267,28.478,28.478,0,0,0-1.74,9.534,3.317,3.317,0,0,0-.578.07L319.167,75.3a3.361,3.361,0,0,0-2.579,3.984l1.245,5.814a3.361,3.361,0,0,0,3.984,2.579l5.814-1.245a3.394,3.394,0,0,0,.555-.174,28.509,28.509,0,0,0,5.68,8.177,3.419,3.419,0,0,0-.368.464L330.292,99.9a3.355,3.355,0,0,0,1.015,4.636l5.007,3.208a3.359,3.359,0,0,0,4.636-1.016l3.207-5.007a3.248,3.248,0,0,0,.267-.527,28.514,28.514,0,0,0,9.534,1.74,3.319,3.319,0,0,0,.07.578l1.245,5.814a3.359,3.359,0,0,0,3.983,2.579l5.814-1.245a3.36,3.36,0,0,0,2.579-3.984l-1.245-5.813a3.262,3.262,0,0,0-.174-.556,28.49,28.49,0,0,0,8.177-5.681,3.409,3.409,0,0,0,.464.369l5.008,3.208a3.361,3.361,0,0,0,4.635-1.016l3.208-5.007a3.36,3.36,0,0,0-1.015-4.635L381.7,84.338a3.352,3.352,0,0,0-.526-.27,28.5,28.5,0,0,0,1.739-9.531,3.291,3.291,0,0,0,.578-.07l5.814-1.245a3.359,3.359,0,0,0,2.579-3.983l-1.245-5.814a3.359,3.359,0,0,0-3.983-2.579M357.535,89.669a15.759,15.759,0,1,1,12.11-18.709,15.777,15.777,0,0,1-12.11,18.709" transform="translate(4662.217 -11004.964)" fill="#0f1b63"/>
        <g id="Grupo_1071958" data-name="Grupo 1071958" transform="translate(4674.425 -10836.574)">
          <path id="Trazado_819172" data-name="Trazado 819172" d="M138.519,190.176H73.526a10.882,10.882,0,0,1-10.882-10.882V157.68A10.883,10.883,0,0,1,73.526,146.8h64.993A10.883,10.883,0,0,1,149.4,157.68v21.614a10.882,10.882,0,0,1-10.882,10.882" transform="translate(-62.644 -146.797)" fill="#2b5cf9"/>
          <path id="Trazado_819207" data-name="Trazado 819207" d="M4.913,1.716c3.8,0,5.8-1.957,5.8-5.94V-14.676H1.345v2.993H7.008v7.666c0,1.773-.783,2.671-2.279,2.671A3.7,3.7,0,0,1,1.736-3.119L-.336-.632A6.482,6.482,0,0,0,4.913,1.716Zm14.78,0c4.6,0,6.838-2.3,6.838-5,0-5.917-9.37-3.868-9.37-6.838,0-1.013.852-1.842,3.062-1.842a9.1,9.1,0,0,1,4.466,1.266l1.151-2.832a10.81,10.81,0,0,0-5.594-1.427c-4.581,0-6.791,2.279-6.791,5.019,0,5.986,9.37,3.914,9.37,6.93,0,.99-.9,1.727-3.108,1.727A9.479,9.479,0,0,1,14.4-2.958L13.132-.149A11.486,11.486,0,0,0,19.693,1.716Z" transform="translate(29.936 28.108)" fill="#fff"/>
        </g>
        <g id="Grupo_1071960" data-name="Grupo 1071960" transform="translate(4646.815 -10991.255)">
          <path id="Trazado_819168" data-name="Trazado 819168" d="M113.286,71.592A20.659,20.659,0,0,0,95,51.074,18.341,18.341,0,0,0,76.709,30.547a18.319,18.319,0,0,0-7.629,1.669A27.578,27.578,0,0,0,18.274,47.085a27.867,27.867,0,0,0,.285,3.948,20.666,20.666,0,0,0,2.105,41.224h72.98V92.2a20.647,20.647,0,0,0,19.641-20.612" transform="translate(0 -19.503)" fill="#949af8"/>
          <path id="Trazado_819169" data-name="Trazado 819169" d="M64.064,98.688V66.582H37.593V98.688H29.318l21.51,20.152,21.51-20.152Z" transform="translate(5.815 -10.166)" fill="#ffc655"/>
        </g>
      </g>
      <g id="Grupo_1071955" data-name="Grupo 1071955" transform="translate(-4509.687 11481)">
        <path id="Trazado_819179" data-name="Trazado 819179" d="M435.023,206.675H375.737a9.927,9.927,0,0,1-9.926-9.926V177.033a9.926,9.926,0,0,1,9.926-9.926h59.285a9.926,9.926,0,0,1,9.926,9.926v19.716a9.927,9.927,0,0,1-9.926,9.926" transform="translate(4637.655 -10996.657)" fill="#2b5cf9"/>
        <path id="Trazado_819204" data-name="Trazado 819204" d="M4.028.228c3.135,0,4.788-1.615,4.788-4.9V-13.3H1.083v2.47H5.757V-4.5c0,1.463-.646,2.2-1.881,2.2a3.055,3.055,0,0,1-2.47-1.463L-.3-1.71A5.349,5.349,0,0,0,4.028.228ZM21.242,0h3.23L18.525-13.3h-3.04L9.557,0h3.154l1.178-2.85h6.175ZM14.877-5.187l2.109-5.092,2.109,5.092ZM34.162-13.3l-4.1,9.5-4.047-9.5H22.686L28.424,0h3.04l5.757-13.3ZM47.12,0h3.23L44.4-13.3h-3.04L35.435,0h3.154l1.178-2.85h6.175ZM40.755-5.187l2.109-5.092,2.109,5.092Z" transform="translate(5016.418 -10804.804)" fill="#fff"/>
      </g>
      <g id="Grupo_1071959" data-name="Grupo 1071959" transform="translate(-4671.95 11621)">
        <path id="Trazado_819170" data-name="Trazado 819170" d="M308.234,79.009H248.948a9.927,9.927,0,0,1-9.926-9.926V49.367a9.927,9.927,0,0,1,9.926-9.926h59.285a9.927,9.927,0,0,1,9.926,9.926V69.083a9.927,9.927,0,0,1-9.926,9.926" transform="translate(4625.854 -11008.54)" fill="#2b5cf9"/>
        <path id="Trazado_819203" data-name="Trazado 819203" d="M268.889,54.661l-9.1,3.334,9.1,3.305v3.415l-13-4.945V56.218l13-4.945Zm9.785-10.108h3.8l-9.016,25.735h-3.8Zm17.3,11.665V59.77l-13,4.945V61.3l9.1-3.305-9.1-3.334V51.273Z" transform="translate(4627.423 -11008.064)" fill="#fff"/>
      </g>
      <g id="Grupo_1071956" data-name="Grupo 1071956" transform="translate(-4480.55 11729.57)">
        <path id="Trazado_819178" data-name="Trazado 819178" d="M335.189,322.862H266.021a11.581,11.581,0,0,1-11.581-11.581v-23A11.582,11.582,0,0,1,266.021,276.7h69.168a11.582,11.582,0,0,1,11.581,11.582v23a11.581,11.581,0,0,1-11.581,11.581" transform="translate(4627.56 -10986.696)" fill="#2b5cf9"/>
        <path id="Trazado_819205" data-name="Trazado 819205" d="M12.511,3.45A10.91,10.91,0,0,0,21.277-.342L18.122-3.254A6.767,6.767,0,0,1,12.784-.736,6.514,6.514,0,0,1,5.989-7.531a6.514,6.514,0,0,1,6.795-6.795,6.832,6.832,0,0,1,5.339,2.487l3.155-2.912a10.962,10.962,0,0,0-8.736-3.761c-6.613,0-11.527,4.58-11.527,10.981S5.928,3.45,12.511,3.45ZM38.052-9.381H32.774v-5.157H28.861v5.157H23.613v3.7h5.248V-.524h3.913V-5.681h5.278Zm18.534,0H51.308v-5.157H47.395v5.157H42.147v3.7h5.248V-.524h3.913V-5.681h5.278Z" transform="translate(4898.486 -10678.654)" fill="#fff"/>
      </g>
      <g id="Grupo_1071957" data-name="Grupo 1071957" transform="translate(-4451.074 11664)">
        <path id="Trazado_819171" data-name="Trazado 819171" d="M105.776,339.505H46.49a9.927,9.927,0,0,1-9.926-9.926V309.863a9.927,9.927,0,0,1,9.926-9.927h59.285a9.927,9.927,0,0,1,9.926,9.927v19.716a9.927,9.927,0,0,1-9.926,9.926" transform="translate(4607.436 -10983.936)" fill="#2b5cf9"/>
        <path id="Trazado_819206" data-name="Trazado 819206" d="M10.7-13.3v5.244H4.655V-13.3H1.577V0H4.655V-5.453H10.7V0h3.078V-13.3ZM19.684,0h3.078V-10.792h4.256V-13.3H15.428v2.508h4.256ZM43.662,0l-.038-13.3H41.1l-4.9,8.265L31.217-13.3H28.671V0h2.888V-7.809l3.895,6.4h1.387L40.755-7.98,40.774,0Zm3.154,0h9.747V-2.508H49.894V-13.3H46.816Z" transform="translate(4654.423 -10657.7)" fill="#fff"/>
      </g>
    </g>
  </g>
</svg>
