<svg xmlns="http://www.w3.org/2000/svg" width="85" height="67" viewBox="0 0 85 67">
  <g id="Grupo_1071811" data-name="Grupo 1071811" transform="translate(-180 -1475)">
    <rect id="Rectángulo_375726" data-name="Rectángulo 375726" width="85" height="67" rx="6" transform="translate(180 1475)" fill="#949af8"/>
    <g id="Grupo_1071810" data-name="Grupo 1071810" transform="translate(190.801 1477.885)">
      <g id="cuaderno" transform="translate(7.199 4.115)">
        <g id="Grupo_1071582" data-name="Grupo 1071582" transform="translate(0.781 0.781)">
          <g id="Grupo_1071563" data-name="Grupo 1071563" transform="translate(39.436 32.092)">
            <path id="Trazado_818066" data-name="Trazado 818066" d="M414.781,324.967h-5.392v-9.419h5.392a2.084,2.084,0,0,1,2.084,2.084v5.252A2.083,2.083,0,0,1,414.781,324.967Z" transform="translate(-409.389 -315.548)" fill="#ff8086"/>
          </g>
          <g id="Grupo_1071564" data-name="Grupo 1071564" transform="translate(39.436 32.092)">
            <path id="Trazado_818067" data-name="Trazado 818067" d="M409.389,315.548h4.687v9.419h-4.687Z" transform="translate(-409.389 -315.548)" fill="#f46c7a"/>
          </g>
          <g id="Grupo_1071565" data-name="Grupo 1071565" transform="translate(39.436 8.97)">
            <path id="Trazado_818068" data-name="Trazado 818068" d="M414.781,112.052h-5.392V93.6h5.392a2.084,2.084,0,0,1,2.084,2.084v14.285A2.084,2.084,0,0,1,414.781,112.052Z" transform="translate(-409.389 -93.6)" fill="#ff8086"/>
          </g>
          <g id="Grupo_1071566" data-name="Grupo 1071566" transform="translate(39.436 8.97)">
            <path id="Trazado_818069" data-name="Trazado 818069" d="M409.389,93.6h4.687v9.414h-4.687Z" transform="translate(-409.389 -93.6)" fill="#f46c7a"/>
          </g>
          <g id="Grupo_1071567" data-name="Grupo 1071567" transform="translate(39.436 18.383)">
            <path id="Trazado_818070" data-name="Trazado 818070" d="M409.389,183.96V193h5.392a2.084,2.084,0,0,0,2.084-2.084V183.96Z" transform="translate(-409.389 -183.96)" fill="#a4ccff"/>
          </g>
          <g id="Grupo_1071568" data-name="Grupo 1071568" transform="translate(39.436 18.383)">
            <path id="Trazado_818071" data-name="Trazado 818071" d="M409.389,183.96h4.687V193h-4.687Z" transform="translate(-409.389 -183.96)" fill="#8bb3ea"/>
          </g>
          <g id="Grupo_1071569" data-name="Grupo 1071569" transform="translate(3.521)">
            <path id="Trazado_818072" data-name="Trazado 818072" d="M64.645,9.063V57.714a1.563,1.563,0,0,0,1.563,1.563H99.76a3.646,3.646,0,0,0,3.646-3.646V11.667A4.167,4.167,0,0,0,99.239,7.5H66.208A1.563,1.563,0,0,0,64.645,9.063Z" transform="translate(-64.645 -7.5)" fill="#0ed2b3"/>
          </g>
          <g id="Grupo_1071570" data-name="Grupo 1071570" transform="translate(3.521)">
            <path id="Trazado_818073" data-name="Trazado 818073" d="M67.5,57.714V9.063A1.563,1.563,0,0,1,69.058,7.5h-2.85a1.563,1.563,0,0,0-1.563,1.563V57.714a1.563,1.563,0,0,0,1.563,1.563h2.85A1.563,1.563,0,0,1,67.5,57.714Z" transform="translate(-64.645 -7.5)" fill="#0ab69f"/>
          </g>
          <g id="Grupo_1071571" data-name="Grupo 1071571" transform="translate(14.394 8.615)">
            <path id="Trazado_818074" data-name="Trazado 818074" d="M182.761,98.352h-12.7a1.042,1.042,0,0,1-1.042-1.042V91.236a1.042,1.042,0,0,1,1.042-1.042h12.7a1.042,1.042,0,0,1,1.042,1.042v6.075A1.042,1.042,0,0,1,182.761,98.352Z" transform="translate(-169.014 -90.194)" fill="#eef5f6"/>
          </g>
          <g id="Grupo_1071572" data-name="Grupo 1071572" transform="translate(14.394 8.615)">
            <path id="Trazado_818075" data-name="Trazado 818075" d="M170.839,97.311V91.236a1.042,1.042,0,0,1,1.042-1.042h-1.825a1.042,1.042,0,0,0-1.042,1.042v6.075a1.042,1.042,0,0,0,1.042,1.042h1.825A1.042,1.042,0,0,1,170.839,97.311Z" transform="translate(-169.014 -90.194)" fill="#deecf1"/>
          </g>
          <g id="Grupo_1071573" data-name="Grupo 1071573" transform="translate(32.922)">
            <path id="Trazado_818076" data-name="Trazado 818076" d="M346.867,7.5h3.55V59.277h-3.55Z" transform="translate(-346.867 -7.5)" fill="#89b4c9"/>
          </g>
          <g id="Grupo_1071574" data-name="Grupo 1071574" transform="translate(0 8.216)">
            <path id="Trazado_818077" data-name="Trazado 818077" d="M36.539,90.513H32.206a1.354,1.354,0,0,1-1.354-1.354V87.717a1.354,1.354,0,0,1,1.354-1.354h4.333a1.354,1.354,0,0,1,1.354,1.354v1.441A1.354,1.354,0,0,1,36.539,90.513Z" transform="translate(-30.852 -86.363)" fill="#eef5f6"/>
          </g>
          <g id="Grupo_1071575" data-name="Grupo 1071575" transform="translate(0 18.614)">
            <path id="Trazado_818078" data-name="Trazado 818078" d="M36.539,190.327H32.206a1.354,1.354,0,0,1-1.354-1.354v-1.441a1.354,1.354,0,0,1,1.354-1.354h4.333a1.354,1.354,0,0,1,1.354,1.354v1.441A1.354,1.354,0,0,1,36.539,190.327Z" transform="translate(-30.852 -186.177)" fill="#eef5f6"/>
          </g>
          <g id="Grupo_1071576" data-name="Grupo 1071576" transform="translate(0 29.013)">
            <path id="Trazado_818079" data-name="Trazado 818079" d="M36.539,290.141H32.206a1.354,1.354,0,0,1-1.354-1.354v-1.441a1.354,1.354,0,0,1,1.354-1.354h4.333a1.354,1.354,0,0,1,1.354,1.354v1.441A1.354,1.354,0,0,1,36.539,290.141Z" transform="translate(-30.852 -285.991)" fill="#eef5f6"/>
          </g>
          <g id="Grupo_1071577" data-name="Grupo 1071577" transform="translate(0 39.412)">
            <path id="Trazado_818080" data-name="Trazado 818080" d="M36.539,389.955H32.206a1.354,1.354,0,0,1-1.354-1.354v-1.441a1.354,1.354,0,0,1,1.354-1.354h4.333a1.354,1.354,0,0,1,1.354,1.354V388.6A1.354,1.354,0,0,1,36.539,389.955Z" transform="translate(-30.852 -385.805)" fill="#eef5f6"/>
          </g>
          <g id="Grupo_1071578" data-name="Grupo 1071578" transform="translate(0 8.216)">
            <path id="Trazado_818081" data-name="Trazado 818081" d="M32.821,89.158V87.717a1.354,1.354,0,0,1,1.354-1.354H32.206a1.354,1.354,0,0,0-1.354,1.354v1.441a1.354,1.354,0,0,0,1.354,1.354h1.969A1.354,1.354,0,0,1,32.821,89.158Z" transform="translate(-30.852 -86.363)" fill="#deecf1"/>
          </g>
          <g id="Grupo_1071579" data-name="Grupo 1071579" transform="translate(0 18.614)">
            <path id="Trazado_818082" data-name="Trazado 818082" d="M32.821,188.971V187.53a1.354,1.354,0,0,1,1.354-1.354H32.206a1.354,1.354,0,0,0-1.354,1.354v1.441a1.354,1.354,0,0,0,1.354,1.354h1.969A1.354,1.354,0,0,1,32.821,188.971Z" transform="translate(-30.852 -186.176)" fill="#deecf1"/>
          </g>
          <g id="Grupo_1071580" data-name="Grupo 1071580" transform="translate(0 29.013)">
            <path id="Trazado_818083" data-name="Trazado 818083" d="M32.821,288.785v-1.441a1.354,1.354,0,0,1,1.354-1.354H32.206a1.354,1.354,0,0,0-1.354,1.354v1.441a1.354,1.354,0,0,0,1.354,1.354h1.969A1.354,1.354,0,0,1,32.821,288.785Z" transform="translate(-30.852 -285.99)" fill="#deecf1"/>
          </g>
          <g id="Grupo_1071581" data-name="Grupo 1071581" transform="translate(0 39.411)">
            <path id="Trazado_818084" data-name="Trazado 818084" d="M32.821,388.6v-1.441a1.354,1.354,0,0,1,1.354-1.354H32.206a1.354,1.354,0,0,0-1.354,1.354V388.6a1.354,1.354,0,0,0,1.354,1.354h1.969A1.354,1.354,0,0,1,32.821,388.6Z" transform="translate(-30.852 -385.804)" fill="#deecf1"/>
          </g>
        </g>
        <g id="Grupo_1071583" data-name="Grupo 1071583">
          <path id="Trazado_818085" data-name="Trazado 818085" d="M227.78,8.97h-1.765V4.949A4.954,4.954,0,0,0,221.066,0h-9.519a.781.781,0,0,0,0,1.563h3.545v30.1a.781.781,0,0,0,1.563,0V1.563h1.987V51.777h-1.987V35.492a.781.781,0,0,0-1.563,0V51.777H201.421a.781.781,0,1,0,0,1.563h20.166a4.433,4.433,0,0,0,4.428-4.428V43.074h1.765a2.868,2.868,0,0,0,2.865-2.865V34.957a2.868,2.868,0,0,0-2.865-2.865h-1.765V28.985h1.765a2.868,2.868,0,0,0,2.865-2.865V11.835A2.868,2.868,0,0,0,227.78,8.97Zm0,1.563a1.3,1.3,0,0,1,1.3,1.3v6.549h-3.067V10.533Zm-3.328,38.38a2.868,2.868,0,0,1-2.865,2.865H220.2V1.563h.861a3.39,3.39,0,0,1,3.386,3.386Zm3.328-15.257a1.3,1.3,0,0,1,1.3,1.3v5.252a1.3,1.3,0,0,1-1.3,1.3h-1.765V33.655Zm0-6.233h-1.765V19.946h3.067V26.12a1.3,1.3,0,0,1-1.3,1.3Z" transform="translate(-182.17 0)"/>
          <path id="Trazado_818086" data-name="Trazado 818086" d="M38.526,51.777H29.216A.782.782,0,0,1,28.434,51V45.124h1.385a2.138,2.138,0,0,0,2.136-2.136V41.547a2.138,2.138,0,0,0-2.136-2.136H28.434V34.725h1.385a2.138,2.138,0,0,0,2.136-2.136V31.149a2.138,2.138,0,0,0-2.136-2.136H28.434V24.327h1.385a2.138,2.138,0,0,0,2.136-2.136V20.75a2.138,2.138,0,0,0-2.136-2.136H28.434V13.928h1.385a2.138,2.138,0,0,0,2.136-2.136V10.352a2.138,2.138,0,0,0-2.136-2.136H28.434V2.344a.782.782,0,0,1,.781-.781h19.7A.781.781,0,1,0,48.92,0h-19.7a2.347,2.347,0,0,0-2.344,2.344V8.216H25.487a2.138,2.138,0,0,0-2.136,2.136v1.441a2.138,2.138,0,0,0,2.136,2.136h1.385v4.686H25.487a2.138,2.138,0,0,0-2.136,2.136v1.441a2.138,2.138,0,0,0,2.136,2.136h1.385v4.686H25.487a2.138,2.138,0,0,0-2.136,2.136V32.59a2.138,2.138,0,0,0,2.136,2.136h1.385v4.686H25.487a2.138,2.138,0,0,0-2.136,2.136v1.441a2.138,2.138,0,0,0,2.136,2.136h1.385V51a2.347,2.347,0,0,0,2.344,2.344h9.311a.781.781,0,1,0,0-1.563ZM24.914,11.793V10.352a.574.574,0,0,1,.573-.573h4.333a.574.574,0,0,1,.573.573v1.441a.574.574,0,0,1-.573.573H25.487A.574.574,0,0,1,24.914,11.793Zm0,10.4V20.75a.574.574,0,0,1,.573-.573h4.333a.574.574,0,0,1,.573.573v1.441a.574.574,0,0,1-.573.573H25.487A.574.574,0,0,1,24.914,22.191Zm0,10.4V31.149a.574.574,0,0,1,.573-.573h4.333a.574.574,0,0,1,.573.573V32.59a.574.574,0,0,1-.573.573H25.487A.574.574,0,0,1,24.914,32.59Zm0,10.4V41.547a.574.574,0,0,1,.573-.573h4.333a.574.574,0,0,1,.573.573v1.441a.574.574,0,0,1-.573.573H25.487A.574.574,0,0,1,24.914,42.988Z" transform="translate(-23.351 0)"/>
          <path id="Trazado_818087" data-name="Trazado 818087" d="M177.865,90.592V84.517a1.825,1.825,0,0,0-1.823-1.823h-12.7a1.825,1.825,0,0,0-1.823,1.823v6.075a1.825,1.825,0,0,0,1.823,1.823h12.7A1.825,1.825,0,0,0,177.865,90.592Zm-14.788,0V84.517a.261.261,0,0,1,.26-.26h12.7a.261.261,0,0,1,.26.26v6.075a.261.261,0,0,1-.26.26h-12.7A.261.261,0,0,1,163.077,90.592Z" transform="translate(-147.12 -74.079)"/>
          <path id="Trazado_818088" data-name="Trazado 818088" d="M203.062,121.849h-7.951a.781.781,0,1,0,0,1.563h7.951a.781.781,0,0,0,0-1.563Z" transform="translate(-176.518 -109.155)"/>
        </g>
      </g>
    </g>
  </g>
</svg>
