<svg xmlns="http://www.w3.org/2000/svg" width="92" height="92" viewBox="0 0 92 92">
  <g id="Grupo_1071718" data-name="Grupo 1071718" transform="translate(0.167 -0.029)">
    <path id="Trazado_813500" data-name="Trazado 813500" d="M46,0A46,46,0,1,0,92,46,46,46,0,0,0,46,0Z" transform="translate(-0.167 0.029)" fill="#949af8"/>
    <g id="internet" transform="translate(13.833 -22.703)">
      <g id="Grupo_1071830" data-name="Grupo 1071830" transform="translate(0.942 52.278)">
        <g id="Grupo_1071829" data-name="Grupo 1071829" transform="translate(0 0)">
          <path id="Trazado_818714" data-name="Trazado 818714" d="M8.125,125.724,7.5,126.85v32.541a3.888,3.888,0,0,0,3.888,3.888H66.016a3.888,3.888,0,0,0,3.888-3.888V126.85l-.625-1.126H8.125Z" transform="translate(-7.5 -125.724)" fill="#ddeafb"/>
        </g>
      </g>
      <g id="Grupo_1071832" data-name="Grupo 1071832" transform="translate(0.942 52.278)">
        <g id="Grupo_1071831" data-name="Grupo 1071831" transform="translate(0 0)">
          <path id="Trazado_818715" data-name="Trazado 818715" d="M63.538,125.724v27.3a3.888,3.888,0,0,1-3.888,3.888H7.5v2.478a3.888,3.888,0,0,0,3.888,3.888H66.016a3.888,3.888,0,0,0,3.888-3.888V126.85l-.625-1.126H63.538Z" transform="translate(-7.5 -125.724)" fill="#cbe2ff"/>
        </g>
      </g>
      <g id="Grupo_1071834" data-name="Grupo 1071834" transform="translate(0.942 42.674)">
        <g id="Grupo_1071833" data-name="Grupo 1071833" transform="translate(0 0)">
          <path id="Trazado_818716" data-name="Trazado 818716" d="M66.016,49.232H11.388A3.888,3.888,0,0,0,7.5,53.12v6.842H69.9V53.12A3.888,3.888,0,0,0,66.016,49.232Z" transform="translate(-7.5 -49.232)" fill="#698ed5"/>
        </g>
      </g>
      <g id="Grupo_1071836" data-name="Grupo 1071836" transform="translate(56.979 42.674)">
        <g id="Grupo_1071835" data-name="Grupo 1071835" transform="translate(0 0)">
          <path id="Trazado_818717" data-name="Trazado 818717" d="M456.273,49.232h-2.478v10.73h6.367V53.12A3.888,3.888,0,0,0,456.273,49.232Z" transform="translate(-453.795 -49.232)" fill="#4073c8"/>
        </g>
      </g>
      <g id="Grupo_1071841" data-name="Grupo 1071841" transform="translate(18.221 76.739)">
        <g id="Grupo_1071837" data-name="Grupo 1071837" transform="translate(10.09 10.09)">
          <path id="Trazado_818718" data-name="Trazado 818718" d="M233.065,405.589l-4.7-4.7-2.889,2.889,4.7,4.7a.628.628,0,0,0,.888,0l2-2A.628.628,0,0,0,233.065,405.589Z" transform="translate(-225.479 -400.892)" fill="#f6f1f1"/>
        </g>
        <g id="Grupo_1071838" data-name="Grupo 1071838" transform="translate(10.09 11.673)">
          <path id="Trazado_818719" data-name="Trazado 818719" d="M232.2,415.748l-1.139,1.139a.628.628,0,0,1-.888,0l-3.39-3.39L225.48,414.8l4.7,4.7a.628.628,0,0,0,.888,0l2-2a.628.628,0,0,0,0-.888Z" transform="translate(-225.48 -413.496)" fill="#efe7e4"/>
        </g>
        <g id="Grupo_1071839" data-name="Grupo 1071839">
          <path id="Trazado_818720" data-name="Trazado 818720" d="M145.967,320.573l16.591,6.175a.5.5,0,0,1,.18.826L152.16,338.151a.5.5,0,0,1-.826-.18L145.16,321.38A.628.628,0,0,1,145.967,320.573Z" transform="translate(-145.119 -320.532)" fill="#f6f1f1"/>
        </g>
        <g id="Grupo_1071840" data-name="Grupo 1071840" transform="translate(0)">
          <path id="Trazado_818721" data-name="Trazado 818721" d="M162.559,326.748l-2.161-.8-7.068,7.068a.5.5,0,0,1-.826-.18l-4.245-11.406-2.291-.853a.628.628,0,0,0-.807.807l6.175,16.591a.5.5,0,0,0,.826.18l10.578-10.578A.5.5,0,0,0,162.559,326.748Z" transform="translate(-145.12 -320.532)" fill="#efe7e4"/>
        </g>
      </g>
      <g id="Grupo_1071842" data-name="Grupo 1071842" transform="translate(0 41.732)">
        <path id="Trazado_818722" data-name="Trazado 818722" d="M46.7,248.763H34.595L33.328,247.5l3.179-3.179a1.444,1.444,0,0,0-.517-2.374L19.4,235.769a1.57,1.57,0,0,0-2.018,2.018l4.085,10.976H4.83a2.95,2.95,0,0,1-2.946-2.946V225.5A.942.942,0,1,0,0,225.5v20.315a4.835,4.835,0,0,0,4.83,4.83H22.166l1.389,3.732a1.444,1.444,0,0,0,2.374.518l3.179-3.178,3.236,3.236a1.572,1.572,0,0,0,2.219,0l2-2a1.572,1.572,0,0,0,0-2.22h0l-.085-.085H46.7a.942.942,0,0,0,0-1.884ZM33.453,253.4l-3.679-3.679a.942.942,0,0,0-1.332,0l-3.361,3.361-5.7-15.307,15.307,5.7L31.33,246.83a.942.942,0,0,0,0,1.332l3.679,3.679Z" transform="translate(0 -201.604)"/>
        <path id="Trazado_818723" data-name="Trazado 818723" d="M59.458,41.732H56.165a.942.942,0,1,0,0,1.883h3.292A2.95,2.95,0,0,1,62.4,46.562v5.9H1.883v-5.9A2.95,2.95,0,0,1,4.83,43.615H51.81a.942.942,0,0,0,0-1.883H4.83A4.835,4.835,0,0,0,0,46.562v14.83a.942.942,0,0,0,1.883,0V54.346H62.4v31.6a2.95,2.95,0,0,1-2.946,2.946H51.213a.942.942,0,0,0,0,1.883h8.244a4.835,4.835,0,0,0,4.83-4.83V46.562A4.835,4.835,0,0,0,59.458,41.732Z" transform="translate(0 -41.732)"/>
        <path id="Trazado_818724" data-name="Trazado 818724" d="M49.7,79.813a1.744,1.744,0,1,0,1.744-1.744A1.744,1.744,0,0,0,49.7,79.813Z" transform="translate(-43.458 -73.506)"/>
        <path id="Trazado_818725" data-name="Trazado 818725" d="M92.434,79.813a1.744,1.744,0,1,0,1.744-1.744A1.744,1.744,0,0,0,92.434,79.813Z" transform="translate(-80.828 -73.506)"/>
        <path id="Trazado_818726" data-name="Trazado 818726" d="M135.17,79.813a1.744,1.744,0,1,0,1.744-1.744A1.744,1.744,0,0,0,135.17,79.813Z" transform="translate(-118.198 -73.506)"/>
        <path id="Trazado_818727" data-name="Trazado 818727" d="M63.721,230.98h.005a.942.942,0,0,0,.887-.626l2.333-6.546,2.229,6.534a.942.942,0,0,0,.887.638h0a.942.942,0,0,0,.889-.63l3.162-9.021a.942.942,0,0,0-1.778-.623l-2.261,6.451-2.221-6.512a.948.948,0,0,0-1.778-.012l-2.336,6.555-2.222-6.466a.942.942,0,0,0-1.781.612l3.1,9.011A.942.942,0,0,0,63.721,230.98Z" transform="translate(-52.194 -197.634)"/>
        <path id="Trazado_818728" data-name="Trazado 818728" d="M202.488,230.98h.005a.942.942,0,0,0,.887-.626l2.333-6.546,2.229,6.534a.942.942,0,0,0,.887.638h0a.942.942,0,0,0,.889-.63l3.162-9.021a.942.942,0,1,0-1.778-.623l-2.261,6.451-2.221-6.512a.948.948,0,0,0-1.778-.012l-2.336,6.555-2.222-6.466a.942.942,0,0,0-1.781.612l3.1,9.011A.942.942,0,0,0,202.488,230.98Z" transform="translate(-173.537 -197.633)"/>
        <path id="Trazado_818729" data-name="Trazado 818729" d="M339,230.98h.005a.942.942,0,0,0,.887-.626l2.333-6.546,2.229,6.534a.942.942,0,0,0,.887.638h0a.942.942,0,0,0,.889-.63l3.162-9.021a.942.942,0,1,0-1.778-.623l-2.261,6.451-2.221-6.512a.948.948,0,0,0-1.778-.012l-2.336,6.555-2.222-6.466a.942.942,0,0,0-1.781.612l3.1,9.011A.942.942,0,0,0,339,230.98Z" transform="translate(-292.911 -197.634)"/>
      </g>
    </g>
  </g>
</svg>
