<svg xmlns="http://www.w3.org/2000/svg" xmlns:xlink="http://www.w3.org/1999/xlink" width="92" height="91" viewBox="0 0 92 91">
  <defs>
    <clipPath id="clip-path">
      <rect id="Rectángulo_375803" data-name="Rectángulo 375803" width="77" height="64" transform="translate(0 0)" fill="none"/>
    </clipPath>
  </defs>
  <g id="Grupo_1071922" data-name="Grupo 1071922" transform="translate(-859 -1490)">
    <rect id="Rectángulo_375715" data-name="Rectángulo 375715" width="92" height="91" rx="13" transform="translate(859 1490)" fill="#fff"/>
    <g id="Grupo_1071921" data-name="Grupo 1071921" transform="translate(867 1503.609)">
      <rect id="Rectángulo_375801" data-name="Rectángulo 375801" width="23" height="62" transform="translate(53 1.391)" fill="#b7b6b7"/>
      <path id="Trazado_819133" data-name="Trazado 819133" d="M162.034,351.729,160.088,344H145.945L144,351.729" transform="translate(-120.814 -288.459)" fill="#484c4f"/>
      <path id="Trazado_819134" data-name="Trazado 819134" d="M11.864,129.219H8V88H69.829v41.219H19.593" transform="translate(-6.712 -73.679)" fill="#4a8cdd"/>
      <g id="Grupo_1071920" data-name="Grupo 1071920" transform="translate(0 0.391)">
        <g id="Grupo_1071919" data-name="Grupo 1071919" clip-path="url(#clip-path)">
          <path id="Trazado_819135" data-name="Trazado 819135" d="M65.965,88v34.779a2.576,2.576,0,0,1-2.576,2.576H8v3.864H69.829V88Z" transform="translate(-6.712 -74.07)" fill="#356baa"/>
          <path id="Trazado_819136" data-name="Trazado 819136" d="M172.355,145.517a3.31,3.31,0,0,1-.515,3.182,15.25,15.25,0,0,0,5.281,2.216,3.259,3.259,0,0,1,6.441,0,15.314,15.314,0,0,0,5.294-2.216,3.3,3.3,0,0,1,.245-4.392,3.22,3.22,0,0,1,4.341-.245,15.458,15.458,0,0,0,2.254-5.333,3.3,3.3,0,0,1,0-6.544,15.459,15.459,0,0,0-2.2-5.333,3.22,3.22,0,0,1-4.341-.245,3.3,3.3,0,0,1-.245-4.392A15.317,15.317,0,0,0,183.613,120a3.259,3.259,0,0,1-6.441,0,15.25,15.25,0,0,0-5.281,2.216,3.31,3.31,0,0,1,.515,3.182" transform="translate(-144.171 -100.917)" fill="#e2ba4b"/>
          <path id="Trazado_819137" data-name="Trazado 819137" d="M183.729,168A7.729,7.729,0,1,1,176,175.729,7.729,7.729,0,0,1,183.729,168" transform="translate(-147.662 -141.188)" fill="#b7b6b7"/>
          <path id="Trazado_819138" data-name="Trazado 819138" d="M95.728,171.45a11.041,11.041,0,0,1-2.782,1.159,2.666,2.666,0,0,0-5.217,0,11.041,11.041,0,0,1-2.782-1.159,2.653,2.653,0,0,0-3.723-3.723,11.041,11.041,0,0,1-1.159-2.782A2.666,2.666,0,0,0,80,159.729a11.041,11.041,0,0,1,1.159-2.782,2.653,2.653,0,0,0,3.723-3.723A11.043,11.043,0,0,1,87.729,152a2.666,2.666,0,0,0,5.281,0,11.041,11.041,0,0,1,2.782,1.159,2.654,2.654,0,0,0,3.723,3.723,11.039,11.039,0,0,1,1.095,2.847,2.666,2.666,0,0,0,0,5.281,11.041,11.041,0,0,1-1.159,2.782,2.654,2.654,0,0,0-3.723,3.723Z" transform="translate(-67.119 -127.765)" fill="#fad55c"/>
          <path id="Trazado_819139" data-name="Trazado 819139" d="M123.864,192A3.864,3.864,0,1,1,120,195.864,3.864,3.864,0,0,1,123.864,192" transform="translate(-100.678 -161.324)" fill="#b7b6b7"/>
          <path id="Trazado_819140" data-name="Trazado 819140" d="M76,0H52.812a1.288,1.288,0,0,0-1.288,1.288v10.3a1.288,1.288,0,0,1-1.288,1.288H1.288A1.288,1.288,0,0,0,0,14.169V55.389a1.288,1.288,0,0,0,1.288,1.288H3.864a1.288,1.288,0,1,0,0-2.576,1.288,1.288,0,0,1-1.288-1.288V16.745a1.288,1.288,0,0,1,1.288-1.288H60.541a1.288,1.288,0,0,1,1.288,1.288V52.812A1.288,1.288,0,0,1,60.541,54.1H14.169a1.288,1.288,0,1,0,0,2.576h7.663a1.288,1.288,0,0,1,1.25,1.6l-.644,2.576a1.288,1.288,0,0,1-1.25.976H15.457a1.288,1.288,0,0,0,0,2.576H48.948a1.288,1.288,0,1,0,0-2.576H43.23a1.288,1.288,0,0,1-1.25-.976l-.644-2.576a1.288,1.288,0,0,1,1.25-1.6h7.65a1.288,1.288,0,0,1,1.288,1.288v5.152a1.288,1.288,0,0,0,1.288,1.288H76a1.288,1.288,0,0,0,1.288-1.288V1.288A1.288,1.288,0,0,0,76,0M37.913,61.829H26.484a1.288,1.288,0,0,1-1.25-1.6l.644-2.576a1.288,1.288,0,0,1,1.25-.976H37.256a1.288,1.288,0,0,1,1.248.97l.657,2.576a1.288,1.288,0,0,1-1.248,1.606m35.509,0H55.389A1.288,1.288,0,0,1,54.1,60.541V57.965a1.288,1.288,0,0,1,1.288-1.288h7.729a1.288,1.288,0,0,0,1.288-1.288V27.05a1.288,1.288,0,0,1,1.288-1.288h5.152a1.288,1.288,0,0,0,0-2.576H65.693A1.288,1.288,0,0,1,64.405,21.9V19.322a1.288,1.288,0,0,1,1.288-1.288h5.152a1.288,1.288,0,0,0,0-2.576H65.693a1.288,1.288,0,0,1-1.288-1.288,1.288,1.288,0,0,0-1.288-1.288H55.389A1.288,1.288,0,0,1,54.1,11.593V3.864a1.288,1.288,0,0,1,1.288-1.288H73.422A1.288,1.288,0,0,1,74.71,3.864V60.541a1.288,1.288,0,0,1-1.288,1.288" transform="translate(0 -0.239)"/>
          <path id="Trazado_819141" data-name="Trazado 819141" d="M48.607,336H49.97a.607.607,0,0,1,.607.607v1.363a.607.607,0,0,1-.607.607H48.607A.607.607,0,0,1,48,337.97v-1.363a.607.607,0,0,1,.607-.607" transform="translate(-40.271 -282.138)"/>
          <rect id="Rectángulo_375802" data-name="Rectángulo 375802" width="15" height="3" transform="translate(57 7)"/>
          <path id="Trazado_819142" data-name="Trazado 819142" d="M81.729,117.232a1.288,1.288,0,0,0-1.043-.219,12.019,12.019,0,0,0-3.117,1.288,1.288,1.288,0,0,0-.492,1.754,1.271,1.271,0,0,0,.131.191,1.367,1.367,0,0,1-1.919,1.919,1.288,1.288,0,0,0-1.894.361,12.274,12.274,0,0,0-1.288,3.117,1.3,1.3,0,0,0,1.095,1.61,1.365,1.365,0,0,1,0,2.705,1.3,1.3,0,0,0-1.095,1.61,12.271,12.271,0,0,0,1.288,3.117,1.289,1.289,0,0,0,1.894.361,1.365,1.365,0,0,1,1.919,1.919,1.288,1.288,0,0,0,.361,1.945,12.013,12.013,0,0,0,3.117,1.288,1.283,1.283,0,0,0,1.6-1.095,1.378,1.378,0,0,1,2.731,0,1.277,1.277,0,0,0,1.275,1.134,1.381,1.381,0,0,0,.322,0c.322-.09.618-.206.927-.322a1.984,1.984,0,0,1-.425,1.211,1.3,1.3,0,0,0,.3,1.868,16.669,16.669,0,0,0,5.745,2.357,1.293,1.293,0,0,0,1.546-1.134,1.971,1.971,0,0,1,3.929,0,1.288,1.288,0,0,0,1.288,1.159h.271a16.5,16.5,0,0,0,5.732-2.409,1.269,1.269,0,0,0,.3-1.868,2.01,2.01,0,0,1,.155-2.692,1.932,1.932,0,0,1,2.576-.142,1.294,1.294,0,0,0,1.894-.3,16.747,16.747,0,0,0,2.435-5.822,1.288,1.288,0,0,0-1-1.526q-.062-.013-.125-.02a2.009,2.009,0,0,1,0-3.993,1.288,1.288,0,0,0,1.141-1.42,1.267,1.267,0,0,0-.02-.125,16.744,16.744,0,0,0-2.383-5.771A1.294,1.294,0,0,0,109,119a1.932,1.932,0,0,1-2.576-.155,2.009,2.009,0,0,1-.142-2.679,1.269,1.269,0,0,0-.3-1.868,16.5,16.5,0,0,0-5.809-2.435,1.293,1.293,0,0,0-1.546,1.134,1.971,1.971,0,0,1-3.929,0,1.293,1.293,0,0,0-1.546-1.134,16.667,16.667,0,0,0-5.745,2.409,1.3,1.3,0,0,0-.3,1.868,1.983,1.983,0,0,1,.425,1.211c-.309-.116-.605-.232-.927-.322a1.283,1.283,0,0,0-1.6,1.095,1.378,1.378,0,0,1-2.731,0A1.288,1.288,0,0,0,81.729,117.232Zm13.293,13.293a1.288,1.288,0,0,0-.915-.567,1.365,1.365,0,0,1,0-2.705,1.36,1.36,0,0,0,1.134-1.61,12.061,12.061,0,0,0-1.288-2.95,6.441,6.441,0,1,1,0,11.825,12.061,12.061,0,0,0,1.288-2.95A1.288,1.288,0,0,0,95.023,130.525Zm-2.5-15.818a4.534,4.534,0,0,0,8.283,0,13.9,13.9,0,0,1,2.666,1.121,4.586,4.586,0,0,0,1.043,4.83,4.483,4.483,0,0,0,4.8,1.069,13.518,13.518,0,0,1,1.108,2.718,4.586,4.586,0,0,0,0,8.321,13.518,13.518,0,0,1-1.108,2.718,4.483,4.483,0,0,0-4.792,1.056,4.586,4.586,0,0,0-1.056,4.843,13.9,13.9,0,0,1-2.666,1.121,4.534,4.534,0,0,0-8.283,0,14.019,14.019,0,0,1-2.679-1.121,4.638,4.638,0,0,0,.129-2.744,1.24,1.24,0,0,0,.116-1.675,1.378,1.378,0,0,1,.116-1.816h.077a9.017,9.017,0,1,0,0-12.984l-.09-.064a1.378,1.378,0,0,1-.1-1.8,1.24,1.24,0,0,0-.116-1.675,4.638,4.638,0,0,0-.129-2.744,14.024,14.024,0,0,1,2.679-1.172m-8.875,7.213a3.955,3.955,0,0,0,3.439-2.009l.271.116a3.954,3.954,0,0,0,4.869,4.869l.116.27a3.942,3.942,0,0,0,0,6.879l-.116.271a3.954,3.954,0,0,0-4.869,4.869l-.271.116a3.942,3.942,0,0,0-6.878,0l-.271-.116a3.954,3.954,0,0,0-4.869-4.869l-.116-.271a3.942,3.942,0,0,0,0-6.879l.116-.27a3.954,3.954,0,0,0,4.869-4.869l.271-.116A3.955,3.955,0,0,0,83.649,121.921Z" transform="translate(-60.463 -94.066)"/>
          <path id="Trazado_819143" data-name="Trazado 819143" d="M40.1,112.373,37,115.485a1.288,1.288,0,0,1-.912.379h-2.8a1.288,1.288,0,1,0,0,2.576h3.864a1.289,1.289,0,0,0,.915-.374l3.1-3.112a1.288,1.288,0,0,1,.912-.379h2.8a1.288,1.288,0,1,0,0-2.576H41.017a1.289,1.289,0,0,0-.915.374" transform="translate(-26.848 -94.205)"/>
          <path id="Trazado_819144" data-name="Trazado 819144" d="M136.607,112h1.363a.607.607,0,0,1,.607.607v1.363a.607.607,0,0,1-.607.607h-1.363a.607.607,0,0,1-.607-.607v-1.363a.607.607,0,0,1,.607-.607" transform="translate(-114.102 -94.205)"/>
          <path id="Trazado_819145" data-name="Trazado 819145" d="M32.607,282.576h3.766a.607.607,0,0,1,.43.178l3.3,3.312a1.289,1.289,0,0,0,.915.374h4.546a.607.607,0,0,0,.607-.607v-1.363a.607.607,0,0,0-.607-.607H41.8a.607.607,0,0,1-.43-.178l-3.3-3.312a1.289,1.289,0,0,0-.915-.374H32.607a.607.607,0,0,0-.607.607v1.363a.607.607,0,0,0,.607.607" transform="translate(-26.848 -235.155)"/>
          <path id="Trazado_819146" data-name="Trazado 819146" d="M136.607,304h1.363a.607.607,0,0,1,.607.607v1.363a.607.607,0,0,1-.607.607h-1.363a.607.607,0,0,1-.607-.607v-1.363a.607.607,0,0,1,.607-.607" transform="translate(-114.102 -255.291)"/>
          <path id="Trazado_819147" data-name="Trazado 819147" d="M296.607,304h1.363a.607.607,0,0,1,.607.607v1.363a.607.607,0,0,1-.607.607h-1.363a.607.607,0,0,1-.607-.607v-1.363a.607.607,0,0,1,.607-.607" transform="translate(-248.34 -255.291)"/>
          <path id="Trazado_819148" data-name="Trazado 819148" d="M296.607,112h1.363a.607.607,0,0,1,.607.607v1.363a.607.607,0,0,1-.607.607h-1.363a.607.607,0,0,1-.607-.607v-1.363a.607.607,0,0,1,.607-.607" transform="translate(-248.34 -94.205)"/>
          <path id="Trazado_819149" data-name="Trazado 819149" d="M112,189.152A5.152,5.152,0,1,0,117.152,184,5.152,5.152,0,0,0,112,189.152m5.152-2.576a2.576,2.576,0,1,1-2.576,2.576,2.576,2.576,0,0,1,2.576-2.576" transform="translate(-93.966 -154.612)"/>
        </g>
      </g>
    </g>
  </g>
</svg>
