<svg xmlns="http://www.w3.org/2000/svg" xmlns:xlink="http://www.w3.org/1999/xlink" width="92" height="91" viewBox="0 0 92 91">
  <defs>
    <clipPath id="clip-path">
      <rect id="Rect치ngulo_375800" data-name="Rect치ngulo 375800" width="65.291" height="65.291" fill="none"/>
    </clipPath>
  </defs>
  <g id="Grupo_1071918" data-name="Grupo 1071918" transform="translate(-649 -1490)">
    <rect id="Rect치ngulo_375714" data-name="Rect치ngulo 375714" width="92" height="91" rx="13" transform="translate(649 1490)" fill="#fff"/>
    <g id="Grupo_1071917" data-name="Grupo 1071917" transform="translate(662 1503)">
      <g id="Grupo_1071916" data-name="Grupo 1071916" clip-path="url(#clip-path)">
        <path id="Trazado_819128" data-name="Trazado 819128" d="M64.165,47.279a1.126,1.126,0,0,0,1.126-1.126V3.291A3.292,3.292,0,0,0,62,0H3.292A3.292,3.292,0,0,0,0,3.291V46.153a1.126,1.126,0,0,0,1.126,1.126,3.377,3.377,0,0,1,0,6.754A1.126,1.126,0,0,0,0,55.159V62A3.292,3.292,0,0,0,3.292,65.29H62A3.292,3.292,0,0,0,65.291,62v-6.84a1.126,1.126,0,0,0-1.126-1.126,3.377,3.377,0,1,1,0-6.754M63.04,56.172V62A1.041,1.041,0,0,1,62,63.039H3.292A1.041,1.041,0,0,1,2.252,62V56.172a5.63,5.63,0,0,0,0-11.032V3.291a1.04,1.04,0,0,1,1.04-1.041H62A1.041,1.041,0,0,1,63.04,3.291V45.14a5.63,5.63,0,0,0,0,11.032" transform="translate(0 0.001)"/>
        <path id="Trazado_819129" data-name="Trazado 819129" d="M88.125,50.973a5.625,5.625,0,0,0-4.5-5.511V35.217a3.378,3.378,0,0,0-3.377-3.377H39.719a3.377,3.377,0,0,0-3.377,3.377V45.461a5.625,5.625,0,0,0-4.5,5.511V66.737a5.629,5.629,0,0,0,4.5,5.515v12.5a3.377,3.377,0,0,0,3.377,3.377H80.245a3.378,3.378,0,0,0,3.377-3.377v-12.5a5.63,5.63,0,0,0,4.5-5.515ZM76.868,80.5a1.126,1.126,0,0,1-1.126,1.126H44.222A1.125,1.125,0,0,1,43.1,80.5V39.47a1.126,1.126,0,0,1,1.126-1.126h31.52a1.126,1.126,0,0,1,1.126,1.125Z" transform="translate(-27.336 -27.337)" fill="#4a4a4a"/>
        <path id="Trazado_819130" data-name="Trazado 819130" d="M212.6,254.769h-4.5a1.126,1.126,0,0,0,0,2.252h4.5a1.126,1.126,0,1,0,0-2.252" transform="translate(-177.698 -218.74)"/>
        <path id="Trazado_819131" data-name="Trazado 819131" d="M201.175,222.842H192.17a1.126,1.126,0,0,0,0,2.252h9.006a1.126,1.126,0,0,0,0-2.252" transform="translate(-164.027 -191.328)"/>
        <path id="Trazado_819132" data-name="Trazado 819132" d="M208.092,193.253h4.5a1.126,1.126,0,1,0,0-2.251h-4.5a1.126,1.126,0,0,0,0,2.251" transform="translate(-177.697 -163.991)"/>
      </g>
    </g>
  </g>
</svg>
