<svg xmlns="http://www.w3.org/2000/svg" width="295" height="153.846" viewBox="0 0 295 153.846">
  <g id="Grupo_1071558" data-name="Grupo 1071558" transform="translate(-180 -1439)">
    <rect id="Rectángulo_375564" data-name="Rectángulo 375564" width="295" height="124" transform="translate(180 1439)" fill="#fee9b5"/>
    <g id="codigo-" transform="translate(256.164 1464)">
      <path id="Trazado_818041" data-name="Trazado 818041" d="M108.572,8.435v111.98a8.435,8.435,0,0,1-8.436,8.433H17.269a8.433,8.433,0,0,1-8.433-8.433V8.435A8.431,8.431,0,0,1,17.269,0h82.868A8.434,8.434,0,0,1,108.572,8.435Z" transform="translate(0 -0.001)" fill="#424c59"/>
      <path id="Trazado_818042" data-name="Trazado 818042" d="M108.574,8.433V21.674H8.838V8.433A8.431,8.431,0,0,1,17.271,0h82.868A8.434,8.434,0,0,1,108.574,8.433Z" transform="translate(-0.001)" fill="#eaeaea"/>
      <circle id="Elipse_9663" data-name="Elipse 9663" cx="4.343" cy="4.343" r="4.343" transform="translate(17.927 6.281)" fill="#f9572b"/>
      <circle id="Elipse_9664" data-name="Elipse 9664" cx="4.343" cy="4.343" r="4.343" transform="translate(32.551 6.281)" fill="#fcc63d"/>
      <g id="Grupo_1071553" data-name="Grupo 1071553" transform="translate(47.172 6.281)">
        <circle id="Elipse_9665" data-name="Elipse 9665" cx="4.343" cy="4.343" r="4.343" fill="#45b8c4"/>
        <circle id="Elipse_9666" data-name="Elipse 9666" cx="24.996" cy="24.996" r="24.996" transform="translate(36.07 8.622)" fill="#45b8c4"/>
      </g>
      <path id="Trazado_818043" data-name="Trazado 818043" d="M129.717,143.788H85.909a1.973,1.973,0,0,1,0-3.947h43.807a1.973,1.973,0,0,1,0,3.947Z" transform="translate(-56.201 -104.65)" fill="#fcc63d"/>
      <path id="Trazado_818044" data-name="Trazado 818044" d="M50.937,143.831a1.973,1.973,0,1,1,1.934-1.587A1.987,1.987,0,0,1,50.937,143.831Z" transform="translate(-30.041 -104.694)" fill="#fff"/>
      <path id="Trazado_818045" data-name="Trazado 818045" d="M129.717,231.41H85.909a1.973,1.973,0,0,1,0-3.947h43.807a1.973,1.973,0,0,1,0,3.947Z" transform="translate(-56.201 -170.221)" fill="#fcc63d"/>
      <g id="Grupo_1071554" data-name="Grupo 1071554" transform="translate(18.923 57.255)">
        <path id="Trazado_818046" data-name="Trazado 818046" d="M50.893,231.451a1.974,1.974,0,1,1,1.964-1.78A1.994,1.994,0,0,1,50.893,231.451Z" transform="translate(-48.921 -227.518)" fill="#fff"/>
        <path id="Trazado_818047" data-name="Trazado 818047" d="M293.789,275.221H281.424a1.973,1.973,0,1,1,0-3.947h12.365a1.973,1.973,0,0,1,0,3.947Z" transform="translate(-221.438 -260.263)" fill="#fff"/>
      </g>
      <path id="Trazado_818048" data-name="Trazado 818048" d="M186.824,275.221H163.8a1.973,1.973,0,1,1,0-3.947h23.021a1.973,1.973,0,0,1,0,3.947Z" transform="translate(-114.493 -203.007)" fill="#f9572b"/>
      <g id="Grupo_1071555" data-name="Grupo 1071555" transform="translate(18.94 68.267)">
        <path id="Trazado_818049" data-name="Trazado 818049" d="M98.933,275.221H85.909a1.973,1.973,0,0,1,0-3.947H98.933a1.973,1.973,0,1,1,0,3.947Z" transform="translate(-75.14 -271.274)" fill="#fff"/>
        <path id="Trazado_818050" data-name="Trazado 818050" d="M50.941,275.265a1.973,1.973,0,1,1,1.958-1.729A1.988,1.988,0,0,1,50.941,275.265Z" transform="translate(-48.985 -271.318)" fill="#fff"/>
      </g>
      <path id="Trazado_818051" data-name="Trazado 818051" d="M117.877,319.032H85.909a1.973,1.973,0,0,1,0-3.947h31.967a1.973,1.973,0,0,1,0,3.947Z" transform="translate(-56.201 -235.793)" fill="#fcc63d"/>
      <path id="Trazado_818052" data-name="Trazado 818052" d="M50.9,319.064a1.973,1.973,0,1,1,1.921-1.528A1.993,1.993,0,0,1,50.9,319.064Z" transform="translate(-30.002 -235.826)" fill="#fff"/>
      <path id="Trazado_818053" data-name="Trazado 818053" d="M273.359,362.843h-6.051a1.973,1.973,0,0,1,0-3.947h6.051a1.973,1.973,0,1,1,0,3.947Z" transform="translate(-191.95 -268.579)" fill="#f9572b"/>
      <path id="Trazado_818054" data-name="Trazado 818054" d="M189.14,362.843h-17.5a1.973,1.973,0,0,1,0-3.947h17.5a1.973,1.973,0,0,1,0,3.947Z" transform="translate(-120.36 -268.579)" fill="#fcc63d"/>
      <g id="Grupo_1071556" data-name="Grupo 1071556" transform="translate(18.939 90.317)">
        <path id="Trazado_818055" data-name="Trazado 818055" d="M100.906,362.843h-15a1.973,1.973,0,0,1,0-3.947h15a1.973,1.973,0,1,1,0,3.947Z" transform="translate(-75.14 -358.896)" fill="#fff"/>
        <path id="Trazado_818056" data-name="Trazado 818056" d="M50.939,362.883a1.973,1.973,0,1,1,1.958-1.728A1.988,1.988,0,0,1,50.939,362.883Z" transform="translate(-48.982 -358.937)" fill="#fff"/>
        <path id="Trazado_818057" data-name="Trazado 818057" d="M243.707,406.653H215.555a1.973,1.973,0,1,1,0-3.947h28.152a1.973,1.973,0,1,1,0,3.947Z" transform="translate(-172.16 -391.681)" fill="#fff"/>
      </g>
      <path id="Trazado_818058" data-name="Trazado 818058" d="M111.957,406.653H85.909a1.973,1.973,0,1,1,0-3.947h26.047a1.973,1.973,0,1,1,0,3.947Z" transform="translate(-56.201 -301.364)" fill="#f9572b"/>
      <path id="Trazado_818059" data-name="Trazado 818059" d="M50.943,406.7a1.974,1.974,0,1,1,1.963-1.781A1.991,1.991,0,0,1,50.943,406.7Z" transform="translate(-30.047 -301.406)" fill="#fff"/>
      <path id="Trazado_818060" data-name="Trazado 818060" d="M98.933,450.464H85.909a1.973,1.973,0,0,1,0-3.947H98.933a1.973,1.973,0,1,1,0,3.947Z" transform="translate(-56.201 -334.15)" fill="#f9572b"/>
      <path id="Trazado_818061" data-name="Trazado 818061" d="M50.9,450.5a1.973,1.973,0,1,1,1.934-1.589A1.993,1.993,0,0,1,50.9,450.5Z" transform="translate(-30.001 -334.188)" fill="#fff"/>
      <path id="Trazado_818062" data-name="Trazado 818062" d="M95.776,187.6H85.909a1.973,1.973,0,0,1,0-3.947h9.866a1.973,1.973,0,0,1,0,3.947Z" transform="translate(-56.201 -137.436)" fill="#f9572b"/>
      <g id="Grupo_1071557" data-name="Grupo 1071557" transform="translate(18.925 26.678)">
        <path id="Trazado_818063" data-name="Trazado 818063" d="M172.29,187.6H153.346a1.973,1.973,0,1,1,0-3.947H172.29a1.973,1.973,0,1,1,0,3.947Z" transform="translate(-125.592 -164.113)" fill="#fff"/>
        <path id="Trazado_818064" data-name="Trazado 818064" d="M50.9,187.637a1.973,1.973,0,1,1,1.934-1.589A1.992,1.992,0,0,1,50.9,187.637Z" transform="translate(-48.926 -164.15)" fill="#fff"/>
        <path id="Trazado_818065" data-name="Trazado 818065" d="M365.1,132.453a1.972,1.972,0,0,1-1.423-.607L354.2,121.98a1.973,1.973,0,1,1,2.847-2.733l7.576,7.892,10.565-20.074a1.973,1.973,0,1,1,3.493,1.838l-11.84,22.5a1.972,1.972,0,0,1-1.47,1.035A2.083,2.083,0,0,1,365.1,132.453Z" transform="translate(-276.968 -106.011)" fill="#fff"/>
      </g>
    </g>
  </g>
</svg>
