<svg xmlns="http://www.w3.org/2000/svg" width="76" height="76" viewBox="0 0 76 76">
  <g id="Grupo_1071808" data-name="Grupo 1071808" transform="translate(0 0.242)">
    <circle id="Elipse_9667" data-name="Elipse 9667" cx="38" cy="38" r="38" transform="translate(0 -0.242)" fill="#949af8"/>
    <g id="database" transform="translate(15 14.758)">
      <path id="Trazado_818730" data-name="Trazado 818730" d="M27.977,28v6.938c0,1.915-5.592,3.469-12.489,3.469S3,36.853,3,34.938V28c0,1.915,5.592,3.469,12.489,3.469S27.977,29.915,27.977,28Z" transform="translate(-0.306 -7.961)" fill="#c0ab91"/>
      <path id="Trazado_818731" data-name="Trazado 818731" d="M54.264,25.713v4.163L51.1,30.4a9.079,9.079,0,0,1-.68,1.651l1.859,2.609-2.942,2.942L47.125,36.03a1.4,1.4,0,0,0,.9-1.3v-5.55a1.367,1.367,0,0,0-.076-.451,5.952,5.952,0,0,0,.076-.937A5.55,5.55,0,0,0,39,23.465v-4a9.026,9.026,0,0,1,.86-.305L40.388,16H44.55l.527,3.164a9.079,9.079,0,0,1,1.651.68l2.609-1.859,2.942,2.942L50.42,23.535a9.079,9.079,0,0,1,.68,1.651Z" transform="translate(-11.329 -4.287)" fill="#ffeb99"/>
      <rect id="Rect치ngulo_375753" data-name="Rect치ngulo 375753" width="28" height="8" rx="2" transform="translate(8.814 34.814)" fill="#57a4ff"/>
      <path id="Trazado_818732" data-name="Trazado 818732" d="M50.163,50.388v5.55a1.392,1.392,0,0,1-1.388,1.388H46a1.392,1.392,0,0,0,1.388-1.388v-5.55A1.392,1.392,0,0,0,46,49h2.775A1.392,1.392,0,0,1,50.163,50.388Z" transform="translate(-13.472 -14.391)" fill="#2488ff"/>
      <path id="Trazado_818733" data-name="Trazado 818733" d="M48.02,30.552a5.953,5.953,0,0,1-.076.937,1.4,1.4,0,0,0-1.311-.937H39V26.223a5.55,5.55,0,0,1,9.02,4.329Z" transform="translate(-11.329 -7.044)" fill="#c6c5ca"/>
      <path id="Trazado_818734" data-name="Trazado 818734" d="M48.944,30.551a5.953,5.953,0,0,1-.076.937,1.4,1.4,0,0,0-1.311-.937H46.169a5.562,5.562,0,0,0-4.149-5.377,5.55,5.55,0,0,1,6.924,5.377Z" transform="translate(-12.254 -7.043)" fill="#acabb1"/>
      <path id="Trazado_818735" data-name="Trazado 818735" d="M42,45h4.163v2.775H42Z" transform="translate(-12.248 -13.166)" fill="#c6c5ca"/>
      <path id="Trazado_818736" data-name="Trazado 818736" d="M27.977,18v6.938c0,1.915-5.592,3.469-12.489,3.469S3,26.853,3,24.938V18c0,1.915,5.592,3.469,12.489,3.469S27.977,19.915,27.977,18Z" transform="translate(-0.306 -4.899)" fill="#c0ab91"/>
      <path id="Trazado_818737" data-name="Trazado 818737" d="M27.977,8v6.938c0,1.915-5.592,3.469-12.489,3.469S3,16.853,3,14.938V8c0,1.915,5.592,3.469,12.489,3.469S27.977,9.915,27.977,8Z" transform="translate(-0.306 -1.837)" fill="#c0ab91"/>
      <ellipse id="Elipse_9699" data-name="Elipse 9699" cx="12.5" cy="3" rx="12.5" ry="3" transform="translate(2.814 2.814)" fill="#ffcd00"/>
      <g id="Grupo_1071843" data-name="Grupo 1071843" transform="translate(13.795 6.163)">
        <path id="Trazado_818738" data-name="Trazado 818738" d="M32.876,28v6.938c0,1.915-5.592,3.469-12.489,3.469-.472,0-.93-.007-1.388-.028,6.244-.187,11.1-1.658,11.1-3.441v-4.76C31.836,29.582,32.876,28.826,32.876,28Z" transform="translate(-19 -14.124)" fill="#b39a7c"/>
        <path id="Trazado_818739" data-name="Trazado 818739" d="M37.775,18v6.938c0,.826-1.041,1.582-2.775,2.179V20.179C36.735,19.582,37.775,18.826,37.775,18Z" transform="translate(-23.899 -11.062)" fill="#b39a7c"/>
        <path id="Trazado_818740" data-name="Trazado 818740" d="M37.775,8v6.938c0,.826-1.041,1.582-2.775,2.179V10.179c1.735-.6,2.775-1.353,2.775-2.179Z" transform="translate(-23.899 -8)" fill="#b39a7c"/>
      </g>
      <path id="Trazado_818741" data-name="Trazado 818741" d="M32.876,6.469c0,1.915-5.592,3.469-12.489,3.469-.472,0-.93-.007-1.388-.028,6.244-.187,11.1-1.658,11.1-3.441S25.244,3.215,19,3.028c.458-.021.916-.028,1.388-.028C27.284,3,32.876,4.554,32.876,6.469Z" transform="translate(-5.205 -0.306)" fill="#ebbf00"/>
      <path id="Trazado_818742" data-name="Trazado 818742" d="M24,53h2.775v2.775H24Z" transform="translate(-6.736 -15.616)" fill="#ffeb99"/>
      <rect id="Rect치ngulo_375754" data-name="Rect치ngulo 375754" width="28" height="8" rx="2" transform="translate(8.814 23.814)" fill="#57a4ff"/>
      <path id="Trazado_818743" data-name="Trazado 818743" d="M50.163,34.388v5.55a1.392,1.392,0,0,1-1.388,1.388H46a1.392,1.392,0,0,0,1.388-1.388v-5.55A1.392,1.392,0,0,0,46,33h2.775A1.392,1.392,0,0,1,50.163,34.388Z" transform="translate(-13.472 -9.492)" fill="#2488ff"/>
      <path id="Trazado_818744" data-name="Trazado 818744" d="M24,37h2.775v2.775H24Z" transform="translate(-6.736 -10.717)" fill="#ffeb99"/>
      <path id="Trazado_818745" data-name="Trazado 818745" d="M16,45h4.163v2.775H16Z" transform="translate(-4.287 -13.166)" fill="#c6c5ca"/>
      <path id="Trazado_818746" data-name="Trazado 818746" d="M16,53h2.775v2.775H16Z" transform="translate(-4.287 -15.616)" fill="#ffeb99"/>
      <path id="Trazado_818747" data-name="Trazado 818747" d="M16,37h2.775v2.775H16Z" transform="translate(-4.287 -10.717)" fill="#ffeb99"/>
      <path id="Trazado_818748" data-name="Trazado 818748" d="M18.469,36H15.694a.694.694,0,0,0-.694.694v2.775a.694.694,0,0,0,.694.694h2.775a.694.694,0,0,0,.694-.694V36.694A.694.694,0,0,0,18.469,36Zm-.694,2.775H16.388V37.388h1.388Z" transform="translate(-3.98 -10.41)"/>
      <path id="Trazado_818749" data-name="Trazado 818749" d="M26.469,36H23.694a.694.694,0,0,0-.694.694v2.775a.694.694,0,0,0,.694.694h2.775a.694.694,0,0,0,.694-.694V36.694A.694.694,0,0,0,26.469,36Zm-.694,2.775H24.388V37.388h1.388Z" transform="translate(-6.43 -10.41)"/>
      <path id="Trazado_818750" data-name="Trazado 818750" d="M31,36h9.713v1.388H31Z" transform="translate(-8.879 -10.41)"/>
      <path id="Trazado_818751" data-name="Trazado 818751" d="M47,36h1.388v1.388H47Z" transform="translate(-13.779 -10.41)"/>
      <path id="Trazado_818752" data-name="Trazado 818752" d="M31,40h9.713v1.388H31Z" transform="translate(-8.879 -11.635)"/>
      <path id="Trazado_818753" data-name="Trazado 818753" d="M47,40h1.388v1.388H47Z" transform="translate(-13.779 -11.635)"/>
      <path id="Trazado_818754" data-name="Trazado 818754" d="M15.694,56.163h2.775a.694.694,0,0,0,.694-.694V52.694A.694.694,0,0,0,18.469,52H15.694a.694.694,0,0,0-.694.694v2.775A.694.694,0,0,0,15.694,56.163Zm.694-2.775h1.388v1.388H16.388Z" transform="translate(-3.98 -15.309)"/>
      <path id="Trazado_818755" data-name="Trazado 818755" d="M23.694,56.163h2.775a.694.694,0,0,0,.694-.694V52.694A.694.694,0,0,0,26.469,52H23.694a.694.694,0,0,0-.694.694v2.775A.694.694,0,0,0,23.694,56.163Zm.694-2.775h1.388v1.388H24.388Z" transform="translate(-6.43 -15.309)"/>
      <path id="Trazado_818756" data-name="Trazado 818756" d="M31,52h9.713v1.388H31Z" transform="translate(-8.879 -15.309)"/>
      <path id="Trazado_818757" data-name="Trazado 818757" d="M47,52h1.388v1.388H47Z" transform="translate(-13.779 -15.309)"/>
      <path id="Trazado_818758" data-name="Trazado 818758" d="M31,56h9.713v1.388H31Z" transform="translate(-8.879 -16.534)"/>
      <path id="Trazado_818759" data-name="Trazado 818759" d="M47,56h1.388v1.388H47Z" transform="translate(-13.779 -16.534)"/>
      <path id="Trazado_818760" data-name="Trazado 818760" d="M43.046,20.74,40.3,20.282a7.946,7.946,0,0,0-.4-.971l1.617-2.269a.694.694,0,0,0-.069-.9L38.5,13.205a.694.694,0,0,0-.9-.069l-2.269,1.617a9.871,9.871,0,0,0-.971-.4L33.908,11.6a.694.694,0,0,0-.687-.583H29.059a.694.694,0,0,0-.687.583l-.007.056V6.163C28.365,3.429,21.732,2,15.182,2S2,3.429,2,6.163V26.977c0,2.1,3.691,3.129,6.258,3.594a2.075,2.075,0,0,0,2.068,1.957h.694v1.388h-.694A2.088,2.088,0,0,0,8.244,36v5.55a2.088,2.088,0,0,0,2.081,2.081H35.3a2.088,2.088,0,0,0,2.081-2.081V36A2.088,2.088,0,0,0,35.3,33.915h-.694V32.528H35.3a1.9,1.9,0,0,0,.347-.035l1.957,1.395a.723.723,0,0,0,.4.125.71.71,0,0,0,.493-.2l2.942-2.942a.694.694,0,0,0,.069-.9L39.9,27.706a7.945,7.945,0,0,0,.4-.971l2.747-.458a.694.694,0,0,0,.583-.687V21.427a.694.694,0,0,0-.583-.687ZM28.365,19.546a4.828,4.828,0,0,1,7.6,3.386,2.09,2.09,0,0,0-.659-.118H28.365ZM15.182,3.388c7.632,0,11.795,1.832,11.795,2.775S22.814,8.938,15.182,8.938,3.388,7.106,3.388,6.163,7.55,3.388,15.182,3.388ZM3.388,8.119c2.283,1.45,7.049,2.206,11.795,2.206s9.512-.756,11.795-2.206V13.1c0,.944-4.163,2.775-11.795,2.775S3.388,14.045,3.388,13.1ZM8.244,24.9v4.26c-3.518-.666-4.857-1.672-4.857-2.179V22a14.9,14.9,0,0,0,5.245,1.693A2.071,2.071,0,0,0,8.244,24.9ZM3.388,20.039V15.058c2.283,1.45,7.049,2.206,11.795,2.206s9.512-.756,11.795-2.206v4.982c0,.944-4.163,2.775-11.795,2.775S3.388,20.983,3.388,20.039ZM26.977,22v.819H25.257A8.651,8.651,0,0,0,26.977,22ZM35.3,35.3A.694.694,0,0,1,36,36v5.55a.694.694,0,0,1-.694.694H10.326a.694.694,0,0,1-.694-.694V36a.694.694,0,0,1,.694-.694Zm-22.9-1.388V32.528h2.775v1.388Zm4.163,0V32.528H29.059v1.388Zm13.876,0V32.528h2.775v1.388ZM36,30.446a.694.694,0,0,1-.694.694H10.326a.694.694,0,0,1-.694-.694V24.9a.694.694,0,0,1,.694-.694H35.3A.694.694,0,0,1,36,24.9ZM42.241,25l-2.581.43a.711.711,0,0,0-.555.486,8.194,8.194,0,0,1-.624,1.526.677.677,0,0,0,.049.729l1.513,2.13L37.932,32.41l-.985-.7a2.062,2.062,0,0,0,.437-1.263V24.9a1.973,1.973,0,0,0-.069-.5,6.465,6.465,0,0,0,.069-.888,6.23,6.23,0,0,0-9.02-5.585V15.675a3.419,3.419,0,0,1,.375-.132.713.713,0,0,0,.479-.555l.43-2.581h2.983l.43,2.581a.711.711,0,0,0,.486.555,8.4,8.4,0,0,1,1.526.624.694.694,0,0,0,.729-.049l2.13-1.513,2.109,2.109-1.513,2.13a.677.677,0,0,0-.049.729,8.194,8.194,0,0,1,.624,1.526.711.711,0,0,0,.555.486l2.581.43Z"/>
      <path id="Trazado_818761" data-name="Trazado 818761" d="M5.388,48H4v5.55a.694.694,0,0,0,.694.694H7.469V52.857H5.388Z" transform="translate(-0.612 -14.085)"/>
      <path id="Trazado_818762" data-name="Trazado 818762" d="M56.1,4H45V5.388H55.407v6.651l-1.878,1.878.981.981,2.081-2.081a.694.694,0,0,0,.2-.491V4.694A.694.694,0,0,0,56.1,4Z" transform="translate(-13.166 -0.612)"/>
      <path id="Trazado_818763" data-name="Trazado 818763" d="M41,4h1.388V5.388H41Z" transform="translate(-11.941 -0.612)"/>
      <path id="Trazado_818764" data-name="Trazado 818764" d="M4,44H5.388v1.388H4Z" transform="translate(-0.612 -12.86)"/>
    </g>
  </g>
</svg>
