<svg xmlns="http://www.w3.org/2000/svg" width="98" height="98" viewBox="0 0 98 98">
  <g id="Grupo_1071935" data-name="Grupo 1071935" transform="translate(-199 -2821)">
    <circle id="Elipse_9698" data-name="Elipse 9698" cx="49" cy="49" r="49" transform="translate(199 2821)" fill="#fff"/>
    <g id="lenguaje-de-codificacion_1_" data-name="lenguaje-de-codificacion (1)" transform="translate(213 2827.272)">
      <g id="Grupo_1071928" data-name="Grupo 1071928" transform="translate(39.475 10.747)">
        <circle id="Elipse_9706" data-name="Elipse 9706" cx="14.516" cy="14.516" r="14.516" transform="translate(0 0)" fill="#ffe07d"/>
      </g>
      <g id="Grupo_1071929" data-name="Grupo 1071929" transform="translate(42.049 13.321)">
        <path id="Trazado_819150" data-name="Trazado 819150" d="M329.761,36.18a14.516,14.516,0,0,1-20.195,20.195A14.516,14.516,0,1,0,329.761,36.18Z" transform="translate(-309.566 -36.18)" fill="#ffd064"/>
      </g>
      <g id="Grupo_1071930" data-name="Grupo 1071930" transform="translate(1.019 28.312)">
        <path id="Trazado_819151" data-name="Trazado 819151" d="M39.713,175.37h-17.8A14.406,14.406,0,0,1,7.5,160.964v-.011a14.406,14.406,0,0,1,14.406-14.406h17.8a14.406,14.406,0,0,1,14.406,14.406v.011A14.406,14.406,0,0,1,39.713,175.37Z" transform="translate(-7.502 -146.547)" fill="#fb74c4"/>
      </g>
      <g id="Grupo_1071931" data-name="Grupo 1071931" transform="translate(3.563 30.856)">
        <path id="Trazado_819152" data-name="Trazado 819152" d="M64.071,165.277A14.412,14.412,0,0,1,52.2,187.866H34.41a14.344,14.344,0,0,1-8.177-2.544A14.4,14.4,0,0,0,38.1,191.556H55.894a14.412,14.412,0,0,0,8.177-26.279Z" transform="translate(-26.233 -165.277)" fill="#dd5ca2"/>
      </g>
      <g id="Grupo_1071932" data-name="Grupo 1071932" transform="translate(29.49 46.789)">
        <path id="Trazado_819153" data-name="Trazado 819153" d="M241.738,311.395H231.513a14.406,14.406,0,0,1-14.406-14.406v-.011a14.406,14.406,0,0,1,14.406-14.406h10.225a14.406,14.406,0,0,1,14.406,14.406v.011A14.406,14.406,0,0,1,241.738,311.395Z" transform="translate(-217.107 -282.572)" fill="#fcb143"/>
      </g>
      <g id="Grupo_1071933" data-name="Grupo 1071933" transform="translate(32.034 49.333)">
        <path id="Trazado_819154" data-name="Trazado 819154" d="M266.1,301.3a14.412,14.412,0,0,1-11.867,22.589H244.014a14.344,14.344,0,0,1-8.177-2.544,14.4,14.4,0,0,0,11.867,6.234h10.214A14.412,14.412,0,0,0,266.1,301.3Z" transform="translate(-235.837 -301.302)" fill="#fa9801"/>
      </g>
      <g id="Grupo_1071934" data-name="Grupo 1071934" transform="translate(0 9.728)">
        <path id="Trazado_819155" data-name="Trazado 819155" d="M339.66,81.684v7.571a.9.9,0,0,1-.45.792c-.527.293-1.114-.253-1.152-.288a1.019,1.019,0,0,0-1.439,1.443,3.347,3.347,0,0,0,2.258.978,2.692,2.692,0,0,0,1.322-.351,2.938,2.938,0,0,0,1.5-2.574V81.684a1.019,1.019,0,1,0-2.038,0Z" transform="translate(-290.639 -71.03)"/>
        <path id="Trazado_819156" data-name="Trazado 819156" d="M397.149,91.393a3.38,3.38,0,0,1-2.484-1.043,1.019,1.019,0,1,0-1.51,1.369,5.448,5.448,0,0,0,3.994,1.713,3.692,3.692,0,0,0,3.771-2.854c.221-1.239-.348-2.86-2.611-3.7-1.164-.43-2.247-.9-2.555-1.033a.784.784,0,0,1-.3-.749,1.07,1.07,0,0,1,.839-.861,3.241,3.241,0,0,1,2.69.618,1.019,1.019,0,0,0,1.307-1.564,5.265,5.265,0,0,0-4.584-1.005,3.128,3.128,0,0,0-2.269,2.523A2.813,2.813,0,0,0,394.7,87.6a1.018,1.018,0,0,0,.141.077c.054.024,1.329.592,2.767,1.122.441.163,1.452.627,1.31,1.424a1.71,1.71,0,0,1-1.764,1.175Z" transform="translate(-339.524 -72.268)"/>
        <path id="Trazado_819157" data-name="Trazado 819157" d="M148.246,211.163a1.019,1.019,0,0,0-1.019,1.019v9.231a1.019,1.019,0,0,0,2.038,0v-3.755h4.35v3.755a1.019,1.019,0,1,0,2.038,0v-9.231a1.019,1.019,0,1,0-2.038,0v3.438h-4.35v-3.438A1.019,1.019,0,0,0,148.246,211.163Z" transform="translate(-127.229 -183.802)"/>
        <path id="Trazado_819158" data-name="Trazado 819158" d="M82.567,221.412v-3c.55,0,1.193-.006,1.551-.006a3.624,3.624,0,1,0,0-7.248h-2.57a1.026,1.026,0,0,0-1.019,1.019v9.231a1.019,1.019,0,1,0,2.038,0Zm1.551-8.212a1.587,1.587,0,1,1,0,3.172c-.356,0-.991,0-1.539.006,0-.565-.006-1.227-.006-1.592,0-.308,0-.995,0-1.586Z" transform="translate(-69.591 -183.801)"/>
        <path id="Trazado_819159" data-name="Trazado 819159" d="M231.2,221.412v-3c.55,0,1.193-.006,1.551-.006a3.624,3.624,0,1,0,0-7.248h-2.57a1.026,1.026,0,0,0-1.019,1.019v9.231a1.019,1.019,0,1,0,2.038,0Zm1.551-8.212a1.587,1.587,0,1,1,0,3.172c-.356,0-.991,0-1.539.006,0-.565-.006-1.227-.006-1.592,0-.308,0-.995,0-1.586Z" transform="translate(-198.031 -183.801)"/>
        <path id="Trazado_819160" data-name="Trazado 819160" d="M54.115,45.77H48.352a15.467,15.467,0,0,0,.013-6.024,15.554,15.554,0,0,0,13.352-1A1.019,1.019,0,0,0,60.7,36.976a13.519,13.519,0,0,1-13,.231c-.026-.014-.053-.026-.079-.037A15.52,15.52,0,0,0,41.175,29.5a13.5,13.5,0,1,1,23.008,4.61A1.019,1.019,0,1,0,65.72,35.45a15.532,15.532,0,1,0-26.962-7.13,15.351,15.351,0,0,0-5.534-1.027H15.431A15.4,15.4,0,0,0,7.4,29.547a1.019,1.019,0,1,0,1.063,1.739,13.365,13.365,0,0,1,6.972-1.955H33.224A13.4,13.4,0,0,1,46.267,45.769H43.9A15.457,15.457,0,0,0,29.333,56.116h-13.9A13.393,13.393,0,0,1,5.144,34.147a1.019,1.019,0,0,0-1.565-1.306A15.431,15.431,0,0,0,15.431,58.154H28.773A15.436,15.436,0,0,0,43.9,76.631h.776a1.019,1.019,0,0,0,0-2.038H43.9a13.392,13.392,0,0,1,0-26.785H54.115a13.392,13.392,0,0,1,0,26.785H49.77a1.019,1.019,0,1,0,0,2.038h4.345a15.431,15.431,0,0,0,0-30.861Z" transform="translate(0 -9.728)"/>
        <path id="Trazado_819161" data-name="Trazado 819161" d="M359.926,331.916a1.019,1.019,0,0,0,0,2.038h1.816l-.935,4.5a1.019,1.019,0,1,0,2,.415l1.021-4.912H365.8l-.935,4.5a1.019,1.019,0,1,0,2,.415l1.021-4.912h2.257a1.019,1.019,0,1,0,0-2.038H368.3l.814-3.917h2.251a1.019,1.019,0,1,0,0-2.038h-1.827l.915-4.4a1.019,1.019,0,1,0-2-.415l-1,4.816h-1.972l.915-4.4a1.019,1.019,0,1,0-2-.415l-1,4.816h-2.246a1.019,1.019,0,1,0,0,2.038h1.822l-.814,3.917ZM365.062,328h1.972l-.814,3.917h-1.972Z" transform="translate(-310.156 -278.143)"/>
        <path id="Trazado_819162" data-name="Trazado 819162" d="M283.966,358.189a1.019,1.019,0,0,0-1.436.126,2.623,2.623,0,0,1-2.131.94,3.6,3.6,0,1,1,2.013-6.591,1.019,1.019,0,1,0,1.141-1.689,5.641,5.641,0,1,0-3.155,10.318,4.657,4.657,0,0,0,3.693-1.669A1.019,1.019,0,0,0,283.966,358.189Z" transform="translate(-237.438 -303.791)"/>
      </g>
    </g>
  </g>
</svg>
