<svg xmlns="http://www.w3.org/2000/svg" width="92" height="92" viewBox="0 0 92 92">
  <g id="Grupo_1071719" data-name="Grupo 1071719" transform="translate(0.167 -0.029)">
    <path id="Trazado_813500" data-name="Trazado 813500" d="M46,0A46,46,0,1,0,92,46,46,46,0,0,0,46,0Z" transform="translate(-0.167 0.029)" fill="#949af8"/>
    <g id="medios-de-comunicacion-social_1_" data-name="medios-de-comunicacion-social (1)" transform="translate(3.102 17.029)">
      <path id="Trazado_818701" data-name="Trazado 818701" d="M219.464,37.581a5.591,5.591,0,0,0,3.286,1.061h10.5v5.091l6.656-5.091h2.871a5.6,5.6,0,0,0,5.6-5.588V13.088a5.6,5.6,0,0,0-5.6-5.588H222.75a5.6,5.6,0,0,0-5.6,5.588V37.581Z" transform="translate(-178.245 -6.637)" fill="#f7f3f1"/>
      <path id="Trazado_818702" data-name="Trazado 818702" d="M366.675,7.5h-4.8a5.6,5.6,0,0,1,5.6,5.588V33.054a5.6,5.6,0,0,1-5.6,5.588H359l-1.855,1.419v3.672l6.656-5.091h2.871a5.6,5.6,0,0,0,5.6-5.588V13.088a5.6,5.6,0,0,0-5.6-5.588Z" transform="translate(-302.143 -6.637)" fill="#ebe1dc"/>
      <path id="Trazado_818703" data-name="Trazado 818703" d="M306.16,79.064l.578.468a5.145,5.145,0,0,0,3.237,1.146h8.2a1.368,1.368,0,0,0,1.366-1.434c-.035-.736,0-7.436,0-8.192a1.368,1.368,0,0,0-1.368-1.368l-5.561-.017.681-1.613a5.835,5.835,0,0,0-.309-5.165.91.91,0,0,0-1.7.452,5.935,5.935,0,0,1-1.485,3.927l-3.546,4.012h-1.293v7.783h1.2Z" transform="translate(-255.96 -55.249)" fill="#ffd36c"/>
      <path id="Trazado_818704" data-name="Trazado 818704" d="M278.311,137.425h-3.744a.448.448,0,0,1-.448-.448v-9.545a.448.448,0,0,1,.448-.448h3.744a.448.448,0,0,1,.448.448v9.545A.448.448,0,0,1,278.311,137.425Z" transform="translate(-228.665 -112.377)" fill="#8ee6f3"/>
      <path id="Trazado_818705" data-name="Trazado 818705" d="M47.863,167.058V146.906a4.413,4.413,0,0,0-4.42-4.406H27.65a4.413,4.413,0,0,0-4.42,4.406v15.745a4.413,4.413,0,0,0,4.42,4.406h8.676v4.053l5.249-4.053Z" transform="translate(-6.636 -126.108)" fill="#4ed5ea"/>
      <path id="Trazado_818706" data-name="Trazado 818706" d="M150.8,142.5h-6.259a4.413,4.413,0,0,1,4.42,4.406v20.152h6.259V146.906A4.413,4.413,0,0,0,150.8,142.5Z" transform="translate(-113.993 -126.108)" fill="#62a6fd"/>
      <path id="Trazado_818707" data-name="Trazado 818707" d="M201.342,328H190.135A3.132,3.132,0,0,0,187,331.125V342.3a3.132,3.132,0,0,0,3.137,3.127h6.157V348.3l3.725-2.876h1.326a3.132,3.132,0,0,0,3.137-3.127V331.125A3.132,3.132,0,0,0,201.342,328Z" transform="translate(-151.566 -290.268)" fill="#fa9084"/>
      <path id="Trazado_818708" data-name="Trazado 818708" d="M272.841,328h-4.831a3.132,3.132,0,0,1,3.137,3.127V342.3a3.132,3.132,0,0,1-3.137,3.127h-.219V348.3l3.725-2.876h1.326a3.132,3.132,0,0,0,3.137-3.127V331.125A3.132,3.132,0,0,0,272.841,328Z" transform="translate(-223.064 -290.268)" fill="#ff6cb5"/>
      <path id="Trazado_818709" data-name="Trazado 818709" d="M231.481,382.957c2.7-1.43,4.094-2.646,4.094-4.531,0-2.6-3.185-3.25-4.094-1.3-1.04-2.015-4.094-1.3-4.094,1.3C227.387,380.311,228.784,381.528,231.481,382.957Z" transform="translate(-187.309 -332.717)" fill="#f7f3f1"/>
      <path id="Trazado_818710" data-name="Trazado 818710" d="M64.533,0H62a.863.863,0,0,0,0,1.725h2.532A4.739,4.739,0,0,1,69.275,6.45V26.417a4.739,4.739,0,0,1-4.742,4.725H61.661a.863.863,0,0,0-.524.177L55.868,35.35V32A.863.863,0,0,0,55,31.142H44.5a4.718,4.718,0,0,1-2.415-.658V20.8a5.264,5.264,0,0,0-2.327-4.365V6.45A4.739,4.739,0,0,1,44.5,1.725H56.594a.863.863,0,0,0,0-1.725H44.5a6.466,6.466,0,0,0-6.468,6.45v9.225a5.289,5.289,0,0,0-1.23-.146H21.013A5.282,5.282,0,0,0,15.731,20.8v1.863a.863.863,0,0,0,1.725,0V20.8a3.554,3.554,0,0,1,3.557-3.544H36.807A3.554,3.554,0,0,1,40.364,20.8V30.827a.863.863,0,0,0,0,.228v5.488c0,.108-.007.216-.016.324H38.569a4,4,0,0,0-3.934,3.275.865.865,0,0,0-.224.125l-3.859,2.979v-2.3a.863.863,0,0,0-.863-.863H21.013a3.554,3.554,0,0,1-3.557-3.544V27.838a.863.863,0,0,0-1.725,0v8.706a5.282,5.282,0,0,0,5.283,5.269h7.814V45a.876.876,0,0,0,1.39.683l4.352-3.36v9.706a4,4,0,0,0,4,3.99h5.294v2.013a.876.876,0,0,0,1.39.683l3.492-2.7h1.032a4,4,0,0,0,4-3.99V50.5a.863.863,0,0,0-1.725,0v1.532A2.272,2.272,0,0,1,49.777,54.3H48.451a.863.863,0,0,0-.527.18l-2.335,1.8v-1.12a.863.863,0,0,0-.863-.863H38.569a2.272,2.272,0,0,1-2.274-2.264V40.857a2.272,2.272,0,0,1,2.274-2.264H49.777a2.272,2.272,0,0,1,2.274,2.264v4.235a.863.863,0,0,0,1.725,0V40.857a4,4,0,0,0-4-3.99h-7.7c.007-.108.01-4.465.01-4.465a6.457,6.457,0,0,0,2.415.465h9.637V37.1a.876.876,0,0,0,1.387.685l6.424-4.914h2.579A6.466,6.466,0,0,0,71,26.417V6.45A6.466,6.466,0,0,0,64.533,0Z" transform="translate(0)"/>
      <path id="Trazado_818711" data-name="Trazado 818711" d="M278.7,54.631a1.8,1.8,0,0,0-2.212,1.718,5.069,5.069,0,0,1-1.268,3.355l-2.377,2.69a.861.861,0,0,0-.723-.392h-4.64a.863.863,0,0,0-.863.863V73.3a.863.863,0,0,0,.863.863h4.64a.862.862,0,0,0,.784-.5,6.028,6.028,0,0,0,3.136.884h8.2a2.258,2.258,0,0,0,2.228-2.337c-.026-.554,0-7.986,0-8.151a2.233,2.233,0,0,0-2.228-2.231l-4.265-.013.177-.418a6.736,6.736,0,0,0-.355-5.928,1.758,1.758,0,0,0-1.1-.838Zm-7.443,17.811h-2.915V63.727h2.915Zm12.984-8.889a.506.506,0,0,1,.505.505c0,.164,0,.61,0,1.214-.013,3.335-.021,6.494,0,7.019a.505.505,0,0,1-.5.531h-8.2a4.3,4.3,0,0,1-2.694-.954l-.363-.294V64.841l3.53-3.995a6.793,6.793,0,0,0,1.7-4.5.048.048,0,0,1,.089-.023,5,5,0,0,1,.263,4.4l-.681,1.613a.863.863,0,0,0,.792,1.2Z" transform="translate(-222.028 -48.257)"/>
      <path id="Trazado_818712" data-name="Trazado 818712" d="M73.314,201.206a.863.863,0,1,0,0,1.725h2.543l-.475,2.873a.863.863,0,1,0,1.7.281l.522-3.155h2.081l-.475,2.873a.863.863,0,1,0,1.7.281l.522-3.155H84.9a.863.863,0,0,0,0-1.725H81.721l.348-2.1H84.9a.863.863,0,0,0,0-1.725H82.354l.475-2.873a.863.863,0,1,0-1.7-.281l-.522,3.155H78.524L79,194.5a.863.863,0,1,0-1.7-.281l-.522,3.155H73.314a.863.863,0,0,0,0,1.725H76.49l-.348,2.1Zm4.925-2.1H80.32l-.348,2.1H77.891Z" transform="translate(-50.195 -171.24)"/>
      <path id="Trazado_818713" data-name="Trazado 818713" d="M224.834,369.117a2.9,2.9,0,0,0-2.553-.574,3.21,3.21,0,0,0-2.394,3.239,4.236,4.236,0,0,0,1.275,3.032,12.657,12.657,0,0,0,3.278,2.261.862.862,0,0,0,.808,0c2.733-1.449,4.553-2.9,4.553-5.293a3.189,3.189,0,0,0-2.479-3.222,2.893,2.893,0,0,0-2.489.557Zm3.242,2.665c0,1.289-.855,2.242-3.232,3.551-2.377-1.308-3.232-2.262-3.232-3.551a1.476,1.476,0,0,1,1.075-1.562,1.293,1.293,0,0,1,.3-.036,1.191,1.191,0,0,1,1.086.694.863.863,0,0,0,1.548-.031,1.121,1.121,0,0,1,1.323-.6A1.459,1.459,0,0,1,228.076,371.782Z" transform="translate(-180.671 -326.072)"/>
    </g>
  </g>
</svg>
