<svg xmlns="http://www.w3.org/2000/svg" width="92" height="91" viewBox="0 0 92 91">
  <g id="Grupo_1071915" data-name="Grupo 1071915" transform="translate(-439 -1491)">
    <rect id="Rectángulo_375713" data-name="Rectángulo 375713" width="92" height="91" rx="13" transform="translate(439 1491)" fill="#fff"/>
    <g id="filled_outline" data-name="filled outline" transform="translate(386 1485)">
      <path id="Trazado_819118" data-name="Trazado 819118" d="M80,24h52.5V93.2H80Z" transform="translate(-6.807 -6.807)" fill="#7496a6"/>
      <path id="Trazado_819119" data-name="Trazado 819119" d="M112,56h40.566l2.386,4.772v50.111l-2.386,4.772H119.457A7.457,7.457,0,0,1,112,108.2Z" transform="translate(-34.034 -34.034)" fill="#607d8b"/>
      <ellipse id="Elipse_9703" data-name="Elipse 9703" cx="22" cy="21.5" rx="22" ry="21.5" transform="translate(77 22.087)" fill="#dedde2"/>
      <circle id="Elipse_9704" data-name="Elipse 9704" cx="8.5" cy="8.5" r="8.5" transform="translate(91 35.087)" fill="#607d8b"/>
      <circle id="Elipse_9705" data-name="Elipse 9705" cx="2.5" cy="2.5" r="2.5" transform="translate(97 41.087)" fill="#dedde2"/>
      <path id="Trazado_819120" data-name="Trazado 819120" d="M184.5,286.716,198.7,264l-22.664,15.109.019,7.607Z" transform="translate(-88.522 -211.013)" fill="#f5be41"/>
      <path id="Trazado_819121" data-name="Trazado 819121" d="M288,384h11.931v5.966H288Z" transform="translate(-183.786 -313.117)" fill="#3d5966"/>
      <path id="Trazado_819122" data-name="Trazado 819122" d="M122.738,347.579a1.193,1.193,0,0,0-1.193-1.193A2.386,2.386,0,0,1,119.159,344H112v4.772h4.772a7.159,7.159,0,0,0,7.159,7.159h8.352a1.193,1.193,0,0,0,1.193-1.193v-2.386a1.193,1.193,0,0,0-1.193-1.193h-5.966A3.579,3.579,0,0,1,122.738,347.579Z" transform="translate(-34.034 -279.082)" fill="#e6ad2c"/>
      <path id="Trazado_819123" data-name="Trazado 819123" d="M125.69,87.587a1.193,1.193,0,0,0,1.193-1.193v-69.2A1.193,1.193,0,0,0,125.69,16h-52.5A1.193,1.193,0,0,0,72,17.193v69.2a1.193,1.193,0,0,0,1.193,1.193Zm-51.3-69.2H124.5V85.2H74.386Z"/>
      <path id="Trazado_819124" data-name="Trazado 819124" d="M201.545,136a9.545,9.545,0,1,0,9.545,9.545A9.545,9.545,0,0,0,201.545,136Zm0,16.7a7.159,7.159,0,1,1,7.159-7.159A7.159,7.159,0,0,1,201.545,152.7Z" transform="translate(-102.103 -102.103)"/>
      <path id="Trazado_819125" data-name="Trazado 819125" d="M235.579,176a3.579,3.579,0,1,0,3.579,3.579A3.579,3.579,0,0,0,235.579,176Zm0,4.772a1.193,1.193,0,1,1,1.193-1.193A1.193,1.193,0,0,1,235.579,180.772Z" transform="translate(-136.138 -136.138)"/>
      <path id="Trazado_819126" data-name="Trazado 819126" d="M146.826,48.659A1.193,1.193,0,0,0,145.759,48H105.193A1.193,1.193,0,0,0,104,49.193v52.2a8.66,8.66,0,0,0,8.65,8.65h33.109a1.193,1.193,0,0,0,1.067-.659l2.386-4.772a1.192,1.192,0,0,0,.126-.534V53.966a1.193,1.193,0,0,0-.126-.534Zm-40.44,44.679h4.977a3.582,3.582,0,0,0,3.372,2.385h0v0a4.778,4.778,0,0,0,4.772,4.772h5.966v2.386h-8.352a5.972,5.972,0,0,1-5.966-5.966,1.193,1.193,0,0,0-1.193-1.193h-3.579Zm18.429,4.772h-5.3a2.389,2.389,0,0,1-2.386-2.386,2.382,2.382,0,0,0-.058-.516L133.459,84.28Zm13.6-17.264a1.193,1.193,0,0,0-1.674-1.626L120.556,90.014a20.274,20.274,0,1,1,12.106.043Zm-32.033-30.46h10.167a22.821,22.821,0,0,0-10.167,10.167Zm2.269,34.047a22.882,22.882,0,0,0,9.438,7.223l-2.674,1.783a2.375,2.375,0,0,0-.681-.1,1.194,1.194,0,0,1-1.193-1.193,1.193,1.193,0,0,0-1.193-1.193h-5.966V80.812A22.807,22.807,0,0,0,108.655,84.433Zm38.3,19.361-1.93,3.861H112.65a6.271,6.271,0,0,1-6.264-6.264V98.111h2.471a8.365,8.365,0,0,0,8.267,7.159h8.352a2.389,2.389,0,0,0,2.386-2.386V100.5a2.377,2.377,0,0,0-.683-1.668l3.673-5.876a22.678,22.678,0,0,0,16.1-12.16ZM136.785,50.386h8.237l1.93,3.861v6.306A22.821,22.821,0,0,0,136.785,50.386Z" transform="translate(-27.228 -27.228)"/>
      <path id="Trazado_819127" data-name="Trazado 819127" d="M281.193,376A1.193,1.193,0,0,0,280,377.193v5.966a1.193,1.193,0,0,0,1.193,1.193h11.931a1.193,1.193,0,0,0,1.193-1.193v-5.966A1.193,1.193,0,0,0,293.124,376Zm10.738,5.966h-9.545v-3.579h9.545Z" transform="translate(-176.979 -306.31)"/>
    </g>
  </g>
</svg>
