<svg xmlns="http://www.w3.org/2000/svg" xmlns:xlink="http://www.w3.org/1999/xlink" width="140" height="140" viewBox="0 0 140 140">
  <defs>
    <radialGradient id="radial-gradient" cx="0.5" cy="0.5" r="0.5" gradientUnits="objectBoundingBox">
      <stop offset="0" stop-color="#3f4afc"/>
      <stop offset="1" stop-color="#949af8"/>
    </radialGradient>
  </defs>
  <g id="Grupo_1072753" data-name="Grupo 1072753" transform="translate(3700 8158)">
    <rect id="Rectángulo_375591" data-name="Rectángulo 375591" width="140" height="140" rx="14" transform="translate(-3700 -8158)" fill="url(#radial-gradient)"/>
    <g id="libreria" transform="translate(-3673.148 -8131.148)">
      <path id="Trazado_819857" data-name="Trazado 819857" d="M83.993,89.753a41.295,41.295,0,1,0-63.4,0Z" transform="translate(-9.144 -18.289)" fill="#73c3f9"/>
      <path id="Trazado_819858" data-name="Trazado 819858" d="M181.317,23.292a2.524,2.524,0,0,1-1.917.9,2.385,2.385,0,0,1-1.549-.865c-.54-.883-10.859-17.725-13.417-19.675a2.176,2.176,0,0,1-1.039-1.673A2.65,2.65,0,0,1,164.432.2l.22-.2H115.4a2.549,2.549,0,0,0,0,3.853v6.682A3.528,3.528,0,0,0,115.9,15.2l.491,35.765s-.149.121-.376.35H181.5V23.1c-.061.07-.121.135-.179.193Z" transform="translate(-95.199)" fill="#3c58a0"/>
      <path id="Trazado_819859" data-name="Trazado 819859" d="M415.479,0H404.244s-2.563,1.9,0,3.853,13.362,19.618,13.362,19.618,1.652,2.2,3.853,0V5.98A5.987,5.987,0,0,0,415.479,0Z" transform="translate(-335.162 0)" fill="#4f71b6"/>
      <path id="Trazado_819860" data-name="Trazado 819860" d="M20.708,0H5.98A5.987,5.987,0,0,0,0,5.98V51.312H21.317c.228-.23.376-.35.376-.35L21.2,15.2a3.528,3.528,0,0,1-.494-4.662V3.853a2.549,2.549,0,0,1,0-3.853Z" transform="translate(0 0)" fill="#2a428c"/>
      <path id="Trazado_819861" data-name="Trazado 819861" d="M116.562,61.505v.169a3.528,3.528,0,0,0,.494,4.662l.491,35.765s-.149.121-.376.35H178.8V61.505Z" transform="translate(-96.359 -51.138)" fill="#d3dcfb"/>
      <g id="Grupo_1072760" data-name="Grupo 1072760" transform="translate(51.009 19.881)">
        <g id="Grupo_1072757" data-name="Grupo 1072757">
          <path id="Trazado_819862" data-name="Trazado 819862" d="M368.821,268.722l-1.017-3.794-4.841,1.3.562,2.1a2.656,2.656,0,0,0,1.908,1.88l3-.8A.553.553,0,0,0,368.821,268.722Z" transform="translate(-352.796 -240.156)" fill="#ff4155"/>
          <path id="Trazado_819863" data-name="Trazado 819863" d="M346.092,274.044l-.562-2.1-4.048,1.084,1.017,3.794a.553.553,0,0,0,.678.391L348,275.924A2.656,2.656,0,0,1,346.092,274.044Z" transform="translate(-334.935 -245.991)" fill="#e80054"/>
          <path id="Trazado_819864" data-name="Trazado 819864" d="M0,0H5.012V13.8H0Z" transform="translate(5.635 9.112) rotate(-15.009)" fill="#ff4155"/>
          <path id="Trazado_819865" data-name="Trazado 819865" d="M0,0H4.19V13.8H0Z" transform="translate(2.015 10.083) rotate(-15.009)" fill="#e80054"/>
          <path id="Trazado_819866" data-name="Trazado 819866" d="M326.487,121.357l.562,2.1,4.841-1.3-1.017-3.794a.554.554,0,0,0-.678-.391l-3,.8A2.656,2.656,0,0,0,326.487,121.357Z" transform="translate(-322.393 -117.953)" fill="#ff4155"/>
          <path id="Trazado_819867" data-name="Trazado 819867" d="M307.16,124.733a2.656,2.656,0,0,1,.712-2.582l-4.823,1.292a.553.553,0,0,0-.391.678l1.017,3.794,4.048-1.084Z" transform="translate(-302.639 -121.444)" fill="#e80054"/>
          <path id="Trazado_819868" data-name="Trazado 819868" d="M0,0H4.845V4.435H0Z" transform="translate(9.282 22.067) rotate(-15.009)" fill="#f9a0b1"/>
          <path id="Trazado_819869" data-name="Trazado 819869" d="M0,0H4.845V4.435H0Z" transform="translate(4.737 5.118) rotate(-15.009)" fill="#f9a0b1"/>
          <g id="Grupo_1072756" data-name="Grupo 1072756" transform="translate(0.955 5.047)">
            <path id="Trazado_819870" data-name="Trazado 819870" d="M0,0H4.19V4.435H0Z" transform="translate(4.545 18.035) rotate(-15.009)" fill="#ff7186"/>
            <path id="Trazado_819871" data-name="Trazado 819871" d="M0,0H4.19V4.435H0Z" transform="translate(0 1.085) rotate(-15.009)" fill="#ff7186"/>
          </g>
        </g>
        <g id="Grupo_1072759" data-name="Grupo 1072759" transform="translate(8.933)">
          <path id="Trazado_819872" data-name="Trazado 819872" d="M421.82,268.722l-1.017-3.794-4.841,1.3.562,2.1a2.656,2.656,0,0,0,1.908,1.88l3-.8A.553.553,0,0,0,421.82,268.722Z" transform="translate(-405.794 -240.156)" fill="#6faf46"/>
          <path id="Trazado_819873" data-name="Trazado 819873" d="M399.091,274.044l-.562-2.1-4.048,1.084,1.017,3.794a.553.553,0,0,0,.678.391L401,275.924A2.656,2.656,0,0,1,399.091,274.044Z" transform="translate(-387.934 -245.991)" fill="#5ea033"/>
          <path id="Trazado_819874" data-name="Trazado 819874" d="M0,0H5.012V13.8H0Z" transform="translate(5.636 9.111) rotate(-15.009)" fill="#6faf46"/>
          <path id="Trazado_819875" data-name="Trazado 819875" d="M0,0H4.19V13.8H0Z" transform="translate(2.015 10.081) rotate(-15.009)" fill="#5ea033"/>
          <path id="Trazado_819876" data-name="Trazado 819876" d="M379.485,121.357l.562,2.1,4.841-1.3-1.017-3.794a.554.554,0,0,0-.678-.391l-3,.8A2.656,2.656,0,0,0,379.485,121.357Z" transform="translate(-375.391 -117.953)" fill="#6faf46"/>
          <path id="Trazado_819877" data-name="Trazado 819877" d="M360.159,124.733a2.656,2.656,0,0,1,.712-2.582l-4.823,1.292a.553.553,0,0,0-.391.678l1.017,3.794,4.048-1.084Z" transform="translate(-355.637 -121.444)" fill="#5ea033"/>
          <path id="Trazado_819878" data-name="Trazado 819878" d="M0,0H4.845V4.435H0Z" transform="translate(9.283 22.066) rotate(-15.009)" fill="#b4d667"/>
          <path id="Trazado_819879" data-name="Trazado 819879" d="M0,0H4.845V4.435H0Z" transform="translate(4.738 5.116) rotate(-15.009)" fill="#b4d667"/>
          <g id="Grupo_1072758" data-name="Grupo 1072758" transform="translate(0.956 5.045)">
            <path id="Trazado_819880" data-name="Trazado 819880" d="M0,0H4.19V4.435H0Z" transform="translate(4.545 18.034) rotate(-15.009)" fill="#88ce65"/>
            <path id="Trazado_819881" data-name="Trazado 819881" d="M0,0H4.19V4.435H0Z" transform="translate(0 1.085) rotate(-15.009)" fill="#88ce65"/>
          </g>
        </g>
      </g>
      <g id="Grupo_1072762" data-name="Grupo 1072762" transform="translate(42.417 21.017)">
        <path id="Trazado_819882" data-name="Trazado 819882" d="M278.909,281.545v-3.928H273.9v2.172a2.656,2.656,0,0,0,1.356,2.309h3.1A.553.553,0,0,0,278.909,281.545Z" transform="translate(-270.149 -251.842)" fill="#49b1f7"/>
        <path id="Trazado_819883" data-name="Trazado 819883" d="M255.848,279.79v-2.172h-4.19v3.928a.553.553,0,0,0,.553.553H257.2a2.656,2.656,0,0,1-1.356-2.309Z" transform="translate(-251.658 -251.843)" fill="#1e9ef4"/>
        <path id="Trazado_819884" data-name="Trazado 819884" d="M273.9,173.512h5.012v13.8H273.9Z" transform="translate(-270.149 -165.284)" fill="#49b1f7"/>
        <path id="Trazado_819885" data-name="Trazado 819885" d="M251.658,173.512h4.19v13.8h-4.19Z" transform="translate(-251.658 -165.284)" fill="#1e9ef4"/>
        <path id="Trazado_819886" data-name="Trazado 819886" d="M273.9,127v2.172h5.012v-3.928a.553.553,0,0,0-.553-.553h-3.1A2.656,2.656,0,0,0,273.9,127Z" transform="translate(-270.149 -124.695)" fill="#49b1f7"/>
        <path id="Trazado_819887" data-name="Trazado 819887" d="M255.849,127a2.656,2.656,0,0,1,1.356-2.309h-4.993a.553.553,0,0,0-.553.553v3.928h4.19V127Z" transform="translate(-251.659 -124.695)" fill="#1e9ef4"/>
        <path id="Trazado_819888" data-name="Trazado 819888" d="M274.887,253.348h4.845v4.435h-4.845Z" transform="translate(-270.972 -231.664)" fill="#9bd8f9"/>
        <path id="Trazado_819889" data-name="Trazado 819889" d="M274.887,149.244h4.845v4.435h-4.845Z" transform="translate(-270.972 -145.106)" fill="#9bd8f9"/>
        <g id="Grupo_1072761" data-name="Grupo 1072761" transform="translate(0 4.138)">
          <path id="Trazado_819890" data-name="Trazado 819890" d="M251.658,253.348h4.19v4.435h-4.19Z" transform="translate(-251.658 -235.801)" fill="#73c3f9"/>
          <path id="Trazado_819891" data-name="Trazado 819891" d="M251.658,149.243h4.19v4.435h-4.19Z" transform="translate(-251.658 -149.243)" fill="#73c3f9"/>
        </g>
      </g>
      <path id="Trazado_819892" data-name="Trazado 819892" d="M39.715,61.505H22.86v40.946H40.324c.228-.23.376-.35.376-.35l-.491-35.765a3.528,3.528,0,0,1-.494-4.662v-.169Z" transform="translate(-19.007 -51.138)" fill="#bec8f7"/>
      <g id="Grupo_1072764" data-name="Grupo 1072764" transform="translate(11.335 15.198)">
        <path id="Trazado_819893" data-name="Trazado 819893" d="M99.777,277.388V272.7H93.795v2.593a3.17,3.17,0,0,0,1.619,2.757h3.7A.66.66,0,0,0,99.777,277.388Z" transform="translate(-89.321 -241.934)" fill="#ff4155"/>
        <path id="Trazado_819894" data-name="Trazado 819894" d="M72.251,275.292V272.7h-5v4.689a.661.661,0,0,0,.661.661h5.96A3.17,3.17,0,0,1,72.251,275.292Z" transform="translate(-67.249 -241.934)" fill="#e80054"/>
        <path id="Trazado_819895" data-name="Trazado 819895" d="M93.795,148.436h5.982v16.472H93.795Z" transform="translate(-89.321 -138.615)" fill="#ff4155"/>
        <path id="Trazado_819896" data-name="Trazado 819896" d="M67.249,148.436h5v16.472h-5Z" transform="translate(-67.249 -138.615)" fill="#e80054"/>
        <path id="Trazado_819897" data-name="Trazado 819897" d="M93.795,92.924v2.593h5.982V90.828a.661.661,0,0,0-.661-.661h-3.7A3.17,3.17,0,0,0,93.795,92.924Z" transform="translate(-89.321 -90.167)" fill="#ff4155"/>
        <path id="Trazado_819898" data-name="Trazado 819898" d="M72.251,92.924a3.17,3.17,0,0,1,1.619-2.757H67.91a.661.661,0,0,0-.661.661v4.689h5Z" transform="translate(-67.249 -90.167)" fill="#e80054"/>
        <path id="Trazado_819899" data-name="Trazado 819899" d="M94.976,243.731h5.783v5.293H94.976Z" transform="translate(-90.303 -217.848)" fill="#f9a0b1"/>
        <path id="Trazado_819900" data-name="Trazado 819900" d="M94.976,119.468h5.783v5.293H94.976Z" transform="translate(-90.303 -114.529)" fill="#f9a0b1"/>
        <g id="Grupo_1072763" data-name="Grupo 1072763" transform="translate(0 4.939)">
          <path id="Trazado_819901" data-name="Trazado 819901" d="M67.25,243.731h5v5.293h-5Z" transform="translate(-67.25 -222.787)" fill="#ff7186"/>
          <path id="Trazado_819902" data-name="Trazado 819902" d="M67.25,119.468h5v5.293h-5Z" transform="translate(-67.25 -119.468)" fill="#ff7186"/>
        </g>
      </g>
      <g id="Grupo_1072766" data-name="Grupo 1072766" transform="translate(21.688 15.198)">
        <path id="Trazado_819903" data-name="Trazado 819903" d="M161.2,277.388V272.7H155.22v2.593a3.17,3.17,0,0,0,1.619,2.757h3.7A.66.66,0,0,0,161.2,277.388Z" transform="translate(-150.746 -241.934)" fill="#ffc839"/>
        <path id="Trazado_819904" data-name="Trazado 819904" d="M133.676,275.292V272.7h-5v4.689a.661.661,0,0,0,.661.661h5.96A3.17,3.17,0,0,1,133.676,275.292Z" transform="translate(-128.674 -241.934)" fill="#ffb332"/>
        <path id="Trazado_819905" data-name="Trazado 819905" d="M155.22,148.436H161.2v16.472H155.22Z" transform="translate(-150.746 -138.615)" fill="#ffc839"/>
        <path id="Trazado_819906" data-name="Trazado 819906" d="M128.674,148.436h5v16.472h-5Z" transform="translate(-128.674 -138.615)" fill="#ffb332"/>
        <path id="Trazado_819907" data-name="Trazado 819907" d="M155.22,92.924v2.593H161.2V90.828a.661.661,0,0,0-.661-.661h-3.7A3.17,3.17,0,0,0,155.22,92.924Z" transform="translate(-150.746 -90.167)" fill="#ffc839"/>
        <path id="Trazado_819908" data-name="Trazado 819908" d="M133.676,92.924a3.171,3.171,0,0,1,1.619-2.757h-5.96a.661.661,0,0,0-.661.661v4.689h5Z" transform="translate(-128.674 -90.167)" fill="#ffb332"/>
        <path id="Trazado_819909" data-name="Trazado 819909" d="M156.4,243.731h5.783v5.293H156.4Z" transform="translate(-151.728 -217.848)" fill="#ffe98d"/>
        <path id="Trazado_819910" data-name="Trazado 819910" d="M156.4,119.468h5.783v5.293H156.4Z" transform="translate(-151.728 -114.529)" fill="#ffe98d"/>
        <g id="Grupo_1072765" data-name="Grupo 1072765" transform="translate(0 4.939)">
          <path id="Trazado_819911" data-name="Trazado 819911" d="M128.674,243.731h5v5.293h-5Z" transform="translate(-128.674 -222.787)" fill="#ffdd40"/>
          <path id="Trazado_819912" data-name="Trazado 819912" d="M128.674,119.468h5v5.293h-5Z" transform="translate(-128.674 -119.468)" fill="#ffdd40"/>
        </g>
      </g>
      <g id="Grupo_1072768" data-name="Grupo 1072768" transform="translate(32.041 15.198)">
        <path id="Trazado_819913" data-name="Trazado 819913" d="M222.626,277.388V272.7h-5.982v2.593a3.17,3.17,0,0,0,1.619,2.757h3.7A.661.661,0,0,0,222.626,277.388Z" transform="translate(-212.17 -241.934)" fill="#6faf46"/>
        <path id="Trazado_819914" data-name="Trazado 819914" d="M195.1,275.292V272.7h-5v4.689a.661.661,0,0,0,.661.661h5.96A3.171,3.171,0,0,1,195.1,275.292Z" transform="translate(-190.099 -241.934)" fill="#5ea033"/>
        <path id="Trazado_819915" data-name="Trazado 819915" d="M216.645,148.436h5.982v16.472h-5.982Z" transform="translate(-212.171 -138.615)" fill="#6faf46"/>
        <path id="Trazado_819916" data-name="Trazado 819916" d="M190.1,148.436h5v16.472h-5Z" transform="translate(-190.099 -138.615)" fill="#5ea033"/>
        <path id="Trazado_819917" data-name="Trazado 819917" d="M216.645,92.924v2.593h5.982V90.828a.661.661,0,0,0-.661-.661h-3.7A3.17,3.17,0,0,0,216.645,92.924Z" transform="translate(-212.171 -90.167)" fill="#6faf46"/>
        <path id="Trazado_819918" data-name="Trazado 819918" d="M195.1,92.924a3.171,3.171,0,0,1,1.619-2.757h-5.96a.661.661,0,0,0-.661.661v4.689h5Z" transform="translate(-190.099 -90.167)" fill="#5ea033"/>
        <path id="Trazado_819919" data-name="Trazado 819919" d="M217.827,243.731h5.783v5.293h-5.783Z" transform="translate(-213.153 -217.848)" fill="#b4d667"/>
        <path id="Trazado_819920" data-name="Trazado 819920" d="M217.827,119.468h5.783v5.293h-5.783Z" transform="translate(-213.153 -114.529)" fill="#b4d667"/>
        <g id="Grupo_1072767" data-name="Grupo 1072767" transform="translate(0 4.939)">
          <path id="Trazado_819921" data-name="Trazado 819921" d="M190.1,243.731h5v5.293h-5Z" transform="translate(-190.1 -222.787)" fill="#88ce65"/>
          <path id="Trazado_819922" data-name="Trazado 819922" d="M190.1,119.468h5v5.293h-5Z" transform="translate(-190.1 -119.468)" fill="#88ce65"/>
        </g>
      </g>
      <path id="Trazado_819923" data-name="Trazado 819923" d="M101.451,29.542V24.987a2.155,2.155,0,0,0-2.127-2.127H24.987a2.156,2.156,0,0,0-2.127,2.127v4.555Z" transform="translate(-19.007 -19.007)" fill="#1c2e7a"/>
      <path id="Trazado_819924" data-name="Trazado 819924" d="M216.459,422l8.905,6.208s-14.5,3.479-3.512,8.941q.633.019,1.271.02A41.211,41.211,0,0,0,255.1,422Z" transform="translate(-179.975 -350.873)" fill="#d1714b"/>
      <path id="Trazado_819925" data-name="Trazado 819925" d="M97.326,437.156c-11.015-5.466,3.5-8.948,3.5-8.948L91.918,422H66.266a41.21,41.21,0,0,0,31.06,15.156Z" transform="translate(-55.097 -350.873)" fill="#bc6242"/>
      <path id="Trazado_819926" data-name="Trazado 819926" d="M254.54,384.985h-7.554a2.577,2.577,0,0,0-2.562,2.3l-.438,4.1a2.577,2.577,0,0,0,2.562,2.851H257.2a9.334,9.334,0,0,1-2.058-4.723Z" transform="translate(-202.85 -320.096)" fill="#d3dcfb"/>
      <path id="Trazado_819927" data-name="Trazado 819927" d="M204.308,380.747h-10.35a2.526,2.526,0,0,1-2.511-2.794l.429-4.016a2.526,2.526,0,0,1,2.511-2.258h7.334l-.378-2.822H184.99l-.971,7.247A9.906,9.906,0,0,1,180.881,382a1.621,1.621,0,0,0,1.172,2.74H204.28a1.621,1.621,0,0,0,1.172-2.74c-.106-.145-.586-.554-1.144-1.251Z" transform="translate(-150.018 -306.687)" fill="#bec8f7"/>
      <path id="Trazado_819928" data-name="Trazado 819928" d="M112.41,302.359s-5.88,4.762-.271,11.559h59.4a5.987,5.987,0,0,0,5.98-5.98v-5.578H112.41Z" transform="translate(-91.222 -251.397)" fill="#e9efff"/>
      <path id="Trazado_819929" data-name="Trazado 819929" d="M21.694,302.359H0v5.578a5.987,5.987,0,0,0,5.98,5.98H21.422C15.813,307.121,21.694,302.359,21.694,302.359Z" transform="translate(0 -251.397)" fill="#d3dcfb"/>
      <circle id="Elipse_9725" data-name="Elipse 9725" cx="2.578" cy="2.578" r="2.578" transform="translate(39.492 56.74) rotate(-45)" fill="#d3dcfb"/>
      <path id="Trazado_819930" data-name="Trazado 819930" d="M49.861,33.706a1.819,1.819,0,1,1-1.819-1.819A1.819,1.819,0,0,1,49.861,33.706Z" transform="translate(-38.431 -26.512)" fill="#ff4155"/>
      <path id="Trazado_819931" data-name="Trazado 819931" d="M79.708,33.706a1.819,1.819,0,1,1-1.819-1.819A1.819,1.819,0,0,1,79.708,33.706Z" transform="translate(-63.248 -26.512)" fill="#ffdd40"/>
      <path id="Trazado_819932" data-name="Trazado 819932" d="M109.555,33.706a1.819,1.819,0,1,1-1.819-1.819A1.819,1.819,0,0,1,109.555,33.706Z" transform="translate(-88.064 -26.512)" fill="#88ce65"/>
      <g id="Grupo_1072769" data-name="Grupo 1072769" transform="translate(26.078 5.806)">
        <path id="Trazado_819933" data-name="Trazado 819933" d="M190.959,37.224H156.111a1.388,1.388,0,1,1,0-2.776h34.848a1.388,1.388,0,1,1,0,2.776Z" transform="translate(-154.723 -34.448)" fill="#3c58a0"/>
      </g>
      <g id="Grupo_1072770" data-name="Grupo 1072770" transform="translate(75.018 5.806)">
        <path id="Trazado_819934" data-name="Trazado 819934" d="M448.05,37.224h-1.582a1.388,1.388,0,1,1,0-2.776h1.582a1.388,1.388,0,0,1,0,2.776Z" transform="translate(-445.08 -34.448)" fill="#3c58a0"/>
      </g>
      <g id="Grupo_1072771" data-name="Grupo 1072771" transform="translate(68.675 5.806)">
        <path id="Trazado_819935" data-name="Trazado 819935" d="M410.417,37.224h-1.582a1.388,1.388,0,1,1,0-2.776h1.582a1.388,1.388,0,1,1,0,2.776Z" transform="translate(-407.447 -34.448)" fill="#3c58a0"/>
      </g>
    </g>
  </g>
</svg>
