<svg xmlns="http://www.w3.org/2000/svg" xmlns:xlink="http://www.w3.org/1999/xlink" width="140" height="140" viewBox="0 0 140 140">
  <defs>
    <radialGradient id="radial-gradient" cx="0.5" cy="0.5" r="0.5" gradientUnits="objectBoundingBox">
      <stop offset="0" stop-color="#3f4afc"/>
      <stop offset="1" stop-color="#949af8"/>
    </radialGradient>
  </defs>
  <g id="Grupo_1072751" data-name="Grupo 1072751" transform="translate(3700 8158)">
    <rect id="Rectángulo_375591" data-name="Rectángulo 375591" width="140" height="140" rx="14" transform="translate(-3700 -8158)" fill="url(#radial-gradient)"/>
    <g id="reserva" transform="translate(-3679 -8150)">
      <path id="Trazado_818321" data-name="Trazado 818321" d="M378.711,55.227H366.982a.987.987,0,0,1-.987-.987V50.127a.774.774,0,0,0-1.2-.644l-12.57,8.382a.513.513,0,0,0,0,.857l12.57,8.382a.774.774,0,0,0,1.2-.644V62.347a.987.987,0,0,1,.987-.987h8.585a.958.958,0,0,1,.958.958V84.935a.958.958,0,0,1-.958.958H362.152a.958.958,0,0,0-.958.958v5.175h17.518a3.949,3.949,0,0,0,3.949-3.949v-28.9a3.949,3.949,0,0,0-3.949-3.949Z" transform="translate(-284.527 -26.96)" fill="#05e39c"/>
      <path id="Trazado_818322" data-name="Trazado 818322" d="M61.717,46.667H5.75A5.75,5.75,0,0,1,0,40.917V21.75A5.75,5.75,0,0,1,5.75,16H61.717a5.75,5.75,0,0,1,5.75,5.75V40.917A5.75,5.75,0,0,1,61.717,46.667Z" fill="#c8effe"/>
      <path id="Trazado_818323" data-name="Trazado 818323" d="M47.525,66.4H34.875A2.875,2.875,0,0,1,32,63.525V50.875A2.875,2.875,0,0,1,34.875,48h12.65A2.875,2.875,0,0,1,50.4,50.875v12.65A2.875,2.875,0,0,1,47.525,66.4Z" transform="translate(-25.867 -25.867)" fill="#ffc344"/>
      <path id="Trazado_818324" data-name="Trazado 818324" d="M189.708,54.133h-28.75a.958.958,0,0,1-.958-.958V48.958a.958.958,0,0,1,.958-.958h28.75a.958.958,0,0,1,.958.958v4.217A.958.958,0,0,1,189.708,54.133Z" transform="translate(-129.333 -25.867)" fill="#017297"/>
      <path id="Trazado_818325" data-name="Trazado 818325" d="M141.717,206.667H85.75a5.75,5.75,0,0,1-5.75-5.75V181.75A5.75,5.75,0,0,1,85.75,176h55.967a5.75,5.75,0,0,1,5.75,5.75v19.167A5.75,5.75,0,0,1,141.717,206.667Z" transform="translate(-64.667 -129.333)" fill="#f2fbff"/>
      <path id="Trazado_818326" data-name="Trazado 818326" d="M269.708,214.133h-28.75a.958.958,0,0,1-.958-.958v-4.217a.958.958,0,0,1,.958-.958h28.75a.958.958,0,0,1,.958.958v4.217A.958.958,0,0,1,269.708,214.133Z" transform="translate(-194 -155.2)" fill="#017297"/>
      <path id="Trazado_818327" data-name="Trazado 818327" d="M61.717,366.667H5.75A5.75,5.75,0,0,1,0,360.917V341.75A5.75,5.75,0,0,1,5.75,336H61.717a5.75,5.75,0,0,1,5.75,5.75v19.167A5.75,5.75,0,0,1,61.717,366.667Z" transform="translate(0 -258.667)" fill="#c8effe"/>
      <path id="Trazado_818328" data-name="Trazado 818328" d="M64.153,16.714a5.745,5.745,0,0,1,.281,1.78V33.817a9.593,9.593,0,0,1-9.593,9.593H2.718a5.774,5.774,0,0,1-1.253-.137,5.752,5.752,0,0,0,5.469,3.97H62.9a5.75,5.75,0,0,0,5.75-5.75V22.327A5.752,5.752,0,0,0,64.153,16.714Z" transform="translate(-1.184 -0.577)" fill="#99e6fc"/>
      <path id="Trazado_818329" data-name="Trazado 818329" d="M144.153,176.714a5.745,5.745,0,0,1,.281,1.78v15.323a9.593,9.593,0,0,1-9.594,9.594H82.718a5.775,5.775,0,0,1-1.253-.137,5.752,5.752,0,0,0,5.469,3.97H142.9a5.75,5.75,0,0,0,5.75-5.75V182.327A5.752,5.752,0,0,0,144.153,176.714Z" transform="translate(-65.851 -129.91)" fill="#dff6fd"/>
      <path id="Trazado_818330" data-name="Trazado 818330" d="M64.153,336.714a5.745,5.745,0,0,1,.281,1.78v15.323a9.593,9.593,0,0,1-9.593,9.594H2.718a5.774,5.774,0,0,1-1.253-.137,5.752,5.752,0,0,0,5.469,3.97H62.9a5.75,5.75,0,0,0,5.75-5.75V342.327A5.752,5.752,0,0,0,64.153,336.714Z" transform="translate(-1.184 -259.244)" fill="#99e6fc"/>
      <path id="Trazado_818331" data-name="Trazado 818331" d="M189.708,374.133h-28.75a.958.958,0,0,1-.958-.958v-4.217a.958.958,0,0,1,.958-.958h28.75a.958.958,0,0,1,.958.958v4.217A.958.958,0,0,1,189.708,374.133Z" transform="translate(-129.333 -284.533)" fill="#017297"/>
      <ellipse id="Elipse_9691" data-name="Elipse 9691" cx="9.5" cy="9" rx="9.5" ry="9" transform="translate(21 53)" fill="#e53950"/>
      <path id="Trazado_818332" data-name="Trazado 818332" d="M50.207,388.354,42.437,374.9a1.428,1.428,0,0,0-2.473,0l-7.77,13.458A1.428,1.428,0,0,0,33.43,390.5H48.97A1.428,1.428,0,0,0,50.207,388.354Z" transform="translate(-25.867 -289.53)" fill="#01c0fa"/>
      <g id="Grupo_1071643" data-name="Grupo 1071643" transform="translate(29.229 32.963)">
        <path id="Trazado_818333" data-name="Trazado 818333" d="M184.6,107.375H153.938a1.437,1.437,0,1,1,0-2.875H184.6a1.437,1.437,0,1,1,0,2.875Z" transform="translate(-152.5 -104.5)" fill="#3692bc"/>
        <path id="Trazado_818334" data-name="Trazado 818334" d="M166.2,139.375H153.938a1.438,1.438,0,0,1,0-2.875H166.2a1.438,1.438,0,0,1,0,2.875Z" transform="translate(-152.5 -130.367)" fill="#3692bc"/>
        <path id="Trazado_818335" data-name="Trazado 818335" d="M264.6,267.375H233.938a1.438,1.438,0,0,1,0-2.875H264.6a1.438,1.438,0,0,1,0,2.875Z" transform="translate(-217.167 -233.833)" fill="#3692bc"/>
        <path id="Trazado_818336" data-name="Trazado 818336" d="M246.2,299.375H233.938a1.438,1.438,0,0,1,0-2.875H246.2a1.438,1.438,0,1,1,0,2.875Z" transform="translate(-217.167 -259.7)" fill="#3692bc"/>
        <path id="Trazado_818337" data-name="Trazado 818337" d="M184.6,427.375H153.938a1.438,1.438,0,0,1,0-2.875H184.6a1.438,1.438,0,1,1,0,2.875Z" transform="translate(-152.5 -363.167)" fill="#3692bc"/>
        <path id="Trazado_818338" data-name="Trazado 818338" d="M166.2,459.375H153.938a1.438,1.438,0,0,1,0-2.875H166.2a1.438,1.438,0,1,1,0,2.875Z" transform="translate(-152.5 -389.033)" fill="#3692bc"/>
      </g>
    </g>
  </g>
</svg>
