<svg id="analitica-" xmlns="http://www.w3.org/2000/svg" width="80.271" height="80.271" viewBox="0 0 80.271 80.271">
  <path id="Trazado_819844" data-name="Trazado 819844" d="M21.288,76.117H16.271A6.271,6.271,0,0,1,10,69.845V16.271A6.271,6.271,0,0,1,16.271,10H80.865a6.271,6.271,0,0,1,6.271,6.271V69.845a6.271,6.271,0,0,1-6.271,6.271H21.288Z" transform="translate(-8.432 -8.432)" fill="#fff"/>
  <path id="Trazado_819845" data-name="Trazado 819845" d="M80.865,10H16.271A6.271,6.271,0,0,0,10,16.271v5.017H87.136V16.271A6.271,6.271,0,0,0,80.865,10Z" transform="translate(-8.432 -8.432)" fill="#ff5a5a"/>
  <path id="Trazado_819846" data-name="Trazado 819846" d="M21,82h74.47" transform="translate(-17.711 -69.144)" fill="#231f20"/>
  <rect id="Rectángulo_376241" data-name="Rectángulo 376241" width="10.055" height="17.236" transform="translate(8.536 61.681)" fill="#a5dc69"/>
  <rect id="Rectángulo_376242" data-name="Rectángulo 376242" width="10.055" height="21.545" transform="translate(44.445 57.372)" fill="#78d2fa"/>
  <rect id="Rectángulo_376243" data-name="Rectángulo 376243" width="10.034" height="34.581" transform="translate(26.339 44.123)" fill="#f5c86e"/>
  <rect id="Rectángulo_376244" data-name="Rectángulo 376244" width="10.034" height="36.922" transform="translate(61.458 41.782)" fill="#ff5a5a"/>
  <circle id="Elipse_9720" data-name="Elipse 9720" cx="4.076" cy="4.076" r="4.076" transform="translate(26.397 22.88)" fill="#f5c86e"/>
  <circle id="Elipse_9721" data-name="Elipse 9721" cx="4.076" cy="4.076" r="4.076" transform="translate(44.693 41.547)" fill="#78d2fa"/>
  <circle id="Elipse_9722" data-name="Elipse 9722" cx="4.076" cy="4.076" r="4.076" transform="translate(62.398 22.88)" fill="#ff5a5a"/>
  <circle id="Elipse_9723" data-name="Elipse 9723" cx="4.076" cy="4.076" r="4.076" transform="translate(9.617 40.046)" fill="#a5dc69"/>
  <path id="Trazado_819847" data-name="Trazado 819847" d="M74.8,69.062a5.481,5.481,0,0,0,5.474-5.474V7.839A7.848,7.848,0,0,0,72.432,0H7.839A7.848,7.848,0,0,0,0,7.839V63.587a5.481,5.481,0,0,0,5.474,5.474H7.212v8.074H1.568a1.568,1.568,0,1,0,0,3.136H78.7a1.568,1.568,0,0,0,0-3.136H73.059V69.062ZM7.839,3.136H72.432a4.709,4.709,0,0,1,4.7,4.7v3.449H3.293c-.053,0-.106,0-.157.008V7.839A4.709,4.709,0,0,1,7.839,3.136Zm2.508,74V63.026h6.9v14.11Zm17.559,0V45.691h6.9V77.136Zm17.559,0V58.949h6.9V77.136Zm17.559,0V60.243a1.568,1.568,0,1,0-3.136,0V77.136H55.5V57.381a1.568,1.568,0,0,0-1.568-1.568H43.9a1.568,1.568,0,0,0-1.568,1.568V77.136h-4.39V44.123a1.568,1.568,0,0,0-1.568-1.568H26.339a1.568,1.568,0,0,0-1.568,1.568V77.136h-4.39V61.458a1.568,1.568,0,0,0-1.568-1.568H8.78a1.568,1.568,0,0,0-1.568,1.568v4.469H5.474a2.341,2.341,0,0,1-2.339-2.339V14.416c.052.005.1.008.157.008H77.136V63.587A2.341,2.341,0,0,1,74.8,65.926H73.059V41.782a1.568,1.568,0,0,0-1.568-1.568H61.458a1.568,1.568,0,0,0-1.568,1.568V49.7a1.568,1.568,0,1,0,3.136,0V43.35h6.9V77.136Z"/>
  <path id="Trazado_819848" data-name="Trazado 819848" d="M213.633,39.136h35.422a1.568,1.568,0,1,0,0-3.136H213.633a1.568,1.568,0,1,0,0,3.136Z" transform="translate(-178.817 -30.356)"/>
  <path id="Trazado_819849" data-name="Trazado 819849" d="M95.568,39.136a1.569,1.569,0,1,0-1.108-.46A1.579,1.579,0,0,0,95.568,39.136Z" transform="translate(-79.263 -30.356)"/>
  <path id="Trazado_819850" data-name="Trazado 819850" d="M55.568,39.136a1.569,1.569,0,1,0-1.108-.46A1.579,1.579,0,0,0,55.568,39.136Z" transform="translate(-45.534 -30.356)"/>
  <path id="Trazado_819851" data-name="Trazado 819851" d="M135.568,39.136a1.569,1.569,0,1,0-1.108-.46A1.579,1.579,0,0,0,135.568,39.136Z" transform="translate(-112.991 -30.356)"/>
  <path id="Trazado_819852" data-name="Trazado 819852" d="M383.568,342.64a1.568,1.568,0,1,0,1.108.459A1.574,1.574,0,0,0,383.568,342.64Z" transform="translate(-322.11 -288.921)"/>
  <path id="Trazado_819853" data-name="Trazado 819853" d="M109.762,147.227a5.653,5.653,0,1,0-4.567-2.333L94.781,155.308a5.63,5.63,0,0,0-5.2-.127L78.7,144.307a5.644,5.644,0,1,0-9.74.243L59.7,153.808a5.649,5.649,0,1,0,2.217,2.217l9.369-9.369a5.631,5.631,0,0,0,5.195-.132l10.768,10.768a5.644,5.644,0,1,0,9.746.233l10.693-10.693A5.607,5.607,0,0,0,109.762,147.227Zm0-8.153a2.508,2.508,0,1,1-2.508,2.508A2.511,2.511,0,0,1,109.762,139.075ZM56.98,161.258a2.508,2.508,0,1,1,2.508-2.508A2.511,2.511,0,0,1,56.98,161.258Zm16.781-17.166a2.508,2.508,0,1,1,2.508-2.508A2.511,2.511,0,0,1,73.761,144.092Zm18.3,18.666a2.508,2.508,0,1,1,2.508-2.508A2.511,2.511,0,0,1,92.057,162.758Z" transform="translate(-43.288 -114.626)"/>
  <path id="Trazado_819854" data-name="Trazado 819854" d="M132.828,129.156a1.566,1.566,0,1,0-1.11-.459A1.582,1.582,0,0,0,132.828,129.156Z" transform="translate(-110.681 -106.263)"/>
  <path id="Trazado_819855" data-name="Trazado 819855" d="M47.568,129.157h7.525a1.568,1.568,0,1,0,0-3.136H47.568a1.568,1.568,0,1,0,0,3.136Z" transform="translate(-38.788 -106.263)"/>
  <path id="Trazado_819856" data-name="Trazado 819856" d="M55.093,177.157a1.568,1.568,0,1,0,0-3.136H47.568a1.568,1.568,0,0,0,0,3.136Z" transform="translate(-38.788 -146.738)"/>
</svg>
